<svg xmlns="http://www.w3.org/2000/svg" xmlns:xlink="http://www.w3.org/1999/xlink" width="582" height="160.001" viewBox="0 0 582 160.001">
  <defs>
    <clipPath id="clip-path">
      <rect id="사각형_34" data-name="사각형 34" width="137.799" height="127.591" fill="none"/>
    </clipPath>
  </defs>
  <g id="그룹_16563" data-name="그룹 16563" transform="translate(-88 -831)">
    <path id="패스_50531" data-name="패스 50531" d="M15,0H567a15,15,0,0,1,15,15V145a15,15,0,0,1-15,15H15A15,15,0,0,1,0,145V15A15,15,0,0,1,15,0Z" transform="translate(88 831)" fill="#ffe498"/>
    <g id="그룹_15941" data-name="그룹 15941" transform="translate(472.577 863.41)">
      <g id="그룹_33" data-name="그룹 33" clip-path="url(#clip-path)">
        <path id="패스_1278" data-name="패스 1278" d="M55.781,64.387l-5.314,6.57s.236,3.574,4.909,7.755l-.032,5.582,10.184-.226.383-9.016s-4.3-12.949-10.13-10.665" transform="translate(-12.538 -15.929)" fill="#fcaa9a"/>
        <path id="패스_1279" data-name="패스 1279" d="M55.22,84.545a.377.377,0,0,1-.376-.378l.03-5.413c-4.612-4.186-4.9-7.746-4.907-7.9a.374.374,0,0,1,.083-.261l5.314-6.57a.378.378,0,0,1,.155-.113,4.163,4.163,0,0,1,1.523-.3c5.323,0,8.949,10.736,9.1,11.193a.389.389,0,0,1,.019.135l-.383,9.016a.376.376,0,0,1-.367.36l-10.184.226Zm-4.485-13.6c.106.683.79,3.8,4.767,7.363a.375.375,0,0,1,.126.283L55.6,83.785l9.446-.209.364-8.594c-.307-.887-3.777-10.614-8.366-10.614a3.383,3.383,0,0,0-1.158.21Z" transform="translate(-12.414 -15.805)" fill="#141316"/>
        <path id="패스_1280" data-name="패스 1280" d="M135.8,12.754s2.321-4.09,8.464-2.971c0,0,6.61.644,7.876,12.477,0,0,3.254,15.07,11.6,21.9,0,0,8.72,5,5.427,10.8,0,0,4.435,8.188-3.677,12.649,0,0-8.65,4.432-16.192-7.1,0,0-.339-.506-.9-1.426a3.906,3.906,0,0,1-3.133-1.527c-2.486-2.441-4.633-13.605-4.633-13.605-2.141-7.191-3.859-14.065-3.973-21.858Z" transform="translate(-33.738 -2.382)" fill="#141316"/>
        <path id="패스_1281" data-name="패스 1281" d="M107.935,14.065a10.558,10.558,0,0,0-8.395,7.576s-1.582,6.214,2.4,11.036Z" transform="translate(-24.653 -3.494)" fill="#141316"/>
        <path id="패스_1282" data-name="패스 1282" d="M122.646,64.312l11.957,4.58c3.22,1.838,16.286,5.9,13.351,25.367-3.549,23.543-6.974,48.031-7.361,48.924,0,0-50.322.213-53.069,0-.519-4.679-2.339-37.539-2.187-47.97,0,0-7.646-18.635,4.954-23.609l13.4-5.722Z" transform="translate(-20.63 -15.978)" fill="#ff7348"/>
        <path id="패스_1283" data-name="패스 1283" d="M103.141,26.582s-2.06-5.789,3.252-11.4A16.691,16.691,0,0,1,122.18,9.861s9.48.1,13.246,11.016c0,0,6.4,19.78-10.607,23.757Z" transform="translate(-25.527 -2.367)" fill="#141316"/>
        <path id="패스_1284" data-name="패스 1284" d="M113.112,67.117s-1.419,4.681,5.677,5.516,11.954-4.974,11.954-4.974" transform="translate(-28.073 -16.675)" fill="#feabad"/>
        <path id="패스_1285" data-name="패스 1285" d="M126.819,57.983,126.7,43.877s4.5-1,4.264-6.4c0,0-.368-3.4-3.239-3.623a3.092,3.092,0,0,0-3.367,1.857s-9.931-2.128-9.931-12.3c-5.664-2.336-10.76,1.242-11.119,4.4,0,0-.76,8.461-.757,12.242,0,0-.321,6,4.373,9.057a10.381,10.381,0,0,0,3.653,1.349l-.057,6.111" transform="translate(-25.476 -5.631)" fill="#fcaa9a"/>
        <path id="패스_1286" data-name="패스 1286" d="M133.1,41.675a.292.292,0,0,0,.3-.171c.022-.056.594-1.369,1.765-1.207l.023,0a1.747,1.747,0,0,1,1.453,1.633.283.283,0,0,0,.306.262.286.286,0,0,0,.264-.306,2.308,2.308,0,0,0-1.938-2.153.21.21,0,0,0-.034-.006,2.389,2.389,0,0,0-2.367,1.551.289.289,0,0,0,.151.375.356.356,0,0,0,.073.018" transform="translate(-33.006 -9.866)" fill="#141316"/>
        <path id="패스_1287" data-name="패스 1287" d="M113.15,59.256l3.744.141-3.706,2.954Z" transform="translate(-28.111 -14.722)" fill="#141316"/>
        <path id="패스_1288" data-name="패스 1288" d="M107.265,34.079a3.076,3.076,0,0,0-1.81-.179s-.461.1-.558.432c0,0-.025.4.535.51a14.421,14.421,0,0,1,1.924.267.579.579,0,0,0,.631-.342s.179-.308-.723-.688" transform="translate(-26.061 -8.408)" fill="#141316"/>
        <path id="패스_1289" data-name="패스 1289" d="M116.223,34.27a4.969,4.969,0,0,1,2.249.405s.527.2.537.6c0,0-.094.4-.746.368a22.182,22.182,0,0,0-2.434-.253s-.612-.047-.607-.564c0,0-.054-.474,1-.559" transform="translate(-28.626 -8.512)" fill="#141316"/>
        <path id="패스_1290" data-name="패스 1290" d="M116.057,39.231a.862.862,0,1,0,.862-.861.861.861,0,0,0-.862.861" transform="translate(-28.833 -9.533)" fill="#141316"/>
        <path id="패스_1291" data-name="패스 1291" d="M105.819,39.231a.861.861,0,1,0,.86-.861.86.86,0,0,0-.86.861" transform="translate(-26.29 -9.533)" fill="#141316"/>
        <path id="패스_1292" data-name="패스 1292" d="M110,44.279a.393.393,0,0,1-.1-.014,2.057,2.057,0,0,1-1.316-1.049,1.4,1.4,0,0,1,.262-1.577,5.154,5.154,0,0,0,.815-4.435.376.376,0,0,1,.72-.215,5.85,5.85,0,0,1-.97,5.146s-.352.416-.16.738a1.314,1.314,0,0,0,.851.668.376.376,0,0,1-.1.737" transform="translate(-26.939 -9.123)" fill="#141316"/>
        <path id="패스_1293" data-name="패스 1293" d="M110.519,48.774s3.532-.5,4.527-.718a2.515,2.515,0,0,1-1.949,2.878,2.114,2.114,0,0,1-2.578-2.161" transform="translate(-27.458 -11.939)" fill="#f98298"/>
        <path id="패스_1294" data-name="패스 1294" d="M112.527,51.226a2.441,2.441,0,0,1-2.506-2.539.376.376,0,0,1,.321-.41c.035,0,3.529-.5,4.5-.713a.386.386,0,0,1,.293.059.375.375,0,0,1,.158.253,2.834,2.834,0,0,1-2.245,3.3,2.679,2.679,0,0,1-.521.047m-1.706-2.258a1.635,1.635,0,0,0,1.706,1.506,1.894,1.894,0,0,0,.365-.032,2.013,2.013,0,0,0,1.673-2.059c-1.037.189-2.938.467-3.744.584" transform="translate(-27.333 -11.815)" fill="#141316"/>
        <path id="패스_1295" data-name="패스 1295" d="M127.593,47.027a.375.375,0,0,1-.217-.682c3.5-2.474,1.57-8.7,1.55-8.763a.376.376,0,1,1,.716-.228c.088.277,2.11,6.817-1.833,9.6a.372.372,0,0,1-.216.069" transform="translate(-31.606 -9.215)" fill="#141316"/>
        <path id="패스_1296" data-name="패스 1296" d="M175.067,64.742a.286.286,0,0,1-.14-.037.282.282,0,0,1-.1-.385,6.762,6.762,0,0,0,.22-6.87.283.283,0,0,1-.021-.275c2.823-6.071-4.315-10.353-4.387-10.4-9.576-7.406-15.048-26.207-15.1-26.4a.282.282,0,1,1,.542-.156c.053.187,5.476,18.812,14.876,26.086.046.025,7.513,4.5,4.645,10.961a7.291,7.291,0,0,1-.283,7.325.282.282,0,0,1-.245.142" transform="translate(-38.638 -4.975)" fill="#141316"/>
        <path id="패스_1297" data-name="패스 1297" d="M100.283,29.639a.283.283,0,0,1-.226-.113c-3.121-4.177-1.714-9.532-1.652-9.757,2.225-6.936,9.7-6.1,9.777-6.088a.282.282,0,0,1-.068.559c-.289-.034-7.091-.785-9.169,5.689-.011.04-1.39,5.308,1.564,9.259a.282.282,0,0,1-.057.395.277.277,0,0,1-.168.056" transform="translate(-24.356 -3.39)" fill="#141316"/>
        <path id="패스_1298" data-name="패스 1298" d="M60.5,51.545s-4.509,12.418-7.581,16.273a4.806,4.806,0,0,0,4.5,2.939A109.483,109.483,0,0,0,69.45,53.167S64.669,51.2,60.5,51.545" transform="translate(-13.148 -12.796)" fill="#84aaff"/>
        <path id="패스_1299" data-name="패스 1299" d="M72.125,33.026q2.362,1.31,4.976,2.57s5.6,3.011,3.423,9.279c0,0-1.045,5.557-10.39,3.831,0,0-1.675-.533-4.444-1.11,4.479-3.165,6.624-9.107,6.435-14.57" transform="translate(-16.32 -8.205)" fill="#7673ff"/>
        <path id="패스_1300" data-name="패스 1300" d="M27.313,42.047l11.7-35.3S46.037,17.32,62.59,26.5c.189,5.464-1.956,11.406-6.435,14.57-6.242-1.306-18.063-2.844-28.843.979" transform="translate(-6.786 -1.677)" fill="#84aaff"/>
        <path id="패스_1301" data-name="패스 1301" d="M24.27,21.607C20.786,31.8,20.58,40.956,23.808,42.058S32.474,35.792,35.955,25.6s3.689-19.347.461-20.45S27.749,11.416,24.27,21.607" transform="translate(-5.345 -1.252)" fill="#fff"/>
        <path id="패스_1302" data-name="패스 1302" d="M25.293,22.068c-3.273,9.583-3.752,18.094-1.069,19.012s7.514-6.109,10.788-15.693,3.75-18.1,1.068-19.013-7.513,6.109-10.786,15.693" transform="translate(-5.587 -1.564)" fill="#84aaff"/>
        <path id="패스_1303" data-name="패스 1303" d="M32.926,23.42l5.64.411S36.5,32.2,34.584,35.436l-4.557-2.542Z" transform="translate(-7.46 -5.819)" fill="#141316"/>
        <path id="패스_1304" data-name="패스 1304" d="M28.624,27.427c-.745,2.637-.312,5.069.963,5.427s2.913-1.487,3.658-4.125.313-5.069-.963-5.429-2.915,1.487-3.659,4.127" transform="translate(-7.021 -5.777)" fill="#fff"/>
        <path id="패스_1305" data-name="패스 1305" d="M57.079,60.647a1.451,1.451,0,0,0-.048,2.043L61.55,66.8a1.562,1.562,0,0,0,2.078-2.289L59.108,60.4a1.452,1.452,0,0,0-2.029.246" transform="translate(-14.07 -14.929)" fill="#fcaa9a"/>
        <path id="패스_1306" data-name="패스 1306" d="M62.258,67.365h0a1.608,1.608,0,0,1-1.085-.408L56.654,62.85a1.615,1.615,0,0,1-.519-1.13,2.031,2.031,0,0,1,.542-1.444,1.875,1.875,0,0,1,2.56-.271l4.52,4.107a1.614,1.614,0,0,1,.519,1.258,2.041,2.041,0,0,1-.543,1.317,2.012,2.012,0,0,1-1.475.679m-4.107-7.017a1.26,1.26,0,0,0-.919.434,1.273,1.273,0,0,0-.346.9.862.862,0,0,0,.274.61L61.679,66.4a1.109,1.109,0,0,0,1.5-.219,1.292,1.292,0,0,0,.348-.829.878.878,0,0,0-.273-.684l-4.521-4.107a.844.844,0,0,0-.579-.213" transform="translate(-13.946 -14.811)" fill="#141316"/>
        <path id="패스_1307" data-name="패스 1307" d="M54.214,63.582a1.448,1.448,0,0,0-.049,2.041l4.519,4.108a1.561,1.561,0,0,0,2.078-2.286l-4.519-4.108a1.453,1.453,0,0,0-2.029.245" transform="translate(-13.358 -15.658)" fill="#fcaa9a"/>
        <path id="패스_1308" data-name="패스 1308" d="M59.392,70.3h0a1.606,1.606,0,0,1-1.085-.41l-4.52-4.107a1.606,1.606,0,0,1-.517-1.123,2.031,2.031,0,0,1,.541-1.45,1.874,1.874,0,0,1,2.56-.27l4.52,4.107a1.605,1.605,0,0,1,.517,1.125,2.032,2.032,0,0,1-.542,1.448,2.01,2.01,0,0,1-1.474.679m-4.107-7.017a1.259,1.259,0,0,0-.918.434,1.278,1.278,0,0,0-.347.907.852.852,0,0,0,.272.6l4.52,4.109a1.107,1.107,0,0,0,1.5-.219,1.277,1.277,0,0,0,.346-.906.857.857,0,0,0-.271-.6L55.865,63.5a.844.844,0,0,0-.579-.214" transform="translate(-13.234 -15.54)" fill="#141316"/>
        <path id="패스_1309" data-name="패스 1309" d="M51.767,66.474a1.428,1.428,0,0,0-.1,2l4.3,3.914a1.575,1.575,0,0,0,2.08-2.289l-4.3-3.911a1.428,1.428,0,0,0-1.984.288" transform="translate(-12.747 -16.372)" fill="#fcaa9a"/>
        <path id="패스_1310" data-name="패스 1310" d="M56.625,72.929h0a1.5,1.5,0,0,1-1.024-.383L51.3,68.632a1.8,1.8,0,0,1,.07-2.529,1.845,1.845,0,0,1,2.515-.313l4.3,3.911a1.535,1.535,0,0,1,.486,1.237,2.083,2.083,0,0,1-.556,1.295,2.042,2.042,0,0,1-1.49.7m-3.771-6.772a1.3,1.3,0,0,0-.932.451,1.061,1.061,0,0,0-.121,1.468l4.3,3.914a.765.765,0,0,0,.519.187,1.313,1.313,0,0,0,.935-.45,1.341,1.341,0,0,0,.361-.824.8.8,0,0,0-.241-.646l-4.3-3.911a.761.761,0,0,0-.52-.189" transform="translate(-12.624 -16.254)" fill="#141316"/>
        <path id="패스_1311" data-name="패스 1311" d="M49.859,70.081a1.277,1.277,0,0,0-.154,1.765l3.629,3.3a1.464,1.464,0,0,0,1.9-2.089l-3.63-3.3a1.276,1.276,0,0,0-1.742.322" transform="translate(-12.277 -17.275)" fill="#fcaa9a"/>
        <path id="패스_1312" data-name="패스 1312" d="M53.83,75.627h0a1.267,1.267,0,0,1-.87-.322l-3.63-3.3a1.648,1.648,0,0,1,.129-2.3,1.684,1.684,0,0,1,2.274-.347l3.629,3.3a1.649,1.649,0,0,1-.129,2.3,1.954,1.954,0,0,1-1.4.67M50.861,69.79a1.2,1.2,0,0,0-.846.425c-.377.416-.459.981-.18,1.235l3.629,3.3a.536.536,0,0,0,.365.127,1.2,1.2,0,0,0,.846-.424c.377-.416.459-.982.179-1.236l-3.629-3.3a.532.532,0,0,0-.365-.128" transform="translate(-12.154 -17.156)" fill="#141316"/>
        <path id="패스_1313" data-name="패스 1313" d="M68.085,74.223a11.4,11.4,0,0,0,1.227-8.073,12.055,12.055,0,0,0-3.172-6.1S62.674,56,61.8,56.25c0,0-1.973.564-.507,3.072a18.832,18.832,0,0,0,2,2.513c.415.984,1.778,2.789,1.869,3.622,0,0-1.449.578-2.754,6.145" transform="translate(-15.094 -13.972)" fill="#fcaa9a"/>
        <path id="패스_1314" data-name="패스 1314" d="M67.96,74.476a.376.376,0,0,1-.316-.579,11.123,11.123,0,0,0,1.177-7.788,11.814,11.814,0,0,0-3.078-5.919c-1.535-1.8-3.487-3.7-3.976-3.7h0a1.213,1.213,0,0,0-.684.641,2.287,2.287,0,0,0,.415,1.876,18.634,18.634,0,0,0,1.941,2.441.376.376,0,0,1,.077.116,12.893,12.893,0,0,0,.781,1.4,7.418,7.418,0,0,1,1.115,2.325.375.375,0,0,1-.234.39s-1.317.719-2.527,5.882a.376.376,0,1,1-.732-.172c1.027-4.379,2.17-5.787,2.7-6.224a11.2,11.2,0,0,0-.964-1.811,14.533,14.533,0,0,1-.8-1.433A19.2,19.2,0,0,1,60.855,59.4a2.932,2.932,0,0,1-.469-2.558,1.952,1.952,0,0,1,1.188-1.079c.959-.278,3.374,2.337,4.727,3.921a12.305,12.305,0,0,1,3.259,6.29A11.639,11.639,0,0,1,68.276,74.3a.374.374,0,0,1-.316.173" transform="translate(-14.969 -13.85)" fill="#141316"/>
        <path id="패스_1315" data-name="패스 1315" d="M83.016,74.014a24.006,24.006,0,0,0-10.56,9.779S60.39,102.415,55.431,112.331c0,0-5.566,12.221,3.574,15.444,0,0,6.012,3.148,13.357-6.768l11.926-16.789" transform="translate(-13.354 -18.388)" fill="#ff7348"/>
        <path id="패스_1316" data-name="패스 1316" d="M67.657,85.751,54.48,87.363s-2.747,25.4-.7,37.612l13.9-10.632S68.308,92,67.657,85.751" transform="translate(-13.173 -21.304)" fill="#ff7348"/>
        <path id="패스_1317" data-name="패스 1317" d="M156.831,74.014s9.618,3.406,14.465,25.6c0,0,5.518,22.971,1.154,36.039a30.328,30.328,0,0,1-3.718,10.03H152.818" transform="translate(-37.966 -18.388)" fill="#ff7348"/>
        <path id="패스_1318" data-name="패스 1318" d="M152.694,152.24a.351.351,0,0,1-.083-.01.375.375,0,0,1-.283-.449c2.219-9.755,3.219-14.8,4.209-19.94.507-12.759-3.282-31.982-3.32-32.174a.376.376,0,0,1,.737-.147c.038.193,3.844,19.5,3.328,32.407-1,5.2-2,10.254-4.222,20.02a.374.374,0,0,1-.365.292" transform="translate(-37.842 -24.65)" fill="#141316"/>
        <path id="패스_1319" data-name="패스 1319" d="M74.372,117.916a.376.376,0,0,1-.376-.372c-.071-6.958-1.25-21.964-1.263-22.114a.377.377,0,0,1,.345-.405.372.372,0,0,1,.4.345c.012.152,1.193,15.183,1.265,22.166a.376.376,0,0,1-.372.38Z" transform="translate(-18.07 -23.608)" fill="#141316"/>
        <path id="패스_1320" data-name="패스 1320" d="M159,141.087a.374.374,0,0,1-.254-.65c.126-.114,1.363-1.114,5.926-1.114a.376.376,0,1,1,.014.752h-.014c-4.27,0-5.416.915-5.427.924a.388.388,0,0,1-.245.088" transform="translate(-39.41 -34.614)" fill="#141316"/>
        <path id="패스_1321" data-name="패스 1321" d="M116.062,92.134a.376.376,0,0,1-.376-.376V74.874a.376.376,0,1,1,.752,0V91.758a.376.376,0,0,1-.376.376" transform="translate(-28.741 -18.508)" fill="#141316"/>
        <path id="패스_1322" data-name="패스 1322" d="M109.761,63.371l5.352,7.926-5.992,5.257-3.564-10.048Z" transform="translate(-26.225 -15.744)" fill="#fff"/>
        <path id="패스_1323" data-name="패스 1323" d="M132.054,60.654l-13.783,9.967,4.675,6.974L136.426,65Z" transform="translate(-29.384 -15.069)" fill="#fff"/>
        <path id="패스_1324" data-name="패스 1324" d="M118.388,81.748a.87.87,0,1,0,.871-.869.871.871,0,0,0-.871.869" transform="translate(-29.413 -20.094)" fill="#fff"/>
        <path id="패스_1325" data-name="패스 1325" d="M118.388,87.895a.87.87,0,1,0,.871-.869.871.871,0,0,0-.871.869" transform="translate(-29.413 -21.621)" fill="#fff"/>
        <path id="패스_1326" data-name="패스 1326" d="M118.388,94.477a.87.87,0,1,0,.871-.871.872.872,0,0,0-.871.871" transform="translate(-29.413 -23.256)" fill="#fff"/>
        <g id="그룹_15942" data-name="그룹 15942">
          <g id="그룹_15940" data-name="그룹 15940">
            <rect id="사각형_28" data-name="사각형 28" width="0.751" height="1.127" transform="translate(17.439 8.572) rotate(-38.069)" fill="#fff"/>
            <path id="패스_1327" data-name="패스 1327" d="M20.579,7.9,19.448,6.454l.592-.463,1.13,1.444ZM18.317,5.01l-1.13-1.444.591-.464,1.13,1.444Z" transform="translate(-4.27 -0.771)" fill="#fff"/>
            <rect id="사각형_29" data-name="사각형 29" width="0.751" height="1.127" transform="matrix(0.787, -0.617, 0.617, 0.787, 11.091, 0.463)" fill="#fff"/>
            <rect id="사각형_30" data-name="사각형 30" width="0.751" height="1.127" transform="translate(12.091 18.314) rotate(-62.137)" fill="#fff"/>
            <path id="패스_1328" data-name="패스 1328" d="M12.321,22.158,10.7,21.3l.35-.664,1.623.858ZM9.077,20.444l-1.622-.857.351-.664,1.622.857Z" transform="translate(-1.852 -4.701)" fill="#fff"/>
            <rect id="사각형_31" data-name="사각형 31" width="0.751" height="1.127" transform="matrix(0.467, -0.884, 0.884, 0.467, 2.985, 13.502)" fill="#fff"/>
            <rect id="사각형_32" data-name="사각형 32" width="1.127" height="0.752" transform="translate(10.222 28.693) rotate(-6.891)" fill="#fff"/>
            <path id="패스_1329" data-name="패스 1329" d="M4,39.879l-.091-.746,1.821-.22.091.746Zm3.641-.44-.091-.746,1.821-.22.09.746Z" transform="translate(-0.972 -9.559)" fill="#fff"/>
          </g>
          <rect id="사각형_33" data-name="사각형 33" width="1.127" height="0.752" transform="translate(0 29.93) rotate(-6.891)" fill="#fff"/>
        </g>
        <path id="패스_1330" data-name="패스 1330" d="M86.414,118.958a.376.376,0,0,1-.376-.376V99.594a.376.376,0,1,1,.752,0v18.988a.376.376,0,0,1-.376.376" transform="translate(-21.375 -24.65)" fill="#141316"/>
      </g>
    </g>
  </g>
</svg>
