<svg id="icon_개인정보동의" xmlns="http://www.w3.org/2000/svg" xmlns:xlink="http://www.w3.org/1999/xlink" width="50" height="50" viewBox="0 0 50 50">
  <defs>
    <clipPath id="clip-path">
      <rect id="사각형_6671" data-name="사각형 6671" width="50" height="50" fill="none"/>
    </clipPath>
  </defs>
  <g id="그룹_14258" data-name="그룹 14258">
    <g id="그룹_14257" data-name="그룹 14257" clip-path="url(#clip-path)">
      <path id="패스_8015" data-name="패스 8015" d="M37.76,42.67a1.5,1.5,0,0,1-1.5-1.5V36a11.21,11.21,0,0,0-7.06-10.44,1.5,1.5,0,1,1,1.122-2.783A14.2,14.2,0,0,1,39.26,36V41.17a1.5,1.5,0,0,1-1.5,1.5" fill="#1a72c9"/>
      <path id="패스_8016" data-name="패스 8016" d="M25,26.92a11.211,11.211,0,1,1,5.5-1.449A11.187,11.187,0,0,1,25,26.92m0-19.4A8.2,8.2,0,0,0,20.978,22.86,8.2,8.2,0,0,0,33.2,15.722a8.209,8.209,0,0,0-8.2-8.2" fill="#444"/>
      <path id="패스_8017" data-name="패스 8017" d="M34.954,45.478H15.045a4.311,4.311,0,0,1-4.3-4.308V36a14.2,14.2,0,0,1,8.938-13.224A1.5,1.5,0,1,1,20.8,25.557,11.212,11.212,0,0,0,13.741,36V41.17a1.308,1.308,0,0,0,1.3,1.308H34.954a1.309,1.309,0,0,0,1.307-1.308,1.5,1.5,0,0,1,3,0,4.313,4.313,0,0,1-4.307,4.308" fill="#444"/>
    </g>
  </g>
</svg>
