<svg id="icon_버스" xmlns="http://www.w3.org/2000/svg" xmlns:xlink="http://www.w3.org/1999/xlink" width="40" height="40" viewBox="0 0 40 40">
  <defs>
    <clipPath id="clip-path">
      <rect id="사각형_8182" data-name="사각형 8182" width="40" height="40" fill="none"/>
    </clipPath>
  </defs>
  <g id="그룹_15953" data-name="그룹 15953" clip-path="url(#clip-path)">
    <path id="패스_54051" data-name="패스 54051" d="M39.6,31.515H1.728V17.33a3.745,3.745,0,0,1,3.745-3.745H35.856A3.745,3.745,0,0,1,39.6,17.33Z" transform="translate(-0.665 -5.225)" fill="#fff"/>
    <path id="패스_54052" data-name="패스 54052" d="M39.12,31.8H1.247a.77.77,0,0,1-.769-.769V16.849a4.52,4.52,0,0,1,4.514-4.514H35.375a4.52,4.52,0,0,1,4.514,4.514V31.034a.77.77,0,0,1-.769.769m-37.1-1.538H38.351V16.849a2.979,2.979,0,0,0-2.976-2.976H4.992a2.979,2.979,0,0,0-2.976,2.976Z" transform="translate(-0.184 -4.744)" fill="#444"/>
    <path id="패스_54053" data-name="패스 54053" d="M8.694,19.039a1.514,1.514,0,0,0-1.512,1.513v3.831h5.77V19.039Z" transform="translate(-2.762 -7.323)" fill="#8cd8ee"/>
    <path id="패스_54054" data-name="패스 54054" d="M12.472,24.671H6.7a.77.77,0,0,1-.769-.769V20.071a2.284,2.284,0,0,1,2.281-2.282h4.258a.77.77,0,0,1,.769.769V23.9a.77.77,0,0,1-.769.769m-5-1.538H11.7v-3.8H8.214a.744.744,0,0,0-.743.743Z" transform="translate(-2.282 -6.842)" fill="#444"/>
    <path id="패스_54055" data-name="패스 54055" d="M44.25,20.552a1.514,1.514,0,0,0-1.512-1.513h-20.2v5.343H44.25Z" transform="translate(-8.67 -7.323)" fill="#8cd8ee"/>
    <path id="패스_54056" data-name="패스 54056" d="M43.769,24.671H22.062a.77.77,0,0,1-.769-.769V18.558a.77.77,0,0,1,.769-.769h20.2a2.284,2.284,0,0,1,2.281,2.282V23.9a.769.769,0,0,1-.769.769M22.831,23.132H43V20.071a.744.744,0,0,0-.743-.743H22.831Z" transform="translate(-8.19 -6.842)" fill="#444"/>
    <line id="선_610" data-name="선 610" y2="5.343" transform="translate(21.233 11.716)" fill="#8cd8ee"/>
    <path id="패스_54057" data-name="패스 54057" d="M34.023,24.671a.77.77,0,0,1-.769-.769V18.558a.769.769,0,1,1,1.538,0V23.9a.77.77,0,0,1-.769.769" transform="translate(-12.79 -6.842)" fill="#444"/>
    <line id="선_611" data-name="선 611" y2="5.343" transform="translate(28.219 11.716)" fill="#8cd8ee"/>
    <path id="패스_54058" data-name="패스 54058" d="M45.374,24.671a.77.77,0,0,1-.769-.769V18.558a.769.769,0,1,1,1.538,0V23.9a.77.77,0,0,1-.769.769" transform="translate(-17.156 -6.842)" fill="#444"/>
    <path id="패스_54059" data-name="패스 54059" d="M13.667,42.922a3.775,3.775,0,1,1-3.775-3.775,3.775,3.775,0,0,1,3.775,3.775" transform="translate(-2.353 -15.057)" fill="#8cd8ee"/>
    <path id="패스_54060" data-name="패스 54060" d="M9.411,46.985a4.544,4.544,0,1,1,4.544-4.544,4.55,4.55,0,0,1-4.544,4.544m0-7.55a3.006,3.006,0,1,0,3.006,3.006,3.009,3.009,0,0,0-3.006-3.006" transform="translate(-1.872 -14.576)" fill="#444"/>
    <path id="패스_54061" data-name="패스 54061" d="M54.165,42.922a3.775,3.775,0,1,1-3.775-3.775,3.775,3.775,0,0,1,3.775,3.775" transform="translate(-17.929 -15.057)" fill="#8cd8ee"/>
    <path id="패스_54062" data-name="패스 54062" d="M49.909,46.985a4.544,4.544,0,1,1,4.544-4.544,4.55,4.55,0,0,1-4.544,4.544m0-7.55a3.006,3.006,0,1,0,3.006,3.006,3.009,3.009,0,0,0-3.006-3.006" transform="translate(-17.448 -14.576)" fill="#444"/>
  </g>
</svg>
