<svg id="icon_승용차" xmlns="http://www.w3.org/2000/svg" xmlns:xlink="http://www.w3.org/1999/xlink" width="40" height="40" viewBox="0 0 40 40">
  <defs>
    <clipPath id="clip-path">
      <rect id="사각형_8183" data-name="사각형 8183" width="40" height="40" fill="none"/>
    </clipPath>
  </defs>
  <g id="그룹_15954" data-name="그룹 15954" clip-path="url(#clip-path)">
    <path id="패스_54063" data-name="패스 54063" d="M15.064,52.8a3.1,3.1,0,0,1-3.1-3.1V46.579a.77.77,0,0,1,.769-.769h4.653a.77.77,0,0,1,.769.769v3.127a3.1,3.1,0,0,1-3.1,3.1m-1.557-5.454v2.358a1.557,1.557,0,1,0,3.114,0V47.348Z" transform="translate(-4.603 -17.619)" fill="#444"/>
    <path id="패스_54064" data-name="패스 54064" d="M46.062,52.8a3.1,3.1,0,0,1-3.1-3.1V46.579a.77.77,0,0,1,.769-.769h4.655a.769.769,0,0,1,.769.769v3.127a3.1,3.1,0,0,1-3.1,3.1M44.5,47.348v2.358a1.558,1.558,0,0,0,3.116,0V47.348Z" transform="translate(-16.525 -17.619)" fill="#444"/>
    <path id="패스_54065" data-name="패스 54065" d="M35.553,26.882H8.911A3.114,3.114,0,0,0,5.8,29.991V35.42a3.113,3.113,0,0,0,3.109,3.11H35.553a3.113,3.113,0,0,0,3.108-3.11V29.991a3.112,3.112,0,0,0-3.108-3.109" transform="translate(-2.232 -10.339)" fill="#fff"/>
    <path id="패스_54066" data-name="패스 54066" d="M34.59,24.382H7.949A4.654,4.654,0,0,0,3.3,29.029v5.429A4.654,4.654,0,0,0,7.95,39.107H34.59a4.653,4.653,0,0,0,4.647-4.649V29.029a4.653,4.653,0,0,0-4.647-4.647M37.7,34.458a3.114,3.114,0,0,1-3.109,3.11H7.95a3.114,3.114,0,0,1-3.11-3.11V29.029A3.114,3.114,0,0,1,7.949,25.92H34.59A3.113,3.113,0,0,1,37.7,29.029Z" transform="translate(-1.27 -9.378)" fill="#444"/>
    <path id="패스_54067" data-name="패스 54067" d="M16.8,34.649a2.715,2.715,0,1,1-2.714-2.715A2.714,2.714,0,0,1,16.8,34.649" transform="translate(-4.372 -12.282)" fill="#8cd8ee"/>
    <path id="패스_54068" data-name="패스 54068" d="M13.6,37.651a3.484,3.484,0,1,1,3.483-3.483A3.488,3.488,0,0,1,13.6,37.651m0-5.429a1.945,1.945,0,1,0,1.945,1.946A1.949,1.949,0,0,0,13.6,32.222" transform="translate(-3.891 -11.802)" fill="#444"/>
    <path id="패스_54069" data-name="패스 54069" d="M50.24,34.649a2.715,2.715,0,1,1-2.714-2.715,2.714,2.714,0,0,1,2.714,2.715" transform="translate(-17.235 -12.282)" fill="#8cd8ee"/>
    <path id="패스_54070" data-name="패스 54070" d="M47.045,37.651a3.484,3.484,0,1,1,3.483-3.483,3.488,3.488,0,0,1-3.483,3.483m0-5.429a1.945,1.945,0,1,0,1.945,1.946,1.949,1.949,0,0,0-1.945-1.946" transform="translate(-16.754 -11.802)" fill="#444"/>
    <path id="패스_54071" data-name="패스 54071" d="M36.558,19.4a.77.77,0,0,1-.728-.519l-2.643-7.7a3.628,3.628,0,0,0-3.261-1.819H18.983a3.631,3.631,0,0,0-3.262,1.819l-2.642,7.7a.769.769,0,0,1-1.456-.5l2.642-7.7c.552-1.6,2.624-2.858,4.718-2.858H29.926c2.094,0,4.166,1.255,4.717,2.857l2.643,7.7a.768.768,0,0,1-.728,1.019" transform="translate(-4.454 -3.011)" fill="#444"/>
  </g>
</svg>
