<svg id="icon_링크호버" xmlns="http://www.w3.org/2000/svg" width="16" height="16" viewBox="0 0 16 16">
  <rect id="link-unlink_Background_" data-name="link-unlink (Background)" width="16" height="16" fill="none"/>
  <path id="link-unlink" d="M8,12H7V10H8v2Zm2.646-.646h0l-1.62-1.62.707-.707,1.621,1.621-.707.707Zm-7.651-.1A2.25,2.25,0,0,1,1.4,7.414l2.3-2.3.707.707-2.3,2.3A1.25,1.25,0,0,0,3.879,9.889l2.3-2.3.707.707-2.3,2.3A2.235,2.235,0,0,1,2.995,11.255ZM12,8H10V7h2V8ZM8.3,6.884h0l-.707-.707,2.3-2.3A1.25,1.25,0,1,0,8.122,2.111l-2.3,2.3L5.116,3.7l2.3-2.3A2.25,2.25,0,1,1,10.6,4.586l-2.3,2.3ZM2,5H0V4H2V5Zm.268-2.026h0L.646,1.354,1.354.646,2.975,2.268l-.706.706ZM5,2H4V0H5V2Z" transform="translate(2 2)" fill="#fff"/>
</svg>
