<svg xmlns="http://www.w3.org/2000/svg" width="10.656" height="10.656" viewBox="0 0 10.656 10.656">
  <path id="link" d="M2.5,10.657A2.5,2.5,0,0,1,.733,6.389L2.854,4.268l.707.707L1.439,7.1A1.5,1.5,0,1,0,3.56,9.218L5.682,7.1l.707.706L4.268,9.924A2.484,2.484,0,0,1,2.5,10.657ZM4.268,7.1h0L3.56,6.389,6.389,3.56l.707.707L4.269,7.1ZM7.8,6.389h0L7.1,5.682,9.218,3.56A1.5,1.5,0,1,0,7.1,1.439L4.975,3.56l-.707-.707L6.389.733A2.5,2.5,0,1,1,9.924,4.268L7.8,6.388Z" transform="translate(0 0)" fill="rgba(0,0,0,0.9)"/>
</svg>
