<svg id="icon_다운받기" xmlns="http://www.w3.org/2000/svg" width="12" height="12" viewBox="0 0 12 12">
  <rect id="file-copy_Background_" data-name="file-copy (Background)" width="12" height="12" fill="none"/>
  <path id="file-copy" d="M6,10.013H.667A.693.693,0,0,1,0,9.3V2.858H.667V9.3H6v.714Zm1.34-1.439H2a.655.655,0,0,1-.664-.659l0-7.257A.655.655,0,0,1,2,0H4.911a.641.641,0,0,1,.476.214L7.81,2.861a.737.737,0,0,1,.191.5L8,7.916A.655.655,0,0,1,7.341,8.574ZM2,.714,2,7.86H7.337l0-4.278H4.668V.714Zm3.334.462V2.868H6.882Z" transform="translate(2 1)" fill="rgba(0,0,0,0.9)"/>
</svg>
