<svg id="구성_요소_790_3" data-name="구성 요소 790 – 3" xmlns="http://www.w3.org/2000/svg" width="36" height="36" viewBox="0 0 36 36">
  <rect id="사각형_840" data-name="사각형 840" width="36" height="36" fill="none"/>
  <path id="apps_FILL0_wght200_GRAD0_opsz40" d="M9.522,11.085a1.484,1.484,0,0,1-1.112-.469,1.529,1.529,0,0,1-.452-1.095A1.544,1.544,0,0,1,9.522,7.958a1.529,1.529,0,0,1,1.095.452,1.484,1.484,0,0,1,.469,1.112,1.6,1.6,0,0,1-1.564,1.564ZM18,28.042a1.544,1.544,0,0,1-1.564-1.564,1.529,1.529,0,0,1,.452-1.095,1.553,1.553,0,0,1,2.223,0,1.529,1.529,0,0,1,.452,1.095A1.544,1.544,0,0,1,18,28.042Zm-8.478,0a1.544,1.544,0,0,1-1.564-1.564,1.529,1.529,0,0,1,.452-1.095,1.484,1.484,0,0,1,1.112-.469,1.6,1.6,0,0,1,1.564,1.564,1.484,1.484,0,0,1-.469,1.112A1.529,1.529,0,0,1,9.522,28.042Zm0-8.478a1.564,1.564,0,1,1,0-3.127,1.529,1.529,0,0,1,1.095.452,1.553,1.553,0,0,1,0,2.223A1.529,1.529,0,0,1,9.522,19.564Zm8.478,0a1.544,1.544,0,1,1,1.112-.452A1.509,1.509,0,0,1,18,19.564Zm8.478-8.478a1.6,1.6,0,0,1-1.564-1.564,1.484,1.484,0,0,1,.469-1.112,1.529,1.529,0,0,1,1.095-.452,1.544,1.544,0,0,1,1.564,1.564,1.529,1.529,0,0,1-.452,1.095A1.484,1.484,0,0,1,26.478,11.085Zm-8.478,0a1.482,1.482,0,0,1-1.112-.469,1.529,1.529,0,0,1-.452-1.095,1.564,1.564,0,1,1,3.127,0,1.529,1.529,0,0,1-.452,1.095A1.482,1.482,0,0,1,18,11.085Zm8.478,8.478a1.529,1.529,0,0,1-1.095-.452,1.553,1.553,0,0,1,0-2.223,1.529,1.529,0,0,1,1.095-.452,1.564,1.564,0,1,1,0,3.127Zm0,8.478a1.529,1.529,0,0,1-1.095-.452,1.484,1.484,0,0,1-.469-1.112,1.6,1.6,0,0,1,1.564-1.564,1.484,1.484,0,0,1,1.112.469,1.529,1.529,0,0,1,.452,1.095,1.544,1.544,0,0,1-1.564,1.564Z" transform="translate(0.042 0.043)" fill="#fff"/>
</svg>
