<svg id="icon_id" xmlns="http://www.w3.org/2000/svg" width="20" height="20" viewBox="0 0 20 20">
  <rect id="Rectangle_4117" data-name="Rectangle 4117" width="20" height="20" transform="translate(0)" fill="#999" opacity="0"/>
  <path id="Union" d="M15.625,16.249h-15A.626.626,0,0,1,0,15.625V12.781a1.206,1.206,0,0,1,.672-1.09,17.274,17.274,0,0,1,14.907,0,1.205,1.205,0,0,1,.67,1.09v2.844A.625.625,0,0,1,15.625,16.249Zm-7.5-5A15.91,15.91,0,0,0,1.25,12.8V15H15V12.8A15.911,15.911,0,0,0,8.125,11.25Zm0-2.5A4.375,4.375,0,1,1,12.5,4.375,4.38,4.38,0,0,1,8.125,8.75Zm0-7.5A3.125,3.125,0,1,0,11.25,4.375,3.129,3.129,0,0,0,8.125,1.25Z" transform="translate(1.875 1.875)" fill="#999"/>
</svg>
