<svg id="그룹_13660" data-name="그룹 13660" xmlns="http://www.w3.org/2000/svg" xmlns:xlink="http://www.w3.org/1999/xlink" width="65" height="65" viewBox="0 0 65 65">
  <defs>
    <clipPath id="clip-path">
      <rect id="사각형_6373" data-name="사각형 6373" width="65" height="65" fill="none"/>
    </clipPath>
  </defs>
  <g id="그룹_13659" data-name="그룹 13659" clip-path="url(#clip-path)">
    <path id="패스_6644" data-name="패스 6644" d="M57.134,55.484H7.866a1.25,1.25,0,0,1-1.25-1.25V24.627a1.25,1.25,0,0,1,1.25-1.25H57.134a1.25,1.25,0,0,1,1.25,1.25V54.234a1.25,1.25,0,0,1-1.25,1.25m-48.018-2.5H55.885V25.878H9.116Z" fill="#444"/>
    <rect id="사각형_6366" data-name="사각형 6366" width="53.141" height="10.986" transform="translate(5.93 13.641)" fill="#8cd8ee"/>
    <path id="패스_6645" data-name="패스 6645" d="M59.071,25.877H5.929a1.25,1.25,0,0,1-1.25-1.25V13.641a1.25,1.25,0,0,1,1.25-1.25H59.071a1.25,1.25,0,0,1,1.25,1.25V24.627a1.25,1.25,0,0,1-1.25,1.25m-51.892-2.5H57.821V14.891H7.179Z" fill="#444"/>
    <line id="선_62" data-name="선 62" y1="5.75" transform="translate(52.524 10.766)" fill="#8cd8ee"/>
    <path id="패스_6646" data-name="패스 6646" d="M52.524,17.766a1.25,1.25,0,0,1-1.25-1.25v-5.75a1.25,1.25,0,1,1,2.5,0v5.75a1.25,1.25,0,0,1-1.25,1.25" fill="#444"/>
    <line id="선_63" data-name="선 63" y1="5.75" transform="translate(44.514 10.766)" fill="#8cd8ee"/>
    <path id="패스_6647" data-name="패스 6647" d="M44.514,17.766a1.25,1.25,0,0,1-1.25-1.25v-5.75a1.25,1.25,0,1,1,2.5,0v5.75a1.25,1.25,0,0,1-1.25,1.25" fill="#444"/>
    <line id="선_64" data-name="선 64" y1="5.75" transform="translate(36.505 10.766)" fill="#8cd8ee"/>
    <path id="패스_6648" data-name="패스 6648" d="M36.505,17.766a1.25,1.25,0,0,1-1.25-1.25v-5.75a1.25,1.25,0,1,1,2.5,0v5.75a1.251,1.251,0,0,1-1.25,1.25" fill="#444"/>
    <line id="선_65" data-name="선 65" y1="5.75" transform="translate(28.495 10.766)" fill="#8cd8ee"/>
    <path id="패스_6649" data-name="패스 6649" d="M28.5,17.766a1.25,1.25,0,0,1-1.25-1.25v-5.75a1.25,1.25,0,1,1,2.5,0v5.75a1.25,1.25,0,0,1-1.25,1.25" fill="#444"/>
    <line id="선_66" data-name="선 66" y1="5.75" transform="translate(20.486 10.766)" fill="#8cd8ee"/>
    <path id="패스_6650" data-name="패스 6650" d="M20.486,17.766a1.25,1.25,0,0,1-1.25-1.25v-5.75a1.25,1.25,0,1,1,2.5,0v5.75a1.25,1.25,0,0,1-1.25,1.25" fill="#444"/>
    <line id="선_67" data-name="선 67" y1="5.75" transform="translate(12.476 10.766)" fill="#8cd8ee"/>
    <path id="패스_6651" data-name="패스 6651" d="M12.476,17.766a1.25,1.25,0,0,1-1.25-1.25v-5.75a1.25,1.25,0,1,1,2.5,0v5.75a1.25,1.25,0,0,1-1.25,1.25" fill="#444"/>
    <rect id="사각형_6367" data-name="사각형 6367" width="5.715" height="5.715" transform="translate(15.929 31.107)" fill="#8cd8ee"/>
    <path id="패스_6652" data-name="패스 6652" d="M21.644,38.072H15.929a1.25,1.25,0,0,1-1.25-1.25V31.107a1.25,1.25,0,0,1,1.25-1.25h5.715a1.249,1.249,0,0,1,1.25,1.25v5.715a1.25,1.25,0,0,1-1.25,1.25m-4.465-2.5h3.215V32.357H17.179Z" fill="#444"/>
    <rect id="사각형_6368" data-name="사각형 6368" width="5.715" height="5.715" transform="translate(29.624 31.107)" fill="#8cd8ee"/>
    <path id="패스_6653" data-name="패스 6653" d="M35.339,38.072H29.624a1.25,1.25,0,0,1-1.25-1.25V31.107a1.249,1.249,0,0,1,1.25-1.25h5.715a1.25,1.25,0,0,1,1.25,1.25v5.715a1.25,1.25,0,0,1-1.25,1.25m-4.465-2.5h3.215V32.357H30.874Z" fill="#444"/>
    <rect id="사각형_6369" data-name="사각형 6369" width="5.715" height="5.715" transform="translate(43.318 31.107)" fill="#8cd8ee"/>
    <path id="패스_6654" data-name="패스 6654" d="M49.033,38.072H43.318a1.25,1.25,0,0,1-1.25-1.25V31.107a1.25,1.25,0,0,1,1.25-1.25h5.715a1.25,1.25,0,0,1,1.25,1.25v5.715a1.25,1.25,0,0,1-1.25,1.25m-4.465-2.5h3.215V32.357H44.568Z" fill="#444"/>
    <rect id="사각형_6370" data-name="사각형 6370" width="5.715" height="5.715" transform="translate(15.929 42.07)" fill="#8cd8ee"/>
    <path id="패스_6655" data-name="패스 6655" d="M21.644,49.036H15.929a1.25,1.25,0,0,1-1.25-1.25V42.071a1.25,1.25,0,0,1,1.25-1.25h5.715a1.249,1.249,0,0,1,1.25,1.25v5.715a1.25,1.25,0,0,1-1.25,1.25m-4.465-2.5h3.215V43.321H17.179Z" fill="#444"/>
    <rect id="사각형_6371" data-name="사각형 6371" width="5.715" height="5.715" transform="translate(29.624 42.07)" fill="#8cd8ee"/>
    <path id="패스_6656" data-name="패스 6656" d="M35.339,49.036H29.624a1.25,1.25,0,0,1-1.25-1.25V42.071a1.249,1.249,0,0,1,1.25-1.25h5.715a1.25,1.25,0,0,1,1.25,1.25v5.715a1.25,1.25,0,0,1-1.25,1.25m-4.465-2.5h3.215V43.321H30.874Z" fill="#444"/>
    <rect id="사각형_6372" data-name="사각형 6372" width="5.715" height="5.715" transform="translate(43.318 42.07)" fill="#8cd8ee"/>
    <path id="패스_6657" data-name="패스 6657" d="M49.033,49.036H43.318a1.25,1.25,0,0,1-1.25-1.25V42.071a1.25,1.25,0,0,1,1.25-1.25h5.715a1.25,1.25,0,0,1,1.25,1.25v5.715a1.25,1.25,0,0,1-1.25,1.25m-4.465-2.5h3.215V43.321H44.568Z" fill="#444"/>
  </g>
</svg>
