<svg id="icon_신청서수정" xmlns="http://www.w3.org/2000/svg" xmlns:xlink="http://www.w3.org/1999/xlink" width="65" height="65" viewBox="0 0 65 65">
  <defs>
    <clipPath id="clip-path">
      <rect id="사각형_8291" data-name="사각형 8291" width="65" height="65" fill="none"/>
    </clipPath>
  </defs>
  <rect id="사각형_8290" data-name="사각형 8290" width="33.542" height="12.555" transform="translate(17.969 38.153) rotate(-45)" fill="#8cd8ee"/>
  <g id="그룹_16340" data-name="그룹 16340">
    <g id="그룹_16339" data-name="그룹 16339" clip-path="url(#clip-path)">
      <path id="패스_54626" data-name="패스 54626" d="M26.846,48.282a1.244,1.244,0,0,1-.883-.366l-8.878-8.878a1.249,1.249,0,0,1,0-1.768L40.8,13.552a1.251,1.251,0,0,1,1.768,0l8.878,8.878a1.251,1.251,0,0,1,0,1.768L27.73,47.916a1.245,1.245,0,0,1-.884.366m-7.11-10.128,7.11,7.11L48.8,23.314,41.686,16.2Z" fill="#444"/>
      <path id="패스_54627" data-name="패스 54627" d="M50.564,23.313l-8.878-8.877,3.069-3.069a2.715,2.715,0,0,1,3.841,0L53.633,16.4a2.718,2.718,0,0,1,0,3.842Z" fill="#fff"/>
      <path id="패스_54628" data-name="패스 54628" d="M50.564,24.564a1.244,1.244,0,0,1-.883-.366L40.8,15.32a1.249,1.249,0,0,1,0-1.768l3.069-3.069a3.968,3.968,0,0,1,5.608,0l5.037,5.037a3.968,3.968,0,0,1,0,5.608L51.448,24.2a1.245,1.245,0,0,1-.884.366m-7.11-10.128,7.11,7.11,2.186-2.185a1.468,1.468,0,0,0,0-2.073L47.713,12.25a1.468,1.468,0,0,0-2.073,0Z" fill="#444"/>
      <path id="패스_54629" data-name="패스 54629" d="M26.848,47.031,20.22,49.963l-9.312,4.128,4.128-9.312,2.932-6.628Z" fill="#fff"/>
      <path id="패스_54630" data-name="패스 54630" d="M10.909,55.342a1.25,1.25,0,0,1-1.142-1.757l7.058-15.939a1.252,1.252,0,0,1,2.028-.378l8.879,8.88a1.251,1.251,0,0,1-.378,2.028L11.416,55.234a1.256,1.256,0,0,1-.507.108m7.465-15.017L13.365,51.636l11.311-5.009Z" fill="#444"/>
      <path id="패스_54631" data-name="패스 54631" d="M20.221,49.964l-9.312,4.127,4.127-9.312Z" fill="#8cd8ee"/>
      <path id="패스_54632" data-name="패스 54632" d="M10.909,55.342a1.252,1.252,0,0,1-1.143-1.757l4.127-9.312a1.251,1.251,0,0,1,2.026-.377L21.1,49.081a1.25,1.25,0,0,1-.377,2.026l-9.311,4.126a1.241,1.241,0,0,1-.507.109m4.531-8.391-2.075,4.684,4.683-2.075Z" fill="#444"/>
    </g>
  </g>
</svg>
