<svg id="icon_접수중인" xmlns="http://www.w3.org/2000/svg" xmlns:xlink="http://www.w3.org/1999/xlink" width="65" height="65" viewBox="0 0 65 65">
  <defs>
    <clipPath id="clip-path">
      <rect id="사각형_6364" data-name="사각형 6364" width="65" height="65" fill="none"/>
    </clipPath>
  </defs>
  <path id="패스_6636" data-name="패스 6636" d="M16.593,58.738l9.634-2.2L32.5,40.951l-7.53-3.03Z" fill="#8cd8ee"/>
  <g id="그룹_13657" data-name="그룹 13657">
    <g id="그룹_13656" data-name="그룹 13656" clip-path="url(#clip-path)">
      <path id="패스_6637" data-name="패스 6637" d="M16.592,59.987a1.248,1.248,0,0,1-1.159-1.716L23.81,37.453a1.248,1.248,0,0,1,1.626-.692l7.53,3.03a1.249,1.249,0,0,1,.692,1.626L27.385,57.006a1.25,1.25,0,0,1-.881.752l-9.634,2.2a1.2,1.2,0,0,1-.278.031m9.071-20.441-7.02,17.441,6.667-1.521,5.563-13.822Z" fill="#444"/>
      <path id="패스_6638" data-name="패스 6638" d="M48.407,58.738l-9.634-2.2L32.5,40.951l7.53-3.03Z" fill="#8cd8ee"/>
      <path id="패스_6639" data-name="패스 6639" d="M48.407,59.987a1.205,1.205,0,0,1-.279-.031l-9.633-2.2a1.246,1.246,0,0,1-.881-.752L31.34,41.417a1.248,1.248,0,0,1,.693-1.626l7.53-3.03a1.248,1.248,0,0,1,1.626.692l8.377,20.818a1.248,1.248,0,0,1-1.159,1.716m-8.719-4.521,6.667,1.521L39.336,39.546l-5.21,2.1Z" fill="#444"/>
      <path id="패스_6640" data-name="패스 6640" d="M36,8.063h0a4.3,4.3,0,0,0,4.573,1.665,4.3,4.3,0,0,1,5.362,4.5,4.3,4.3,0,0,0,2.434,4.215,4.3,4.3,0,0,1,1.215,6.893,4.3,4.3,0,0,0-.845,4.794,4.3,4.3,0,0,1-3.5,6.061,4.3,4.3,0,0,0-3.729,3.129,4.3,4.3,0,0,1-6.577,2.394,4.3,4.3,0,0,0-4.867,0,4.3,4.3,0,0,1-6.576-2.394,4.3,4.3,0,0,0-3.73-3.129,4.3,4.3,0,0,1-3.5-6.061,4.3,4.3,0,0,0-.844-4.794,4.3,4.3,0,0,1,1.215-6.893,4.3,4.3,0,0,0,2.434-4.215,4.3,4.3,0,0,1,5.362-4.5A4.3,4.3,0,0,0,29,8.063a4.3,4.3,0,0,1,7,0" fill="#fff"/>
      <path id="패스_6641" data-name="패스 6641" d="M37.351,43.725a5.492,5.492,0,0,1-3.124-.982,3.074,3.074,0,0,0-3.455,0,5.548,5.548,0,0,1-8.487-3.09,3.07,3.07,0,0,0-2.646-2.219,5.549,5.549,0,0,1-4.516-7.823,3.069,3.069,0,0,0-.6-3.4,5.551,5.551,0,0,1,1.569-8.9,3.07,3.07,0,0,0,1.726-2.991,5.549,5.549,0,0,1,6.92-5.806,3.075,3.075,0,0,0,3.244-1.181,5.552,5.552,0,0,1,9.035,0,3.076,3.076,0,0,0,3.244,1.182,5.549,5.549,0,0,1,6.92,5.806,3.068,3.068,0,0,0,1.727,2.991,5.551,5.551,0,0,1,1.569,8.9,3.065,3.065,0,0,0-.6,3.4,5.551,5.551,0,0,1-4.518,7.823,3.068,3.068,0,0,0-2.644,2.219,5.489,5.489,0,0,1-3.449,3.73,5.609,5.609,0,0,1-1.915.342M32.5,39.715a5.541,5.541,0,0,1,3.141.968,3.053,3.053,0,0,0,4.666-1.7,5.583,5.583,0,0,1,4.811-4.039,3.049,3.049,0,0,0,2.484-4.3,5.584,5.584,0,0,1,1.09-6.188,3.049,3.049,0,0,0-.862-4.889,5.584,5.584,0,0,1-3.142-5.441,3.05,3.05,0,0,0-3.8-3.191,5.583,5.583,0,0,1-5.905-2.149,3.05,3.05,0,0,0-4.963,0,5.58,5.58,0,0,1-5.9,2.149,3.05,3.05,0,0,0-3.8,3.191A5.584,5.584,0,0,1,17.17,19.57a3.049,3.049,0,0,0-.862,4.889,5.588,5.588,0,0,1,1.09,6.188,3.049,3.049,0,0,0,2.482,4.3,5.584,5.584,0,0,1,4.813,4.039,3.051,3.051,0,0,0,4.665,1.7,5.542,5.542,0,0,1,3.142-.968" fill="#444"/>
      <path id="패스_6642" data-name="패스 6642" d="M32.5,16.677l2.246,4.551,5.022.73L36.134,25.5l.858,5L32.5,28.14,28.008,30.5l.858-5-3.634-3.542,5.022-.73Z" fill="#8cd8ee"/>
      <path id="패스_6643" data-name="패스 6643" d="M28.008,31.752a1.25,1.25,0,0,1-1.233-1.461l.747-4.355-3.163-3.083a1.25,1.25,0,0,1,.693-2.132l4.372-.635,1.955-3.962a1.251,1.251,0,0,1,2.242,0l1.955,3.962,4.371.635a1.25,1.25,0,0,1,.693,2.132l-3.163,3.083.747,4.355a1.25,1.25,0,0,1-1.815,1.317L32.5,29.553l-3.91,2.055a1.256,1.256,0,0,1-.582.144m-.09-8.921L29.737,24.6a1.254,1.254,0,0,1,.361,1.107l-.43,2.506,2.25-1.183a1.254,1.254,0,0,1,1.164,0l2.249,1.183-.43-2.506a1.254,1.254,0,0,1,.361-1.107l1.819-1.773-2.515-.365a1.256,1.256,0,0,1-.941-.684L32.5,19.5l-1.125,2.28a1.256,1.256,0,0,1-.941.684Z" fill="#444"/>
    </g>
  </g>
</svg>
