<svg id="icon_신청서조회" xmlns="http://www.w3.org/2000/svg" xmlns:xlink="http://www.w3.org/1999/xlink" width="65" height="65" viewBox="0 0 65 65">
  <defs>
    <clipPath id="clip-path">
      <rect id="사각형_8289" data-name="사각형 8289" width="65" height="65" fill="none"/>
    </clipPath>
  </defs>
  <g id="그룹_16338" data-name="그룹 16338" clip-path="url(#clip-path)">
    <path id="패스_54620" data-name="패스 54620" d="M48.9,21.876a16.4,16.4,0,1,1-16.4-16.4,16.4,16.4,0,0,1,16.4,16.4" fill="#fff"/>
    <path id="패스_54621" data-name="패스 54621" d="M32.5,39.524A17.648,17.648,0,1,1,50.147,21.875,17.668,17.668,0,0,1,32.5,39.524m0-32.8A15.148,15.148,0,1,0,47.647,21.875,15.165,15.165,0,0,0,32.5,6.727" fill="#444"/>
    <path id="패스_54622" data-name="패스 54622" d="M42.335,21.876A9.835,9.835,0,1,1,32.5,12.041a9.835,9.835,0,0,1,9.835,9.835" fill="#8cd8ee"/>
    <path id="패스_54623" data-name="패스 54623" d="M32.5,32.961A11.085,11.085,0,1,1,43.584,21.876,11.1,11.1,0,0,1,32.5,32.961m0-19.67a8.585,8.585,0,1,0,8.584,8.585A8.6,8.6,0,0,0,32.5,13.291" fill="#444"/>
    <line id="선_622" data-name="선 622" y2="21.25" transform="translate(32.5 38.274)" fill="#fff"/>
    <path id="패스_54624" data-name="패스 54624" d="M32.5,60.773a1.25,1.25,0,0,1-1.25-1.25V38.274a1.25,1.25,0,0,1,2.5,0V59.523a1.251,1.251,0,0,1-1.25,1.25" fill="#444"/>
    <rect id="사각형_8288" data-name="사각형 8288" width="6.049" height="14.34" transform="translate(29.475 45.183)" fill="#fff"/>
    <path id="패스_54625" data-name="패스 54625" d="M35.524,60.773H29.475a1.25,1.25,0,0,1-1.25-1.25V45.183a1.25,1.25,0,0,1,1.25-1.25h6.049a1.25,1.25,0,0,1,1.25,1.25v14.34a1.25,1.25,0,0,1-1.25,1.25m-4.8-2.5h3.549V46.433H30.725Z" fill="#444"/>
  </g>
</svg>
