<svg id="icon_기본정보입력" xmlns="http://www.w3.org/2000/svg" xmlns:xlink="http://www.w3.org/1999/xlink" width="50" height="50" viewBox="0 0 50 50">
  <defs>
    <clipPath id="clip-path">
      <rect id="사각형_6672" data-name="사각형 6672" width="50" height="50" fill="none"/>
    </clipPath>
  </defs>
  <g id="그룹_14259" data-name="그룹 14259" clip-path="url(#clip-path)">
    <path id="패스_8018" data-name="패스 8018" d="M29.54,15.935H20.459a3.879,3.879,0,0,1,0-7.757h.772V8.057a3.769,3.769,0,0,1,7.539,0v.121h.77a3.879,3.879,0,0,1,0,7.757m-9.081-4.757a.882.882,0,0,0-.854.689.964.964,0,0,0-.022.189.879.879,0,0,0,.876.879H29.54a.88.88,0,0,0,.877-.879.982.982,0,0,0-.022-.19h0a.882.882,0,0,0-.855-.687H27.27a1.5,1.5,0,0,1-1.5-1.5V8.057a.769.769,0,0,0-1.539,0V9.678a1.5,1.5,0,0,1-1.5,1.5Z" fill="#444"/>
    <path id="패스_8019" data-name="패스 8019" d="M36,45.711H14a6.508,6.508,0,0,1-6.5-6.5V16.545a6.508,6.508,0,0,1,6.5-6.5h4.141A1.5,1.5,0,0,1,19.6,11.866a.982.982,0,0,0-.022.19,1.5,1.5,0,0,1-2.628.989H14a3.5,3.5,0,0,0-3.5,3.5V39.211a3.5,3.5,0,0,0,3.5,3.5H36a3.5,3.5,0,0,0,3.5-3.5V16.545a3.5,3.5,0,0,0-3.5-3.5H33.045a1.5,1.5,0,0,1-2.628-.989.982.982,0,0,0-.022-.19,1.5,1.5,0,0,1,1.464-1.821H36a6.508,6.508,0,0,1,6.5,6.5V39.211a6.508,6.508,0,0,1-6.5,6.5" fill="#444"/>
    <path id="패스_8020" data-name="패스 8020" d="M29.333,32.9H20.667a1.5,1.5,0,0,1,0-3h8.666a1.5,1.5,0,0,1,0,3" fill="#1a72c9"/>
  </g>
</svg>
