<svg xmlns="http://www.w3.org/2000/svg" xmlns:xlink="http://www.w3.org/1999/xlink" width="904" height="11.314" viewBox="0 0 904 11.314">
  <defs>
    <clipPath id="clip-path">
      <rect width="904" height="11.314" fill="none"/>
    </clipPath>
  </defs>
  <g id="반복_그리드_19" data-name="반복 그리드 19" clip-path="url(#clip-path)">
    <g transform="translate(-250.844 -782.04)">
      <line id="선_82" data-name="선 82" y2="15" transform="translate(261.804 782.393) rotate(45)" fill="none" stroke="#d8d8d8" stroke-width="1"/>
    </g>
    <g transform="translate(-242.844 -782.04)">
      <line id="선_82-2" data-name="선 82" y2="15" transform="translate(261.804 782.393) rotate(45)" fill="none" stroke="#d8d8d8" stroke-width="1"/>
    </g>
    <g transform="translate(-234.844 -782.04)">
      <line id="선_82-3" data-name="선 82" y2="15" transform="translate(261.804 782.393) rotate(45)" fill="none" stroke="#d8d8d8" stroke-width="1"/>
    </g>
    <g transform="translate(-226.844 -782.04)">
      <line id="선_82-4" data-name="선 82" y2="15" transform="translate(261.804 782.393) rotate(45)" fill="none" stroke="#d8d8d8" stroke-width="1"/>
    </g>
    <g transform="translate(-218.844 -782.04)">
      <line id="선_82-5" data-name="선 82" y2="15" transform="translate(261.804 782.393) rotate(45)" fill="none" stroke="#d8d8d8" stroke-width="1"/>
    </g>
    <g transform="translate(-210.844 -782.04)">
      <line id="선_82-6" data-name="선 82" y2="15" transform="translate(261.804 782.393) rotate(45)" fill="none" stroke="#d8d8d8" stroke-width="1"/>
    </g>
    <g transform="translate(-202.844 -782.04)">
      <line id="선_82-7" data-name="선 82" y2="15" transform="translate(261.804 782.393) rotate(45)" fill="none" stroke="#d8d8d8" stroke-width="1"/>
    </g>
    <g transform="translate(-194.844 -782.04)">
      <line id="선_82-8" data-name="선 82" y2="15" transform="translate(261.804 782.393) rotate(45)" fill="none" stroke="#d8d8d8" stroke-width="1"/>
    </g>
    <g transform="translate(-186.844 -782.04)">
      <line id="선_82-9" data-name="선 82" y2="15" transform="translate(261.804 782.393) rotate(45)" fill="none" stroke="#d8d8d8" stroke-width="1"/>
    </g>
    <g transform="translate(-178.844 -782.04)">
      <line id="선_82-10" data-name="선 82" y2="15" transform="translate(261.804 782.393) rotate(45)" fill="none" stroke="#d8d8d8" stroke-width="1"/>
    </g>
    <g transform="translate(-170.844 -782.04)">
      <line id="선_82-11" data-name="선 82" y2="15" transform="translate(261.804 782.393) rotate(45)" fill="none" stroke="#d8d8d8" stroke-width="1"/>
    </g>
    <g transform="translate(-162.844 -782.04)">
      <line id="선_82-12" data-name="선 82" y2="15" transform="translate(261.804 782.393) rotate(45)" fill="none" stroke="#d8d8d8" stroke-width="1"/>
    </g>
    <g transform="translate(-154.844 -782.04)">
      <line id="선_82-13" data-name="선 82" y2="15" transform="translate(261.804 782.393) rotate(45)" fill="none" stroke="#d8d8d8" stroke-width="1"/>
    </g>
    <g transform="translate(-146.844 -782.04)">
      <line id="선_82-14" data-name="선 82" y2="15" transform="translate(261.804 782.393) rotate(45)" fill="none" stroke="#d8d8d8" stroke-width="1"/>
    </g>
    <g transform="translate(-138.844 -782.04)">
      <line id="선_82-15" data-name="선 82" y2="15" transform="translate(261.804 782.393) rotate(45)" fill="none" stroke="#d8d8d8" stroke-width="1"/>
    </g>
    <g transform="translate(-130.844 -782.04)">
      <line id="선_82-16" data-name="선 82" y2="15" transform="translate(261.804 782.393) rotate(45)" fill="none" stroke="#d8d8d8" stroke-width="1"/>
    </g>
    <g transform="translate(-122.844 -782.04)">
      <line id="선_82-17" data-name="선 82" y2="15" transform="translate(261.804 782.393) rotate(45)" fill="none" stroke="#d8d8d8" stroke-width="1"/>
    </g>
    <g transform="translate(-114.844 -782.04)">
      <line id="선_82-18" data-name="선 82" y2="15" transform="translate(261.804 782.393) rotate(45)" fill="none" stroke="#d8d8d8" stroke-width="1"/>
    </g>
    <g transform="translate(-106.844 -782.04)">
      <line id="선_82-19" data-name="선 82" y2="15" transform="translate(261.804 782.393) rotate(45)" fill="none" stroke="#d8d8d8" stroke-width="1"/>
    </g>
    <g transform="translate(-98.844 -782.04)">
      <line id="선_82-20" data-name="선 82" y2="15" transform="translate(261.804 782.393) rotate(45)" fill="none" stroke="#d8d8d8" stroke-width="1"/>
    </g>
    <g transform="translate(-90.844 -782.04)">
      <line id="선_82-21" data-name="선 82" y2="15" transform="translate(261.804 782.393) rotate(45)" fill="none" stroke="#d8d8d8" stroke-width="1"/>
    </g>
    <g transform="translate(-82.844 -782.04)">
      <line id="선_82-22" data-name="선 82" y2="15" transform="translate(261.804 782.393) rotate(45)" fill="none" stroke="#d8d8d8" stroke-width="1"/>
    </g>
    <g transform="translate(-74.844 -782.04)">
      <line id="선_82-23" data-name="선 82" y2="15" transform="translate(261.804 782.393) rotate(45)" fill="none" stroke="#d8d8d8" stroke-width="1"/>
    </g>
    <g transform="translate(-66.844 -782.04)">
      <line id="선_82-24" data-name="선 82" y2="15" transform="translate(261.804 782.393) rotate(45)" fill="none" stroke="#d8d8d8" stroke-width="1"/>
    </g>
    <g transform="translate(-58.844 -782.04)">
      <line id="선_82-25" data-name="선 82" y2="15" transform="translate(261.804 782.393) rotate(45)" fill="none" stroke="#d8d8d8" stroke-width="1"/>
    </g>
    <g transform="translate(-50.844 -782.04)">
      <line id="선_82-26" data-name="선 82" y2="15" transform="translate(261.804 782.393) rotate(45)" fill="none" stroke="#d8d8d8" stroke-width="1"/>
    </g>
    <g transform="translate(-42.844 -782.04)">
      <line id="선_82-27" data-name="선 82" y2="15" transform="translate(261.804 782.393) rotate(45)" fill="none" stroke="#d8d8d8" stroke-width="1"/>
    </g>
    <g transform="translate(-34.844 -782.04)">
      <line id="선_82-28" data-name="선 82" y2="15" transform="translate(261.804 782.393) rotate(45)" fill="none" stroke="#d8d8d8" stroke-width="1"/>
    </g>
    <g transform="translate(-26.844 -782.04)">
      <line id="선_82-29" data-name="선 82" y2="15" transform="translate(261.804 782.393) rotate(45)" fill="none" stroke="#d8d8d8" stroke-width="1"/>
    </g>
    <g transform="translate(-18.844 -782.04)">
      <line id="선_82-30" data-name="선 82" y2="15" transform="translate(261.804 782.393) rotate(45)" fill="none" stroke="#d8d8d8" stroke-width="1"/>
    </g>
    <g transform="translate(-10.844 -782.04)">
      <line id="선_82-31" data-name="선 82" y2="15" transform="translate(261.804 782.393) rotate(45)" fill="none" stroke="#d8d8d8" stroke-width="1"/>
    </g>
    <g transform="translate(-2.844 -782.04)">
      <line id="선_82-32" data-name="선 82" y2="15" transform="translate(261.804 782.393) rotate(45)" fill="none" stroke="#d8d8d8" stroke-width="1"/>
    </g>
    <g transform="translate(5.156 -782.04)">
      <line id="선_82-33" data-name="선 82" y2="15" transform="translate(261.804 782.393) rotate(45)" fill="none" stroke="#d8d8d8" stroke-width="1"/>
    </g>
    <g transform="translate(13.156 -782.04)">
      <line id="선_82-34" data-name="선 82" y2="15" transform="translate(261.804 782.393) rotate(45)" fill="none" stroke="#d8d8d8" stroke-width="1"/>
    </g>
    <g transform="translate(21.156 -782.04)">
      <line id="선_82-35" data-name="선 82" y2="15" transform="translate(261.804 782.393) rotate(45)" fill="none" stroke="#d8d8d8" stroke-width="1"/>
    </g>
    <g transform="translate(29.156 -782.04)">
      <line id="선_82-36" data-name="선 82" y2="15" transform="translate(261.804 782.393) rotate(45)" fill="none" stroke="#d8d8d8" stroke-width="1"/>
    </g>
    <g transform="translate(37.156 -782.04)">
      <line id="선_82-37" data-name="선 82" y2="15" transform="translate(261.804 782.393) rotate(45)" fill="none" stroke="#d8d8d8" stroke-width="1"/>
    </g>
    <g transform="translate(45.156 -782.04)">
      <line id="선_82-38" data-name="선 82" y2="15" transform="translate(261.804 782.393) rotate(45)" fill="none" stroke="#d8d8d8" stroke-width="1"/>
    </g>
    <g transform="translate(53.156 -782.04)">
      <line id="선_82-39" data-name="선 82" y2="15" transform="translate(261.804 782.393) rotate(45)" fill="none" stroke="#d8d8d8" stroke-width="1"/>
    </g>
    <g transform="translate(61.156 -782.04)">
      <line id="선_82-40" data-name="선 82" y2="15" transform="translate(261.804 782.393) rotate(45)" fill="none" stroke="#d8d8d8" stroke-width="1"/>
    </g>
    <g transform="translate(69.156 -782.04)">
      <line id="선_82-41" data-name="선 82" y2="15" transform="translate(261.804 782.393) rotate(45)" fill="none" stroke="#d8d8d8" stroke-width="1"/>
    </g>
    <g transform="translate(77.156 -782.04)">
      <line id="선_82-42" data-name="선 82" y2="15" transform="translate(261.804 782.393) rotate(45)" fill="none" stroke="#d8d8d8" stroke-width="1"/>
    </g>
    <g transform="translate(85.156 -782.04)">
      <line id="선_82-43" data-name="선 82" y2="15" transform="translate(261.804 782.393) rotate(45)" fill="none" stroke="#d8d8d8" stroke-width="1"/>
    </g>
    <g transform="translate(93.156 -782.04)">
      <line id="선_82-44" data-name="선 82" y2="15" transform="translate(261.804 782.393) rotate(45)" fill="none" stroke="#d8d8d8" stroke-width="1"/>
    </g>
    <g transform="translate(101.156 -782.04)">
      <line id="선_82-45" data-name="선 82" y2="15" transform="translate(261.804 782.393) rotate(45)" fill="none" stroke="#d8d8d8" stroke-width="1"/>
    </g>
    <g transform="translate(109.156 -782.04)">
      <line id="선_82-46" data-name="선 82" y2="15" transform="translate(261.804 782.393) rotate(45)" fill="none" stroke="#d8d8d8" stroke-width="1"/>
    </g>
    <g transform="translate(117.156 -782.04)">
      <line id="선_82-47" data-name="선 82" y2="15" transform="translate(261.804 782.393) rotate(45)" fill="none" stroke="#d8d8d8" stroke-width="1"/>
    </g>
    <g transform="translate(125.156 -782.04)">
      <line id="선_82-48" data-name="선 82" y2="15" transform="translate(261.804 782.393) rotate(45)" fill="none" stroke="#d8d8d8" stroke-width="1"/>
    </g>
    <g transform="translate(133.156 -782.04)">
      <line id="선_82-49" data-name="선 82" y2="15" transform="translate(261.804 782.393) rotate(45)" fill="none" stroke="#d8d8d8" stroke-width="1"/>
    </g>
    <g transform="translate(141.156 -782.04)">
      <line id="선_82-50" data-name="선 82" y2="15" transform="translate(261.804 782.393) rotate(45)" fill="none" stroke="#d8d8d8" stroke-width="1"/>
    </g>
    <g transform="translate(149.156 -782.04)">
      <line id="선_82-51" data-name="선 82" y2="15" transform="translate(261.804 782.393) rotate(45)" fill="none" stroke="#d8d8d8" stroke-width="1"/>
    </g>
    <g transform="translate(157.156 -782.04)">
      <line id="선_82-52" data-name="선 82" y2="15" transform="translate(261.804 782.393) rotate(45)" fill="none" stroke="#d8d8d8" stroke-width="1"/>
    </g>
    <g transform="translate(165.156 -782.04)">
      <line id="선_82-53" data-name="선 82" y2="15" transform="translate(261.804 782.393) rotate(45)" fill="none" stroke="#d8d8d8" stroke-width="1"/>
    </g>
    <g transform="translate(173.156 -782.04)">
      <line id="선_82-54" data-name="선 82" y2="15" transform="translate(261.804 782.393) rotate(45)" fill="none" stroke="#d8d8d8" stroke-width="1"/>
    </g>
    <g transform="translate(181.156 -782.04)">
      <line id="선_82-55" data-name="선 82" y2="15" transform="translate(261.804 782.393) rotate(45)" fill="none" stroke="#d8d8d8" stroke-width="1"/>
    </g>
    <g transform="translate(189.156 -782.04)">
      <line id="선_82-56" data-name="선 82" y2="15" transform="translate(261.804 782.393) rotate(45)" fill="none" stroke="#d8d8d8" stroke-width="1"/>
    </g>
    <g transform="translate(197.156 -782.04)">
      <line id="선_82-57" data-name="선 82" y2="15" transform="translate(261.804 782.393) rotate(45)" fill="none" stroke="#d8d8d8" stroke-width="1"/>
    </g>
    <g transform="translate(205.156 -782.04)">
      <line id="선_82-58" data-name="선 82" y2="15" transform="translate(261.804 782.393) rotate(45)" fill="none" stroke="#d8d8d8" stroke-width="1"/>
    </g>
    <g transform="translate(213.156 -782.04)">
      <line id="선_82-59" data-name="선 82" y2="15" transform="translate(261.804 782.393) rotate(45)" fill="none" stroke="#d8d8d8" stroke-width="1"/>
    </g>
    <g transform="translate(221.156 -782.04)">
      <line id="선_82-60" data-name="선 82" y2="15" transform="translate(261.804 782.393) rotate(45)" fill="none" stroke="#d8d8d8" stroke-width="1"/>
    </g>
    <g transform="translate(229.156 -782.04)">
      <line id="선_82-61" data-name="선 82" y2="15" transform="translate(261.804 782.393) rotate(45)" fill="none" stroke="#d8d8d8" stroke-width="1"/>
    </g>
    <g transform="translate(237.156 -782.04)">
      <line id="선_82-62" data-name="선 82" y2="15" transform="translate(261.804 782.393) rotate(45)" fill="none" stroke="#d8d8d8" stroke-width="1"/>
    </g>
    <g transform="translate(245.156 -782.04)">
      <line id="선_82-63" data-name="선 82" y2="15" transform="translate(261.804 782.393) rotate(45)" fill="none" stroke="#d8d8d8" stroke-width="1"/>
    </g>
    <g transform="translate(253.156 -782.04)">
      <line id="선_82-64" data-name="선 82" y2="15" transform="translate(261.804 782.393) rotate(45)" fill="none" stroke="#d8d8d8" stroke-width="1"/>
    </g>
    <g transform="translate(261.156 -782.04)">
      <line id="선_82-65" data-name="선 82" y2="15" transform="translate(261.804 782.393) rotate(45)" fill="none" stroke="#d8d8d8" stroke-width="1"/>
    </g>
    <g transform="translate(269.156 -782.04)">
      <line id="선_82-66" data-name="선 82" y2="15" transform="translate(261.804 782.393) rotate(45)" fill="none" stroke="#d8d8d8" stroke-width="1"/>
    </g>
    <g transform="translate(277.156 -782.04)">
      <line id="선_82-67" data-name="선 82" y2="15" transform="translate(261.804 782.393) rotate(45)" fill="none" stroke="#d8d8d8" stroke-width="1"/>
    </g>
    <g transform="translate(285.156 -782.04)">
      <line id="선_82-68" data-name="선 82" y2="15" transform="translate(261.804 782.393) rotate(45)" fill="none" stroke="#d8d8d8" stroke-width="1"/>
    </g>
    <g transform="translate(293.156 -782.04)">
      <line id="선_82-69" data-name="선 82" y2="15" transform="translate(261.804 782.393) rotate(45)" fill="none" stroke="#d8d8d8" stroke-width="1"/>
    </g>
    <g transform="translate(301.156 -782.04)">
      <line id="선_82-70" data-name="선 82" y2="15" transform="translate(261.804 782.393) rotate(45)" fill="none" stroke="#d8d8d8" stroke-width="1"/>
    </g>
    <g transform="translate(309.156 -782.04)">
      <line id="선_82-71" data-name="선 82" y2="15" transform="translate(261.804 782.393) rotate(45)" fill="none" stroke="#d8d8d8" stroke-width="1"/>
    </g>
    <g transform="translate(317.156 -782.04)">
      <line id="선_82-72" data-name="선 82" y2="15" transform="translate(261.804 782.393) rotate(45)" fill="none" stroke="#d8d8d8" stroke-width="1"/>
    </g>
    <g transform="translate(325.156 -782.04)">
      <line id="선_82-73" data-name="선 82" y2="15" transform="translate(261.804 782.393) rotate(45)" fill="none" stroke="#d8d8d8" stroke-width="1"/>
    </g>
    <g transform="translate(333.156 -782.04)">
      <line id="선_82-74" data-name="선 82" y2="15" transform="translate(261.804 782.393) rotate(45)" fill="none" stroke="#d8d8d8" stroke-width="1"/>
    </g>
    <g transform="translate(341.156 -782.04)">
      <line id="선_82-75" data-name="선 82" y2="15" transform="translate(261.804 782.393) rotate(45)" fill="none" stroke="#d8d8d8" stroke-width="1"/>
    </g>
    <g transform="translate(349.156 -782.04)">
      <line id="선_82-76" data-name="선 82" y2="15" transform="translate(261.804 782.393) rotate(45)" fill="none" stroke="#d8d8d8" stroke-width="1"/>
    </g>
    <g transform="translate(357.156 -782.04)">
      <line id="선_82-77" data-name="선 82" y2="15" transform="translate(261.804 782.393) rotate(45)" fill="none" stroke="#d8d8d8" stroke-width="1"/>
    </g>
    <g transform="translate(365.156 -782.04)">
      <line id="선_82-78" data-name="선 82" y2="15" transform="translate(261.804 782.393) rotate(45)" fill="none" stroke="#d8d8d8" stroke-width="1"/>
    </g>
    <g transform="translate(373.156 -782.04)">
      <line id="선_82-79" data-name="선 82" y2="15" transform="translate(261.804 782.393) rotate(45)" fill="none" stroke="#d8d8d8" stroke-width="1"/>
    </g>
    <g transform="translate(381.156 -782.04)">
      <line id="선_82-80" data-name="선 82" y2="15" transform="translate(261.804 782.393) rotate(45)" fill="none" stroke="#d8d8d8" stroke-width="1"/>
    </g>
    <g transform="translate(389.156 -782.04)">
      <line id="선_82-81" data-name="선 82" y2="15" transform="translate(261.804 782.393) rotate(45)" fill="none" stroke="#d8d8d8" stroke-width="1"/>
    </g>
    <g transform="translate(397.156 -782.04)">
      <line id="선_82-82" data-name="선 82" y2="15" transform="translate(261.804 782.393) rotate(45)" fill="none" stroke="#d8d8d8" stroke-width="1"/>
    </g>
    <g transform="translate(405.156 -782.04)">
      <line id="선_82-83" data-name="선 82" y2="15" transform="translate(261.804 782.393) rotate(45)" fill="none" stroke="#d8d8d8" stroke-width="1"/>
    </g>
    <g transform="translate(413.156 -782.04)">
      <line id="선_82-84" data-name="선 82" y2="15" transform="translate(261.804 782.393) rotate(45)" fill="none" stroke="#d8d8d8" stroke-width="1"/>
    </g>
    <g transform="translate(421.156 -782.04)">
      <line id="선_82-85" data-name="선 82" y2="15" transform="translate(261.804 782.393) rotate(45)" fill="none" stroke="#d8d8d8" stroke-width="1"/>
    </g>
    <g transform="translate(429.156 -782.04)">
      <line id="선_82-86" data-name="선 82" y2="15" transform="translate(261.804 782.393) rotate(45)" fill="none" stroke="#d8d8d8" stroke-width="1"/>
    </g>
    <g transform="translate(437.156 -782.04)">
      <line id="선_82-87" data-name="선 82" y2="15" transform="translate(261.804 782.393) rotate(45)" fill="none" stroke="#d8d8d8" stroke-width="1"/>
    </g>
    <g transform="translate(445.156 -782.04)">
      <line id="선_82-88" data-name="선 82" y2="15" transform="translate(261.804 782.393) rotate(45)" fill="none" stroke="#d8d8d8" stroke-width="1"/>
    </g>
    <g transform="translate(453.156 -782.04)">
      <line id="선_82-89" data-name="선 82" y2="15" transform="translate(261.804 782.393) rotate(45)" fill="none" stroke="#d8d8d8" stroke-width="1"/>
    </g>
    <g transform="translate(461.156 -782.04)">
      <line id="선_82-90" data-name="선 82" y2="15" transform="translate(261.804 782.393) rotate(45)" fill="none" stroke="#d8d8d8" stroke-width="1"/>
    </g>
    <g transform="translate(469.156 -782.04)">
      <line id="선_82-91" data-name="선 82" y2="15" transform="translate(261.804 782.393) rotate(45)" fill="none" stroke="#d8d8d8" stroke-width="1"/>
    </g>
    <g transform="translate(477.156 -782.04)">
      <line id="선_82-92" data-name="선 82" y2="15" transform="translate(261.804 782.393) rotate(45)" fill="none" stroke="#d8d8d8" stroke-width="1"/>
    </g>
    <g transform="translate(485.156 -782.04)">
      <line id="선_82-93" data-name="선 82" y2="15" transform="translate(261.804 782.393) rotate(45)" fill="none" stroke="#d8d8d8" stroke-width="1"/>
    </g>
    <g transform="translate(493.156 -782.04)">
      <line id="선_82-94" data-name="선 82" y2="15" transform="translate(261.804 782.393) rotate(45)" fill="none" stroke="#d8d8d8" stroke-width="1"/>
    </g>
    <g transform="translate(501.156 -782.04)">
      <line id="선_82-95" data-name="선 82" y2="15" transform="translate(261.804 782.393) rotate(45)" fill="none" stroke="#d8d8d8" stroke-width="1"/>
    </g>
    <g transform="translate(509.156 -782.04)">
      <line id="선_82-96" data-name="선 82" y2="15" transform="translate(261.804 782.393) rotate(45)" fill="none" stroke="#d8d8d8" stroke-width="1"/>
    </g>
    <g transform="translate(517.156 -782.04)">
      <line id="선_82-97" data-name="선 82" y2="15" transform="translate(261.804 782.393) rotate(45)" fill="none" stroke="#d8d8d8" stroke-width="1"/>
    </g>
    <g transform="translate(525.156 -782.04)">
      <line id="선_82-98" data-name="선 82" y2="15" transform="translate(261.804 782.393) rotate(45)" fill="none" stroke="#d8d8d8" stroke-width="1"/>
    </g>
    <g transform="translate(533.156 -782.04)">
      <line id="선_82-99" data-name="선 82" y2="15" transform="translate(261.804 782.393) rotate(45)" fill="none" stroke="#d8d8d8" stroke-width="1"/>
    </g>
    <g transform="translate(541.156 -782.04)">
      <line id="선_82-100" data-name="선 82" y2="15" transform="translate(261.804 782.393) rotate(45)" fill="none" stroke="#d8d8d8" stroke-width="1"/>
    </g>
    <g transform="translate(549.156 -782.04)">
      <line id="선_82-101" data-name="선 82" y2="15" transform="translate(261.804 782.393) rotate(45)" fill="none" stroke="#d8d8d8" stroke-width="1"/>
    </g>
    <g transform="translate(557.156 -782.04)">
      <line id="선_82-102" data-name="선 82" y2="15" transform="translate(261.804 782.393) rotate(45)" fill="none" stroke="#d8d8d8" stroke-width="1"/>
    </g>
    <g transform="translate(565.156 -782.04)">
      <line id="선_82-103" data-name="선 82" y2="15" transform="translate(261.804 782.393) rotate(45)" fill="none" stroke="#d8d8d8" stroke-width="1"/>
    </g>
    <g transform="translate(573.156 -782.04)">
      <line id="선_82-104" data-name="선 82" y2="15" transform="translate(261.804 782.393) rotate(45)" fill="none" stroke="#d8d8d8" stroke-width="1"/>
    </g>
    <g transform="translate(581.156 -782.04)">
      <line id="선_82-105" data-name="선 82" y2="15" transform="translate(261.804 782.393) rotate(45)" fill="none" stroke="#d8d8d8" stroke-width="1"/>
    </g>
    <g transform="translate(589.156 -782.04)">
      <line id="선_82-106" data-name="선 82" y2="15" transform="translate(261.804 782.393) rotate(45)" fill="none" stroke="#d8d8d8" stroke-width="1"/>
    </g>
    <g transform="translate(597.156 -782.04)">
      <line id="선_82-107" data-name="선 82" y2="15" transform="translate(261.804 782.393) rotate(45)" fill="none" stroke="#d8d8d8" stroke-width="1"/>
    </g>
    <g transform="translate(605.156 -782.04)">
      <line id="선_82-108" data-name="선 82" y2="15" transform="translate(261.804 782.393) rotate(45)" fill="none" stroke="#d8d8d8" stroke-width="1"/>
    </g>
    <g transform="translate(613.156 -782.04)">
      <line id="선_82-109" data-name="선 82" y2="15" transform="translate(261.804 782.393) rotate(45)" fill="none" stroke="#d8d8d8" stroke-width="1"/>
    </g>
    <g transform="translate(621.156 -782.04)">
      <line id="선_82-110" data-name="선 82" y2="15" transform="translate(261.804 782.393) rotate(45)" fill="none" stroke="#d8d8d8" stroke-width="1"/>
    </g>
    <g transform="translate(629.156 -782.04)">
      <line id="선_82-111" data-name="선 82" y2="15" transform="translate(261.804 782.393) rotate(45)" fill="none" stroke="#d8d8d8" stroke-width="1"/>
    </g>
    <g transform="translate(637.156 -782.04)">
      <line id="선_82-112" data-name="선 82" y2="15" transform="translate(261.804 782.393) rotate(45)" fill="none" stroke="#d8d8d8" stroke-width="1"/>
    </g>
    <g transform="translate(645.156 -782.04)">
      <line id="선_82-113" data-name="선 82" y2="15" transform="translate(261.804 782.393) rotate(45)" fill="none" stroke="#d8d8d8" stroke-width="1"/>
    </g>
  </g>
</svg>
