<svg id="구성_요소_873_3" data-name="구성 요소 873 – 3" xmlns="http://www.w3.org/2000/svg" width="28" height="28" viewBox="0 0 28 28">
  <rect id="home_Background_" data-name="home (Background)" width="28" height="28" fill="none"/>
  <path id="home" d="M18.995,22.75h-14A1.753,1.753,0,0,1,3.244,21V10.862L1.238,12.869,0,11.631,11.375.256a.876.876,0,0,1,1.238,0L23.987,11.631l-1.238,1.238-2-2.007V21A1.753,1.753,0,0,1,18.995,22.75Zm-7-20.639h0l-7,7V21h14V9.113l-7-7Zm3.5,16.263h-7v-1.75h7v1.75Z" transform="translate(2.006 2.625)" fill="rgba(0,0,0,0.9)"/>
</svg>
