<svg xmlns="http://www.w3.org/2000/svg" xmlns:xlink="http://www.w3.org/1999/xlink" width="280.723" height="24.225" viewBox="0 0 280.723 24.225">
  <defs>
    <clipPath id="clip-path">
      <rect id="사각형_3619" data-name="사각형 3619" width="280.723" height="24.225" transform="translate(0 0)" fill="#222"/>
    </clipPath>
  </defs>
  <g id="그룹_6863" data-name="그룹 6863" transform="translate(0 0)" clip-path="url(#clip-path)">
    <path id="패스_3493" data-name="패스 3493" d="M20.7,13.85a.6.6,0,0,1,.638.375,3.386,3.386,0,0,1,.137,1.1,3.268,3.268,0,0,1-.137,1.088.6.6,0,0,1-.638.362H12.35v5.35a.574.574,0,0,1-.45.575,4.325,4.325,0,0,1-1.3.15,4.493,4.493,0,0,1-1.25-.137.555.555,0,0,1-.45-.563V16.775H0V13.85ZM18.25,1.375V9.65a2.1,2.1,0,0,1-.425,1.388,1.622,1.622,0,0,1-1.325.512H6.1a1.25,1.25,0,0,1-.488-.112,5.737,5.737,0,0,1-.549-.275,4.108,4.108,0,0,1-.55-.375,3.908,3.908,0,0,1-.463-.438,7.38,7.38,0,0,1-.725-.85,1.539,1.539,0,0,1-.35-.9V1.375h3.45v2.35H14.8V1.375Zm-3.45,7.3V6.6H6.425V8.15q0,.525.475.525Z" fill="#222"/>
    <path id="패스_3494" data-name="패스 3494" d="M32.575,13.15q-.5-.45-1.025-1T30.5,10.975q-.525-.624-1.013-1.312A14.8,14.8,0,0,1,28.6,8.25a11.5,11.5,0,0,1-.925,1.575q-.525.75-1.1,1.425A17.054,17.054,0,0,1,25.4,12.5q-.6.576-1.15,1.05a.725.725,0,0,1-.788.162,2.877,2.877,0,0,1-.962-.762,3.373,3.373,0,0,1-.688-.9.577.577,0,0,1,.163-.725,20.968,20.968,0,0,0,2.35-2.437A12.847,12.847,0,0,0,26.05,6.175a5.45,5.45,0,0,0,.475-1.512,10.479,10.479,0,0,0,.125-1.638V1.375H30.2v1.65A7,7,0,0,0,31.05,6.3a15.384,15.384,0,0,0,1.675,2.562,20.776,20.776,0,0,0,1.9,2.088.613.613,0,0,1,.212.688,3.379,3.379,0,0,1-.687.912,3.77,3.77,0,0,1-.913.8c-.208.1-.429.034-.662-.2m7.7,7.475a.5.5,0,0,1,.537.388,3.8,3.8,0,0,1,.113,1.037,3.626,3.626,0,0,1-.113,1.05.5.5,0,0,1-.537.35H29a2.1,2.1,0,0,1-1.088-.363,4.781,4.781,0,0,1-.987-.787,4.4,4.4,0,0,1-.738-.912,1.766,1.766,0,0,1-.312-.863V15.2h3.4v4.875c0,.366.191.55.575.55Zm.2-4.75a.591.591,0,0,1-.5.625,5.025,5.025,0,0,1-1.2.125,3.791,3.791,0,0,1-1.25-.163.592.592,0,0,1-.45-.587V.675h3.4v5.5H44.25V9.05H40.475Z" fill="#222"/>
    <path id="패스_3495" data-name="패스 3495" d="M55.55,17.1q-.6-.551-1.238-1.2t-1.225-1.363a17.727,17.727,0,0,1-1.1-1.487,11.076,11.076,0,0,1-.862-1.55,10.864,10.864,0,0,1-.963,1.675,19.994,19.994,0,0,1-1.25,1.625q-.661.776-1.362,1.45t-1.325,1.175a.737.737,0,0,1-.775.1,3.266,3.266,0,0,1-.95-.75,4.065,4.065,0,0,1-.675-.887.585.585,0,0,1,.15-.738,24.191,24.191,0,0,0,1.9-1.913,17.788,17.788,0,0,0,1.662-2.175,11.394,11.394,0,0,0,1.175-2.35A7.2,7.2,0,0,0,49.15,6.25V2.4H52.7V6.2a6.8,6.8,0,0,0,.462,2.437,13.088,13.088,0,0,0,1.175,2.338,16.37,16.37,0,0,0,1.588,2.112q.875.989,1.7,1.763.375.349.212.687a4.061,4.061,0,0,1-.712.913,6.3,6.3,0,0,1-.85.737.547.547,0,0,1-.725-.087m7.425,4.475a.574.574,0,0,1-.45.575,4.33,4.33,0,0,1-1.3.15,4.445,4.445,0,0,1-1.25-.138.554.554,0,0,1-.45-.562V.925h3.45Z" fill="#222"/>
    <path id="패스_3496" data-name="패스 3496" d="M74.149,12.15H77.6V17.1h8.35a.6.6,0,0,1,.637.375,3.354,3.354,0,0,1,.138,1.1,3.231,3.231,0,0,1-.138,1.087.6.6,0,0,1-.637.363h-20.7V17.1h8.9Zm8.85.825a15.931,15.931,0,0,1-1.9-.9,20.019,20.019,0,0,1-1.95-1.225A15.771,15.771,0,0,1,77.387,9.4a9.063,9.063,0,0,1-1.338-1.575,8.213,8.213,0,0,1-1.35,1.6,19.57,19.57,0,0,1-1.838,1.525,22.211,22.211,0,0,1-2,1.313,16.826,16.826,0,0,1-1.837.937.707.707,0,0,1-.8-.088,4.14,4.14,0,0,1-.675-.812,2.806,2.806,0,0,1-.475-1.012.525.525,0,0,1,.325-.563A27.366,27.366,0,0,0,70.986,8.55,8.735,8.735,0,0,0,73.324,6.2a4.294,4.294,0,0,0,.625-1.538A8.765,8.765,0,0,0,74.074,3.2V2.025h3.6V3.3A7.5,7.5,0,0,0,77.8,4.725a4.345,4.345,0,0,0,.625,1.45,7.786,7.786,0,0,0,1.15,1.25,18.158,18.158,0,0,0,1.5,1.2q.8.576,1.65,1.075t1.6.85q.425.2.4.537a2.631,2.631,0,0,1-.375.963,3.763,3.763,0,0,1-.6.887c-.167.159-.417.171-.75.038" fill="#222"/>
    <path id="패스_3497" data-name="패스 3497" d="M97.8,12.05q-.5-.424-1.037-.962T95.687,9.95q-.537-.6-1.025-1.25a10.238,10.238,0,0,1-.837-1.3q-.426.7-.95,1.413T91.787,10.2a16.623,16.623,0,0,1-1.15,1.25q-.588.576-1.137,1.025a.786.786,0,0,1-.738.2,2.457,2.457,0,0,1-.987-.725q-.3-.3-.5-.525A1.456,1.456,0,0,1,87,11.013a.458.458,0,0,1,0-.363,1.386,1.386,0,0,1,.3-.4,26.559,26.559,0,0,0,2.262-2.287A13.355,13.355,0,0,0,91.15,5.775a6.044,6.044,0,0,0,.6-1.462,6.81,6.81,0,0,0,.15-1.538V1.125h3.55v1.65a6.059,6.059,0,0,0,.125,1.2,4.6,4.6,0,0,0,.4,1.175,9.805,9.805,0,0,0,.8,1.275q.474.651,1,1.275t1.062,1.175q.539.55.988.95a.791.791,0,0,1,.287.7,2.438,2.438,0,0,1-.662,1,2.787,2.787,0,0,1-.925.75.692.692,0,0,1-.725-.225m1.125,12.175a7.1,7.1,0,0,1-2.438-.412,6.256,6.256,0,0,1-1.987-1.15,5.428,5.428,0,0,1-1.338-1.738,5.1,5.1,0,0,1,0-4.35A5.424,5.424,0,0,1,94.5,14.838a6.238,6.238,0,0,1,1.987-1.15,7.4,7.4,0,0,1,4.875,0,6.253,6.253,0,0,1,1.988,1.15,5.435,5.435,0,0,1,1.337,1.737,5.091,5.091,0,0,1,0,4.35,5.439,5.439,0,0,1-1.337,1.738,6.272,6.272,0,0,1-1.988,1.15,7.094,7.094,0,0,1-2.437.412m0-2.775a2.761,2.761,0,0,0,2.1-.787,2.813,2.813,0,0,0,0-3.825,3.192,3.192,0,0,0-4.2,0,2.813,2.813,0,0,0,0,3.825,2.761,2.761,0,0,0,2.1.787m3.4-20.775h3.4v4.25H109.5V7.8h-3.775v4.775a.609.609,0,0,1-.45.613,4.9,4.9,0,0,1-2.5,0,.609.609,0,0,1-.45-.613Z" fill="#222"/>
    <path id="패스_3498" data-name="패스 3498" d="M116.4,6.65h3.45v3.525h10.1a.613.613,0,0,1,.637.325,2.9,2.9,0,0,1,.138,1.05,2.79,2.79,0,0,1-.138,1.038c-.091.208-.3.312-.637.312h-20.7V10.175h7.15Zm9.175,2.325a3.991,3.991,0,0,1-1.238-.15.571.571,0,0,1-.437-.575V4.3c0-.233-.046-.383-.137-.45a.708.708,0,0,0-.413-.1H112.474V.9h11.65a2.164,2.164,0,0,1,1.1.363,5.407,5.407,0,0,1,1.025.787,5.3,5.3,0,0,1,.725.913,1.74,1.74,0,0,1,.325.887v4.4a.571.571,0,0,1-.438.575,4.19,4.19,0,0,1-1.287.15m.825,10.2a4.153,4.153,0,0,1-.55,2.138,5.107,5.107,0,0,1-1.462,1.587,6.823,6.823,0,0,1-2.088.988,9.074,9.074,0,0,1-4.9,0,6.8,6.8,0,0,1-2.087-.988,5.087,5.087,0,0,1-1.463-1.587,4.429,4.429,0,0,1,0-4.275,5.1,5.1,0,0,1,1.463-1.588,6.794,6.794,0,0,1,2.087-.987,9.048,9.048,0,0,1,4.9,0,6.821,6.821,0,0,1,2.088.987,5.121,5.121,0,0,1,1.462,1.588,4.149,4.149,0,0,1,.55,2.137m-3.4,0a1.946,1.946,0,0,0-.875-1.637,3.718,3.718,0,0,0-2.25-.638,3.809,3.809,0,0,0-2.3.638,1.97,1.97,0,0,0,0,3.275,3.816,3.816,0,0,0,2.3.637,3.717,3.717,0,0,0,2.263-.637A1.956,1.956,0,0,0,123,19.175" fill="#222"/>
    <path id="패스_3499" data-name="패스 3499" d="M137.4,12.875a6.4,6.4,0,0,1-2.4-.45,6.2,6.2,0,0,1-1.962-1.237,5.883,5.883,0,0,1-1.326-1.851,5.5,5.5,0,0,1,0-4.525,5.89,5.89,0,0,1,1.326-1.85A6.374,6.374,0,0,1,135,1.712a6.465,6.465,0,0,1,4.8,0,6.391,6.391,0,0,1,1.963,1.25,5.726,5.726,0,0,1,1.312,1.85,5.626,5.626,0,0,1,0,4.525,5.719,5.719,0,0,1-1.312,1.851,6.213,6.213,0,0,1-1.963,1.237,6.4,6.4,0,0,1-2.4.45m0-8.775a2.888,2.888,0,0,0-1.2.237,2.721,2.721,0,0,0-.9.65,2.91,2.91,0,0,0-.575.95,3.335,3.335,0,0,0,0,2.275,2.747,2.747,0,0,0,.575.938,2.807,2.807,0,0,0,.9.638,3.156,3.156,0,0,0,2.4,0,2.657,2.657,0,0,0,.887-.638,2.866,2.866,0,0,0,.563-.938,3.335,3.335,0,0,0,0-2.275,3.042,3.042,0,0,0-.563-.95,2.58,2.58,0,0,0-.887-.65,2.888,2.888,0,0,0-1.2-.237m12.925,16.525a.5.5,0,0,1,.537.388,3.836,3.836,0,0,1,.113,1.037,3.661,3.661,0,0,1-.113,1.05.5.5,0,0,1-.537.35H139a2.1,2.1,0,0,1-1.088-.363,4.781,4.781,0,0,1-.987-.787,4.4,4.4,0,0,1-.738-.912,1.766,1.766,0,0,1-.312-.863V15.2h3.4v4.875c0,.366.191.55.575.55Zm.15-4.75a.591.591,0,0,1-.5.625,5.025,5.025,0,0,1-1.2.125,3.791,3.791,0,0,1-1.25-.163.592.592,0,0,1-.45-.587V.675h3.4Z" fill="#222"/>
    <path id="패스_3500" data-name="패스 3500" d="M161.4,7.525h3.45V10.8H173.2a.613.613,0,0,1,.636.325,2.9,2.9,0,0,1,.138,1.05,2.784,2.784,0,0,1-.138,1.037c-.091.209-.3.313-.636.313H152.5V10.8h8.9ZM170,9.4q-.652-.225-1.6-.625a18.7,18.7,0,0,1-1.925-.95,16.543,16.543,0,0,1-1.837-1.2A5.607,5.607,0,0,1,163.3,5.25a8.2,8.2,0,0,1-1.325,1.325,14.425,14.425,0,0,1-1.75,1.213,16.083,16.083,0,0,1-2,1,14.477,14.477,0,0,1-2.05.687c-.317.084-.537.067-.662-.05a2.986,2.986,0,0,1-.488-.85,3.932,3.932,0,0,1-.4-1.2c0-.2.149-.341.45-.425a14.527,14.527,0,0,0,1.537-.55,19.563,19.563,0,0,0,1.838-.875,13.4,13.4,0,0,0,1.687-1.075,3.783,3.783,0,0,0,1.087-1.175h-5.7V.775h14.65a.539.539,0,0,1,.55.275,2.609,2.609,0,0,1,.125.975,2.6,2.6,0,0,1-.125.988.545.545,0,0,1-.55.262h-5.049A3.781,3.781,0,0,0,166.173,4.4a16.326,16.326,0,0,0,1.638,1.1,16.566,16.566,0,0,0,1.8.925q.912.4,1.562.625c.283.1.408.238.375.412a5.385,5.385,0,0,1-.375.988c-.116.25-.213.45-.287.6a.962.962,0,0,1-.238.325.429.429,0,0,1-.274.1A1.223,1.223,0,0,1,170,9.4m-.351,9.975a3.968,3.968,0,0,1-.55,2.087,4.81,4.81,0,0,1-1.462,1.525,6.907,6.907,0,0,1-2.088.926,9.775,9.775,0,0,1-4.9,0,6.89,6.89,0,0,1-2.087-.926,4.792,4.792,0,0,1-1.463-1.525,4.235,4.235,0,0,1,0-4.174,4.792,4.792,0,0,1,1.463-1.525,6.89,6.89,0,0,1,2.087-.926,9.775,9.775,0,0,1,4.9,0,6.907,6.907,0,0,1,2.088.926,4.81,4.81,0,0,1,1.462,1.525,3.968,3.968,0,0,1,.55,2.087m-3.4,0a1.726,1.726,0,0,0-.875-1.513,4.1,4.1,0,0,0-2.25-.562,4.191,4.191,0,0,0-2.3.562,1.746,1.746,0,0,0,0,3.026,4.191,4.191,0,0,0,2.3.562,4.1,4.1,0,0,0,2.25-.562,1.726,1.726,0,0,0,.875-1.513" fill="#222"/>
    <path id="패스_3501" data-name="패스 3501" d="M187.2,2.225a.526.526,0,0,1,.55.325,3.087,3.087,0,0,1,.125,1.025,3.309,3.309,0,0,1-.125,1.063.524.524,0,0,1-.55.337H174.624V2.225h4.8V0h3.425V2.225Zm-11.35,7.5a3.5,3.5,0,0,1,.4-1.675,3.945,3.945,0,0,1,1.1-1.287,5.065,5.065,0,0,1,1.675-.825,8.121,8.121,0,0,1,4.287,0A5.057,5.057,0,0,1,185,6.763a3.969,3.969,0,0,1,1.1,1.287,3.707,3.707,0,0,1,0,3.35,3.982,3.982,0,0,1-1.1,1.288,5.076,5.076,0,0,1-1.688.825,8.148,8.148,0,0,1-4.287,0,5.084,5.084,0,0,1-1.675-.825,3.958,3.958,0,0,1-1.1-1.288,3.5,3.5,0,0,1-.4-1.675m5.3,13.975a1.911,1.911,0,0,1-1.038-.35,5.931,5.931,0,0,1-.962-.775,4.665,4.665,0,0,1-.738-.887,1.643,1.643,0,0,1-.312-.838v-5.9h3.375v1.775h7.85V14.95H192.7v6.925a1.925,1.925,0,0,1-.437,1.35,1.77,1.77,0,0,1-1.363.475Zm2.05-14a1.248,1.248,0,0,0-.562-1.088,2.959,2.959,0,0,0-2.926,0,1.248,1.248,0,0,0-.562,1.088,1.3,1.3,0,0,0,.562,1.125,2.875,2.875,0,0,0,2.926,0A1.3,1.3,0,0,0,183.2,9.7m6.125,11.175V19.5h-7.85v1q0,.375.325.375Zm.25-20.2h3.4v4.5h3.775V8.05h-3.775v4.925a.609.609,0,0,1-.45.613,4.9,4.9,0,0,1-2.5,0,.609.609,0,0,1-.45-.613Z" fill="#222"/>
    <path id="패스_3502" data-name="패스 3502" d="M207.749,16.85a12.689,12.689,0,0,1-1.125-1.05q-.576-.6-1.125-1.275t-1.05-1.413a14.137,14.137,0,0,1-.875-1.462q-.426.726-.988,1.525t-1.175,1.537q-.612.738-1.25,1.388A14.225,14.225,0,0,1,199,17.175a.587.587,0,0,1-.737.075,4.625,4.625,0,0,1-.938-.8,4.88,4.88,0,0,1-.713-.85.529.529,0,0,1,.138-.7q.9-.825,1.763-1.75a15.141,15.141,0,0,0,1.562-1.988,10.567,10.567,0,0,0,1.125-2.25,7.477,7.477,0,0,0,.425-2.537v-.8h-4.475V2.65h12.025a.522.522,0,0,1,.55.375,3.583,3.583,0,0,1,.125,1.075,3.692,3.692,0,0,1-.125,1.1.522.522,0,0,1-.55.375h-4.025v.75a6.912,6.912,0,0,0,.412,2.35,11.175,11.175,0,0,0,1.076,2.2,14.9,14.9,0,0,0,1.487,1.975q.825.925,1.65,1.7a.68.68,0,0,1,.225.725,2.807,2.807,0,0,1-.7.95,6.131,6.131,0,0,1-.9.762c-.184.109-.4.063-.65-.137m7.725,4.725a.574.574,0,0,1-.45.575,4.33,4.33,0,0,1-1.3.15,4.445,4.445,0,0,1-1.25-.138.554.554,0,0,1-.45-.562V.925h3.45Z" fill="#222"/>
    <path id="패스_3503" data-name="패스 3503" d="M217.873,12.825V10.15h13.8c.333,0,.546.1.637.312a2.8,2.8,0,0,1,.138,1.038,2.687,2.687,0,0,1-.138,1.025c-.091.2-.3.3-.637.3h-5.825V15.35a.567.567,0,0,1-.413.575,3.943,3.943,0,0,1-1.262.15,3.861,3.861,0,0,1-1.225-.15.568.568,0,0,1-.425-.575V12.825Zm12.575-8.088A3.975,3.975,0,0,1,230,6.632a4.633,4.633,0,0,1-1.212,1.459,5.5,5.5,0,0,1-1.775.935,7.049,7.049,0,0,1-4.225,0,5.459,5.459,0,0,1-1.775-.935A4.623,4.623,0,0,1,219.8,6.632a3.975,3.975,0,0,1-.45-1.895,3.974,3.974,0,0,1,.45-1.894A4.515,4.515,0,0,1,221.011,1.4a5.591,5.591,0,0,1,1.775-.922,7.049,7.049,0,0,1,4.225,0,5.634,5.634,0,0,1,1.775.922A4.524,4.524,0,0,1,230,2.843a3.974,3.974,0,0,1,.45,1.894M224.3,23.45a1.733,1.733,0,0,1-.925-.325,4.872,4.872,0,0,1-.9-.75,5.4,5.4,0,0,1-.675-.825,1.5,1.5,0,0,1-.3-.8V17.2h3.4v2.775q0,.65.575.65h11.375a.5.5,0,0,1,.538.388,3.878,3.878,0,0,1,.112,1.037,3.7,3.7,0,0,1-.112,1.05.5.5,0,0,1-.538.35Zm2.9-18.713a2.086,2.086,0,0,0-.588-1.446,2.608,2.608,0,0,0-3.425,0,2.084,2.084,0,0,0-.437,2.226,2.118,2.118,0,0,0,.437.679,2.051,2.051,0,0,0,.713.478,2.609,2.609,0,0,0,1,.176,2.636,2.636,0,0,0,.988-.176,2.025,2.025,0,0,0,.724-.478,2.105,2.105,0,0,0,.588-1.459m2.275,8.988h4.35V.675h3.4v16.95a.591.591,0,0,1-.5.625,5.025,5.025,0,0,1-1.2.125,3.791,3.791,0,0,1-1.25-.163.592.592,0,0,1-.45-.587v-1.1h-4.35Z" fill="#222"/>
    <path id="패스_3504" data-name="패스 3504" d="M248.173,12.75a10.021,10.021,0,0,1-.8-.85q-.425-.5-.85-1.075t-.812-1.187a13.69,13.69,0,0,1-.688-1.213,11.062,11.062,0,0,1-.663,1.35q-.387.675-.812,1.288t-.875,1.15q-.45.537-.85.937a.833.833,0,0,1-.687.325,2.642,2.642,0,0,1-1.013-.675c-.183-.15-.346-.287-.487-.412a1.484,1.484,0,0,1-.313-.363.564.564,0,0,1-.075-.362.825.825,0,0,1,.225-.413,20.8,20.8,0,0,0,1.4-1.712,15.194,15.194,0,0,0,1.15-1.825,10.158,10.158,0,0,0,.788-1.913,7.146,7.146,0,0,0,.287-2.025v-2.4h3.525v2.35a5.89,5.89,0,0,0,.4,2.088A12.585,12.585,0,0,0,248,7.838a14.947,14.947,0,0,0,1.213,1.75q.638.787,1.112,1.287a.522.522,0,0,1,.138.663,3.9,3.9,0,0,1-.713.787,3.573,3.573,0,0,1-.95.688c-.184.058-.392-.029-.625-.263m11.7,7.875a.5.5,0,0,1,.538.388,3.843,3.843,0,0,1,.112,1.037,3.669,3.669,0,0,1-.112,1.05.5.5,0,0,1-.538.35H248a2.1,2.1,0,0,1-1.087-.362,4.852,4.852,0,0,1-.988-.788,4.39,4.39,0,0,1-.737-.912,1.759,1.759,0,0,1-.313-.863V15.2h3.4v4.875q0,.55.575.55ZM248.973,7.65V4.725H252V.925h3.2V15.55a.524.524,0,0,1-.4.55,5.76,5.76,0,0,1-2.387,0,.527.527,0,0,1-.413-.55V7.65ZM256.8.675h3.275V15.8a.529.529,0,0,1-.425.55,4.566,4.566,0,0,1-1.225.125,4.435,4.435,0,0,1-1.2-.125.529.529,0,0,1-.425-.55Z" fill="#222"/>
    <path id="패스_3505" data-name="패스 3505" d="M265.448,5.45V8.5h6.425a.523.523,0,0,1,.55.375,3.578,3.578,0,0,1,.125,1.075,3.692,3.692,0,0,1-.125,1.1.523.523,0,0,1-.55.375h-6.425v2.45c0,.384.183.575.55.575h7.675a.522.522,0,0,1,.55.375,3.578,3.578,0,0,1,.125,1.075,3.687,3.687,0,0,1-.125,1.1.522.522,0,0,1-.55.375h-8.5a2.114,2.114,0,0,1-1.1-.375,5.759,5.759,0,0,1-1.025-.8,6.5,6.5,0,0,1-.725-.925A1.672,1.672,0,0,1,262,14.4V2.525h10.25a.523.523,0,0,1,.55.375,3.583,3.583,0,0,1,.125,1.075,3.692,3.692,0,0,1-.125,1.1.523.523,0,0,1-.55.375Zm15.275,16.125a.574.574,0,0,1-.45.575,4.33,4.33,0,0,1-1.3.15,4.445,4.445,0,0,1-1.25-.138.554.554,0,0,1-.45-.562V10.9h-3.425V7.975h3.425V.925h3.45Z" fill="#222"/>
  </g>
</svg>
