<svg id="구성_요소_5_5" data-name="구성 요소 5 – 5" xmlns="http://www.w3.org/2000/svg" width="40" height="40" viewBox="0 0 40 40">
  <rect id="사각형_840" data-name="사각형 840" width="40" height="40" fill="none"/>
  <path id="apps_FILL0_wght200_GRAD0_opsz40" d="M9.833,11.708A1.779,1.779,0,0,1,8.5,11.146a1.834,1.834,0,0,1-.542-1.313A1.851,1.851,0,0,1,9.833,7.958a1.834,1.834,0,0,1,1.313.542,1.779,1.779,0,0,1,.562,1.333,1.921,1.921,0,0,1-1.875,1.875ZM20,32.042a1.851,1.851,0,0,1-1.875-1.875,1.834,1.834,0,0,1,.542-1.313,1.862,1.862,0,0,1,2.666,0,1.834,1.834,0,0,1,.542,1.313A1.851,1.851,0,0,1,20,32.042Zm-10.167,0a1.851,1.851,0,0,1-1.875-1.875A1.834,1.834,0,0,1,8.5,28.854a1.779,1.779,0,0,1,1.333-.562,1.921,1.921,0,0,1,1.875,1.875,1.779,1.779,0,0,1-.562,1.333A1.834,1.834,0,0,1,9.833,32.042Zm0-10.167a1.875,1.875,0,1,1,0-3.75,1.834,1.834,0,0,1,1.313.542,1.862,1.862,0,0,1,0,2.666A1.834,1.834,0,0,1,9.833,21.875Zm10.167,0a1.851,1.851,0,1,1,1.333-.542A1.81,1.81,0,0,1,20,21.875ZM30.167,11.708a1.921,1.921,0,0,1-1.875-1.875A1.779,1.779,0,0,1,28.854,8.5a1.834,1.834,0,0,1,1.313-.542,1.851,1.851,0,0,1,1.875,1.875,1.834,1.834,0,0,1-.542,1.313A1.779,1.779,0,0,1,30.167,11.708ZM20,11.708a1.777,1.777,0,0,1-1.333-.562,1.834,1.834,0,0,1-.542-1.313,1.875,1.875,0,1,1,3.75,0,1.834,1.834,0,0,1-.542,1.313A1.777,1.777,0,0,1,20,11.708ZM30.167,21.875a1.834,1.834,0,0,1-1.313-.542,1.862,1.862,0,0,1,0-2.666,1.834,1.834,0,0,1,1.313-.542,1.875,1.875,0,1,1,0,3.75Zm0,10.167a1.834,1.834,0,0,1-1.313-.542,1.779,1.779,0,0,1-.562-1.333,1.921,1.921,0,0,1,1.875-1.875,1.779,1.779,0,0,1,1.333.562,1.834,1.834,0,0,1,.542,1.313,1.851,1.851,0,0,1-1.875,1.875Z" transform="translate(0.042 0.042)"/>
</svg>
