<svg id="구성_요소_791_4" data-name="구성 요소 791 – 4" xmlns="http://www.w3.org/2000/svg" xmlns:xlink="http://www.w3.org/1999/xlink" width="109.042" height="59.356" viewBox="0 0 109.042 59.356">
  <defs>
    <clipPath id="clip-path">
      <rect id="사각형_8317" data-name="사각형 8317" width="109.042" height="59.356" fill="none"/>
    </clipPath>
  </defs>
  <g id="그룹_16361" data-name="그룹 16361" clip-path="url(#clip-path)">
    <path id="패스_54639" data-name="패스 54639" d="M178.107,3.081a3.27,3.27,0,0,1,3.26,3.274h3.453a3.26,3.26,0,1,1,6.521,0h3.069a6.317,6.317,0,0,0-11.316-3.9,6.316,6.316,0,0,0-11.316,3.9h3.069a3.271,3.271,0,0,1,3.261-3.274" transform="translate(-88.934)" fill="#fff"/>
    <path id="패스_54640" data-name="패스 54640" d="M61.428,89.935a6.346,6.346,0,0,0,3.757,1.286c.058,0,.117.008.174.008h.017c1.165,0,1.77-.333,1.935-.614a.459.459,0,0,0-.037-.494l-.006-.01-4.214-6.628H57.326l2.985,4.7Z" transform="translate(-29.679 -43.056)" fill="#fff"/>
    <path id="패스_54641" data-name="패스 54641" d="M31.637,89.588a3.537,3.537,0,0,0,1.5,1.088,7.054,7.054,0,0,0,2.73.59h.02c1.165,0,1.77-.333,1.935-.614a.456.456,0,0,0-.038-.493l-.127-.232-1.113-1.75-.517-.813-2.486-3.883H27.733l.8,1.251,3.019,4.724a.8.8,0,0,0,.09.131" transform="translate(-14.358 -43.056)" fill="#fff"/>
    <path id="패스_54642" data-name="패스 54642" d="M45.69,88.177l1.183,1.859a6.548,6.548,0,0,0,3.835,1.211h.016c1.166,0,1.771-.333,1.935-.614a.417.417,0,0,0,.007-.387l-1.316-2.069-2.984-4.7H42.707Z" transform="translate(-22.111 -43.056)" fill="#fff"/>
    <path id="패스_54643" data-name="패스 54643" d="M82.035,90.6A.458.458,0,0,0,82,90.1l-.2-.362-3.39-5.294-.616-.963H72.086l4.12,6.481a5.514,5.514,0,0,0,2.2,1.032,7.059,7.059,0,0,0,1.674.215H80.1c1.165,0,1.77-.334,1.935-.614" transform="translate(-37.321 -43.056)" fill="#fff"/>
    <path id="패스_54644" data-name="패스 54644" d="M55.332,94.945A4.446,4.446,0,0,1,52.863,94c-.514,1.156-2.209,1.263-3.113,1.234v4.457H33.027V94.8a4.8,4.8,0,0,1-2.809-1.886l-2.706-4.419v16.163h27.82Z" transform="translate(-14.244 -45.641)" fill="#fff"/>
    <path id="패스_54645" data-name="패스 54645" d="M74.264,27.6h7.729V21.882H74.264V8.541H68.569V42.033h5.695Z" transform="translate(-35.5 -4.405)" fill="#fff"/>
    <path id="패스_54646" data-name="패스 54646" d="M26.069,13.118H16.043V7.65H10.348v5.468H0v5.718H26.069Z" transform="translate(0 -3.946)" fill="#fff"/>
    <path id="패스_54647" data-name="패스 54647" d="M14.947,54.758a11.3,11.3,0,1,0-11.256-11.3,11.289,11.289,0,0,0,11.256,11.3m0-16.883a5.582,5.582,0,1,1-5.56,5.582,5.576,5.576,0,0,1,5.56-5.582" transform="translate(-1.911 -16.585)" fill="#fff"/>
    <path id="패스_54648" data-name="패스 54648" d="M157.191,48a4.632,4.632,0,0,0-1.719-.261,4.877,4.877,0,0,0-1.737.255q-.655.255-.655.7,0,.422.655.684a5.917,5.917,0,0,0,3.455.006c.424-.171.636-.4.636-.678q0-.447-.636-.709" transform="translate(-79.254 -24.619)" fill="#fff"/>
    <path id="패스_54649" data-name="패스 54649" d="M156.386,20.5H121.529a10.284,10.284,0,0,0-10.262,10.3v.573a10.284,10.284,0,0,0,10.262,10.3h24.945l-.98,5.1a.552.552,0,0,0,.24.558.011.011,0,0,0,.008,0,.542.542,0,0,0,.344.079.5.5,0,0,0,.295-.1l7.04-5.648h2.966a10.283,10.283,0,0,0,10.262-10.3V30.8a10.283,10.283,0,0,0-10.262-10.3m3.587,5.374h1.582v7.9h-1.582Zm-18.962.323h8.339a10.839,10.839,0,0,1-.28,2.352q-.279,1.257-.291,1.294h-1.594q.012-.049.161-.771a14.148,14.148,0,0,0,.219-1.444h-6.555Zm-21.623,3.559a3.4,3.4,0,0,0,1.149-2.551V26.2h1.76V27.2a3.308,3.308,0,0,0,1.125,2.513,8,8,0,0,0,2.694,1.63l-1.035,1.107a7.367,7.367,0,0,1-1.945-1.008,6.045,6.045,0,0,1-1.719-1.7,5.512,5.512,0,0,1-1.625,1.674,7.2,7.2,0,0,1-2.039,1.039l-1.035-1.107a7.153,7.153,0,0,0,2.67-1.593m7.263,6.034h-10.47v-1.43h4.4V32.244h1.666v2.115h4.4Zm1.332-4.852a5.459,5.459,0,0,0,1.891-1.456,3.066,3.066,0,0,0,.845-2V26.159h1.7v1.319a2.732,2.732,0,0,0,.862,1.916,4.5,4.5,0,0,0,1.8,1.207l-.964,1.219a7.115,7.115,0,0,1-1.368-.827,5.246,5.246,0,0,1-1.191-1.251,4.787,4.787,0,0,1-1.04,1.319,7.555,7.555,0,0,1-1.4,1.008Zm8.9,5.369a7.559,7.559,0,0,1-6.133.006,1.915,1.915,0,0,1-1.053-1.667,1.935,1.935,0,0,1,1.053-1.668,7.49,7.49,0,0,1,6.133-.006,1.851,1.851,0,0,1,0,3.335m2.034-6.564h-1.4v2.489H135.93V25.873h1.582V28.3h1.4Zm9.375,6.57a7.991,7.991,0,0,1-6.3,0A1.893,1.893,0,0,1,140.9,34.67a1.855,1.855,0,0,1,1.083-1.624,8.211,8.211,0,0,1,6.3,0,1.853,1.853,0,0,1,1.089,1.624,1.893,1.893,0,0,1-1.083,1.643m2.083-4.455H139.9V30.427h3.724V28.7h1.666v1.73h5.08Zm2.742-.784a2.9,2.9,0,0,1,0-4.125,3.252,3.252,0,0,1,4.39,0,2.9,2.9,0,0,1,0,4.125,3.233,3.233,0,0,1-4.39,0m8.726,5.5H153.8V32.94h1.619v2.2h6.424Z" transform="translate(-57.606 -10.572)" fill="#fff"/>
    <path id="패스_54650" data-name="패스 54650" d="M202.1,37.539a1.6,1.6,0,0,0,.374-1.058,1.614,1.614,0,0,0-.374-1.07,1.312,1.312,0,0,0-1.065-.448,1.327,1.327,0,0,0-1.071.448,1.6,1.6,0,0,0-.381,1.07,1.582,1.582,0,0,0,.381,1.058,1.328,1.328,0,0,0,1.071.447,1.313,1.313,0,0,0,1.065-.447" transform="translate(-103.329 -18.032)" fill="#fff"/>
    <path id="패스_54651" data-name="패스 54651" d="M180.672,48.028a6.66,6.66,0,0,0-3.563,0q-.643.243-.643.7c0,.349.214.6.643.759a6.832,6.832,0,0,0,3.563,0c.433-.158.649-.411.649-.759q0-.46-.649-.7" transform="translate(-91.362 -24.645)" fill="#fff"/>
    <path id="패스_54652" data-name="패스 54652" d="M164.812,82.15a5.15,5.15,0,1,0-5.151,5.171,5.167,5.167,0,0,0,5.151-5.171m-7.183,0a2.034,2.034,0,1,1,2.032,2.042,2.039,2.039,0,0,1-2.032-2.042" transform="translate(-79.995 -39.702)" fill="#fff"/>
    <path id="패스_54653" data-name="패스 54653" d="M158.264,104.191v-1.5H164.6V99.466H148.622v3.222h6.431v1.5a6.649,6.649,0,0,0-5.016,6.444h3.21a3.41,3.41,0,1,1,6.821,0h3.21a6.651,6.651,0,0,0-5.016-6.444" transform="translate(-76.946 -51.3)" fill="#fff"/>
    <rect id="사각형_8315" data-name="사각형 8315" width="15.962" height="3.224" transform="translate(89.954 48.186)" fill="#fff"/>
    <path id="패스_54654" data-name="패스 54654" d="M190.429,80.256V85.88c.057.725.471,2.23,2.9,2.23h9.3V84.886H193.66v-4.63Z" transform="translate(-98.59 -41.392)" fill="#fff"/>
    <path id="패스_54655" data-name="패스 54655" d="M202.622,112.405H193.61v-3.3h-3.2v3.924l.006-.014s0,.038-.006.1v.148c.019.652.317,2.362,2.9,2.362h9.307Z" transform="translate(-98.581 -56.273)" fill="#fff"/>
    <path id="패스_54656" data-name="패스 54656" d="M108.886,91.351a6.643,6.643,0,0,0-6.621-6.648v3.224a3.424,3.424,0,0,1,0,6.848V98a6.642,6.642,0,0,0,6.621-6.648" transform="translate(-52.945 -43.686)" fill="#fff"/>
    <rect id="사각형_8316" data-name="사각형 8316" width="2.502" height="20.371" transform="translate(66.672 38.94)" fill="#fff"/>
    <path id="패스_54657" data-name="패스 54657" d="M122.88,87.511h-1.048a6.632,6.632,0,0,0-6.411-5.02v3.224a3.424,3.424,0,0,1,0,6.849v3.224a6.632,6.632,0,0,0,6.382-4.906h1.077v9.9h2.5V80.414h-2.5Z" transform="translate(-59.756 -41.474)" fill="#fff"/>
  </g>
</svg>
