<svg id="구성_요소_723_5" data-name="구성 요소 723 – 5" xmlns="http://www.w3.org/2000/svg" width="40" height="40" viewBox="0 0 40 40">
  <rect id="사각형_8034" data-name="사각형 8034" width="40" height="40" fill="none" opacity="0"/>
  <g id="그룹_15796" data-name="그룹 15796" transform="translate(-2073 19110)">
    <g id="구성_요소_720_1" data-name="구성 요소 720 – 1" transform="translate(2076 -19105)">
      <rect id="사각형_8037" data-name="사각형 8037" width="24" height="24" fill="none" opacity="0"/>
      <g id="bx-user" transform="translate(3 2)">
        <path id="패스_50555" data-name="패스 50555" d="M22.5,10.5A4.5,4.5,0,1,1,18,6,4.5,4.5,0,0,1,22.5,10.5Z" transform="translate(-9 -3)" fill="none"/>
        <path id="패스_50556" data-name="패스 50556" d="M13.5,3a5,5,0,1,0,5,5A5.006,5.006,0,0,0,13.5,3Zm0,8a3,3,0,1,1,3-3A3,3,0,0,1,13.5,11Zm9,11V21a7.009,7.009,0,0,0-7-7h-4a7.009,7.009,0,0,0-7,7v1h2V21a5.005,5.005,0,0,1,5-5h4a5.005,5.005,0,0,1,5,5v1Z" transform="translate(-4.5 -3)"/>
      </g>
    </g>
    <g id="구성_요소_722_1" data-name="구성 요소 722 – 1" transform="translate(2086 -19089)">
      <rect id="사각형_8038" data-name="사각형 8038" width="24" height="13" rx="6" fill="#15273e"/>
      <text id="MY" transform="translate(5 10)" fill="#fff" font-size="10" font-family="Roboto-Medium, Roboto" font-weight="500" letter-spacing="-0.025em"><tspan x="0" y="0">MY</tspan></text>
    </g>
  </g>
</svg>
