<svg xmlns="http://www.w3.org/2000/svg" xmlns:xlink="http://www.w3.org/1999/xlink" width="394" height="312" viewBox="0 0 394 312">
  <defs>
    <clipPath id="clip-path">
      <rect id="사각형_7760" data-name="사각형 7760" width="394" height="312" transform="translate(1126.388 447)" fill="none"/>
    </clipPath>
    <clipPath id="clip-path-2">
      <rect id="사각형_7758" data-name="사각형 7758" width="509.534" height="257.59" fill="none"/>
    </clipPath>
    <clipPath id="clip-path-3">
      <path id="패스_21368" data-name="패스 21368" d="M189.667,52.362c-.995.1-2.034.191-3.108.286-9.255.818-20.977,1.77-27.826,7.808-4.521,3.982-12.269,17.331-11.938,23.578.008.181-.908,13.883-2.146,32.282L125,100.7c-23.179,15.5-56.8,37.258-49.176,70.145,4.651,20.072,24.759,23.152,46.427,17.888l8.114,35.8c15.944-3.231,34.485-7.077,51.526-11.6l83.482.282c-2.109-10.954-3.709-22.325-5.267-33.8,12.495-14.256,17.409-34.354,13.315-54.829C266.333,89.168,245.6,68.1,225.784,57.9c-6.584-4.877-14.935-6.269-23.6-6.269-4.157,0-8.384.321-12.521.729" transform="translate(-74.725 -51.633)" fill="none"/>
    </clipPath>
  </defs>
  <g id="마스크_그룹_25" data-name="마스크 그룹 25" transform="translate(-1126.388 -447)" clip-path="url(#clip-path)">
    <g id="그룹_14929" data-name="그룹 14929" transform="translate(1138.523 501.41)">
      <g id="그룹_14924" data-name="그룹 14924">
        <g id="그룹_14923" data-name="그룹 14923" clip-path="url(#clip-path-2)">
          <line id="선_366" data-name="선 366" x1="370.001" transform="translate(139.533 230.208)" fill="none" stroke="#000" stroke-miterlimit="10" stroke-width="1"/>
          <path id="패스_21349" data-name="패스 21349" d="M149.616,54.856c-7.057-14.544-.88-38.754,15.856-44.989,14.914-5.556,31.24,7.046,47.138,3.964C228.866,10.682,248.194-3.728,266.271.913c24.475,6.283,38.859,42.3,31.587,64.75-12.968,40.016-82.56,48.44-113.339,27.41-12.372-8.452-27.627-23.226-34.9-38.217" transform="translate(46.831 0)"/>
          <path id="패스_21350" data-name="패스 21350" d="M171.223,52.649c1.074-.095,2.113-.19,3.107-.286,17.265-1.708,36.114-1.886,44.789,16.347,6.436,13.534,9.229,30.373,13.508,44.712,9.405,31.512,11.182,67.46,17.411,99.8l-127.256-.433s8.7-128.2,8.676-128.751c-.33-6.247,7.42-19.6,11.94-23.578,6.85-6.038,18.571-6.99,27.826-7.808" transform="translate(39.184 16.478)" fill="#e88158"/>
          <path id="패스_21351" data-name="패스 21351" d="M184.393,52.283c22.937,6.553,52.438,28.408,61.18,72.1,6.962,34.817-12.1,68.573-50.258,74.294-43.7,6.55-32.742.005-30.381-36.928.7-10.846,17.274-17.7,43.493-24.255l-17.479-78.66Z" transform="translate(51.696 16.686)" fill="#e88158"/>
          <path id="패스_21352" data-name="패스 21352" d="M125,88.831c-23.179,15.5-56.8,37.258-49.176,70.147,10.4,44.877,98.074,4.852,107.687-23.638" transform="translate(23.848 28.35)" fill="#e88158"/>
          <path id="패스_21353" data-name="패스 21353" d="M120.654,205.235c31.9-6.464,74.194-15.39,94.073-27.251,29.243-17.455,26.228-61.953-23.837-65.885-2.273-.178-53.346,14.384-85.738,24.742Z" transform="translate(33.559 35.775)" fill="#e88158"/>
          <path id="패스_21354" data-name="패스 21354" d="M146.4,41.52c-1.127,5.757-4.431,10.161-8.725,6.346-4.922-4.341-6.972-21.424,2.557-21.122,5.916.189,7.414,8.328,6.168,14.776" transform="translate(42.615 8.534)" fill="#f9c2bb"/>
          <path id="패스_21355" data-name="패스 21355" d="M141.079,29.647c-3.332,16.072-11.619,39.142,10.6,48.548,19.985,8.456,31.6-3.122,36.671-20.419,3.923-13.369,5.663-33.407-9.355-40.95-13.943-7-30.619-.995-35.8,12.932" transform="translate(43.651 4.433)" fill="#f9c2bb"/>
          <path id="패스_21356" data-name="패스 21356" d="M167.733,7.473c-10.43.886-22.892,6.621-27.557,16.546-8.441,17.95,13.951,8.217,20.382,1.318.222,7.879,6.982,15.042,12.775,19.6,1.922,1.522,19.321,11.775,19.5,11.6,18.327-17.7-1.84-51.026-25.1-49.064" transform="translate(44.137 2.358)"/>
          <path id="패스_21357" data-name="패스 21357" d="M155.434,37.92l-5.613,4.24,4.267,2.684" transform="translate(47.814 12.102)" fill="none" stroke="#222a2c" stroke-linecap="round" stroke-linejoin="round" stroke-width="1.3"/>
          <path id="패스_21358" data-name="패스 21358" d="M148.7,37.844c-.065,1.357-.939,2.37-1.952,2.264a2.345,2.345,0,0,1-1.735-2.62c.061-1.352.941-2.368,1.959-2.266a2.357,2.357,0,0,1,1.728,2.622" transform="translate(46.279 11.238)" fill="#222a2c"/>
          <path id="패스_21359" data-name="패스 21359" d="M164.162,40.243c-.062,1.36-.939,2.37-1.951,2.266a2.338,2.338,0,0,1-1.732-2.624c.059-1.349.939-2.361,1.958-2.266a2.358,2.358,0,0,1,1.725,2.624" transform="translate(51.214 12.004)" fill="#222a2c"/>
          <path id="패스_21360" data-name="패스 21360" d="M146.672,46.614c6.841,1.995,10.649,2.8,15.764,4.041-3.46,16.312-18.98,16.359-15.335-3.2" transform="translate(46.77 14.876)" fill="none" stroke="#222a2c" stroke-linecap="round" stroke-linejoin="round" stroke-width="1"/>
          <path id="패스_21361" data-name="패스 21361" d="M176.3,41.283c8.366-3.216,11.626,5.605,6.733,11.017-2.928,3.235-10.407,6.055-11.966.009a8.516,8.516,0,0,1-.247-2.34" transform="translate(54.515 12.956)" fill="#f9c2bb"/>
          <line id="선_367" data-name="선 367" y1="3.033" x2="3.93" transform="translate(231.328 59.643)" fill="none" stroke="#222a2c" stroke-linecap="round" stroke-linejoin="round" stroke-width="0.75"/>
          <path id="패스_21362" data-name="패스 21362" d="M28.609,222.618h96.043L96.043,86.563H0Z" transform="translate(0 27.626)" fill="gray"/>
          <path id="패스_21363" data-name="패스 21363" d="M138.836,196.8c-17.617,2.079-34.213,3.737-46.634,5.621-9.508,1.43-24.878,5.457-34.269,3.246-8.142-1.921-11.3-10.908-2.145-14.629-9.159.76-11.814-11.688-3.018-13.834-1.811.438-6.77-2.331-7.857-4.24-2.794-4.947.224-6.86,4.132-10.041-4.443,3.608-5.2-5.436-4.3-7.923,5.233-14.5,39.218-6.648,50.334-10.314-1.153-6.188-3.539-11.714-2.339-18.682,3.274.194,37.536,10.176,37.3,8.528Z" transform="translate(13.986 40.212)" fill="#f9c2bb"/>
          <line id="선_368" data-name="선 368" y1="3.927" x2="21.267" transform="translate(63.03 199.204)" fill="none" stroke="#222a2c" stroke-linecap="round" stroke-linejoin="round" stroke-width="1"/>
          <line id="선_369" data-name="선 369" y1="4.85" x2="22.267" transform="translate(64.803 212.232)" fill="none" stroke="#222a2c" stroke-linecap="round" stroke-linejoin="round" stroke-width="1"/>
          <line id="선_370" data-name="선 370" y1="4.715" x2="21.585" transform="translate(67.186 226.919)" fill="none" stroke="#222a2c" stroke-linecap="round" stroke-linejoin="round" stroke-width="1"/>
          <path id="패스_21364" data-name="패스 21364" d="M10.908,94.681h71.23l7.915,41.55" transform="translate(3.481 30.216)" fill="none" stroke="#0c0c0c" stroke-miterlimit="10" stroke-width="1"/>
          <path id="패스_21365" data-name="패스 21365" d="M236.4,140.95c12.743-9.933,9.458-31.626,2.638-44.851" transform="translate(75.447 30.669)" fill="none" stroke="#000" stroke-miterlimit="10" stroke-width="1"/>
          <path id="패스_21366" data-name="패스 21366" d="M240.4,147.035c13.995-5.484,17.207-23.714,13.191-36.936" transform="translate(76.723 35.137)" fill="none" stroke="#000" stroke-miterlimit="10" stroke-width="1"/>
        </g>
      </g>
      <g id="그룹_14926" data-name="그룹 14926" transform="translate(98.572 68.111)">
        <g id="그룹_14925" data-name="그룹 14925" clip-path="url(#clip-path-3)">
          <path id="패스_21367" data-name="패스 21367" d="M101.882,83.292c-4.932,16.572.462,37.237,4.523,53.194,7.611,29.9,19.778,59.082,41.578,81.489,8.57,8.808,21.249,25.847,34.412,21.014,11.6-4.258,18.525-23.487,19.595-34.493,2.393-24.667-3.076-41.742-11.517-64.873-4.048-11.1-7.151-39.734-24.678-37.883-13.385,1.417-13.029,15.977-12.272,26.341,1.3,17.8,34.952,115.96,70.775,90.253,12.19-8.747,13.9-38.788,14.873-53.085,1.467-21.485,1.605-46.056-1.323-67.537-1.9-13.918-2.374-33.889-14.79-42.168-24.857-16.57-6.407,75.878-2.158,86.972,6.3,16.439,12.635,33.322,26.511,45.233,16.36,14.04,41.988,17.522,49.705-5.522" transform="translate(-66.687 -51.018)" fill="none" stroke="#fff" stroke-miterlimit="10" stroke-width="1"/>
        </g>
      </g>
      <g id="그룹_14928" data-name="그룹 14928">
        <g id="그룹_14927" data-name="그룹 14927" clip-path="url(#clip-path-2)">
          <path id="패스_21369" data-name="패스 21369" d="M118.927,191.3S226.882,169.527,233.9,153.116" transform="translate(37.954 48.866)" fill="none" stroke="#21122d" stroke-miterlimit="10" stroke-width="1"/>
          <path id="패스_21370" data-name="패스 21370" d="M108.481,142.831s72.4-26.6,77.3-43.761" transform="translate(34.621 31.617)" fill="none" stroke="#21122d" stroke-miterlimit="10" stroke-width="1"/>
          <path id="패스_21371" data-name="패스 21371" d="M143.115,140.68a157.787,157.787,0,0,0,17.239-14.914c-1.791,2.653-.729,3.947.037,7.271,7.644,9.126,30.595-19.866,27.743-28.343-.727-2.158-1.762-10.194-8.487-8.689,2.736-3.2-.247-11.521-4.74-8.61,2.336-4.621,16.207-9.246,24.842-21.764,3.151-4.571-1.845-15.173-10.176-9.854-8,5.1-21.49,11.959-32.931,19.988-4.1-3.761-5.135-20.42-15.823-20.407-13.268.018-4.908,14.069-6.429,19.15-2.476,8.257-11.647,19.456-25.214,28.354Z" transform="translate(34.842 17.335)" fill="#f9c2bb"/>
          <line id="선_371" data-name="선 371" y1="12.335" x2="14.388" transform="translate(196.218 130.931)" fill="#fff"/>
          <line id="선_372" data-name="선 372" y1="12.335" x2="14.388" transform="translate(196.218 130.931)" fill="none" stroke="#222a2c" stroke-linecap="round" stroke-linejoin="round" stroke-width="1.5"/>
          <line id="선_373" data-name="선 373" y1="6.398" x2="7.465" transform="translate(209.237 112.885)" fill="#fff"/>
          <line id="선_374" data-name="선 374" y1="6.398" x2="7.465" transform="translate(209.237 112.885)" fill="none" stroke="#222a2c" stroke-linecap="round" stroke-linejoin="round" stroke-width="1.5"/>
          <line id="선_375" data-name="선 375" y1="5.481" x2="7.538" transform="translate(204.441 103.523)" fill="#fff"/>
          <line id="선_376" data-name="선 376" y1="5.481" x2="7.538" transform="translate(204.441 103.523)" fill="none" stroke="#222a2c" stroke-linecap="round" stroke-linejoin="round" stroke-width="1.5"/>
        </g>
      </g>
    </g>
  </g>
</svg>
