<svg id="icon_pw" xmlns="http://www.w3.org/2000/svg" width="20" height="20" viewBox="0 0 20 20">
  <rect id="lock-off_Background_" data-name="lock-off (Background)" width="20" height="20" fill="none" opacity="0"/>
  <path id="lock-off" d="M13.125,15.625H.626A.626.626,0,0,1,0,15V6.251a.626.626,0,0,1,.626-.626H2.5V4.375a4.375,4.375,0,0,1,8.75,0H10a3.125,3.125,0,1,0-6.25,0v1.25h9.376a.626.626,0,0,1,.624.626V15A.626.626,0,0,1,13.125,15.625ZM1.25,6.875v7.5H12.5v-7.5Zm8.125,5h-5V10.625h5v1.25Z" transform="translate(3.125 1.875)" fill="#999"/>
</svg>
