<svg id="download" xmlns="http://www.w3.org/2000/svg" width="16" height="16" viewBox="0 0 16 16">
  <g id="edit-1" opacity="0.9">
    <rect id="edit-1_Background_" data-name="edit-1 (Background)" width="16" height="16" fill="none"/>
    <path id="edit-1-2" data-name="edit-1" d="M13,13H6.5V12H13v1ZM.3,12.839a.3.3,0,0,1-.293-.359L.729,8.868l7.3-7.3L11.27,4.813l-7.3,7.3-3.613.723A.3.3,0,0,1,.3,12.839ZM8.026,2.984h0L1.65,9.36l-.457,2.287,2.287-.457L9.855,4.813,8.026,2.984ZM13,11H9V10h4v1Zm-.868-7.05h0L8.888.707,9.6,0l3.244,3.244-.707.706Z" transform="translate(2 1)"/>
  </g>
</svg>
