<svg id="구성_요소_741_1" data-name="구성 요소 741 – 1" xmlns="http://www.w3.org/2000/svg" width="24" height="24" viewBox="0 0 24 24">
  <rect id="call_Background_" data-name="call (Background)" width="24" height="24" fill="none"/>
  <path id="call" d="M13.46,17.834c-2.689,0-5.638-1.359-8.529-3.931A15.319,15.319,0,0,1,.488,7.275,9.623,9.623,0,0,1,0,4.4,4.643,4.643,0,0,1,.72,1.735,5.6,5.6,0,0,1,3.347.1,1.5,1.5,0,0,1,5.1.635L7.6,4.171a1.5,1.5,0,0,1-.135,1.9L7.14,6.4l-.394.381a2.317,2.317,0,0,0-.247.283c-.02.262.124,1.067,1.885,2.868l.426.4c.919.847,1.383,1.162,1.713,1.162a.618.618,0,0,0,.364-.131l.134-.11c.144-.109.513-.367,1.318-.919a1.5,1.5,0,0,1,1.547-.093l.364.192c2.339,1.249,3.628,2.09,3.744,2.956L18,13.5a4.6,4.6,0,0,1-.775,2.64l-.19.251a3.054,3.054,0,0,1-1.47,1.124A4.906,4.906,0,0,1,14.2,17.8C13.957,17.822,13.708,17.834,13.46,17.834ZM3.876,1.5A4.7,4.7,0,0,0,1.942,2.607,3.165,3.165,0,0,0,1.5,4.4a8.143,8.143,0,0,0,.418,2.421,13.8,13.8,0,0,0,4.011,5.961c2.612,2.324,5.214,3.552,7.525,3.552.2,0,.4-.009.591-.027l.387-.049a2.588,2.588,0,0,0,.608-.146,1.618,1.618,0,0,0,.8-.622,3.034,3.034,0,0,0,.654-1.711l.006-.252s0,.007-.01.007A7.9,7.9,0,0,1,15.4,12.89c-.59-.377-1.325-.847-1.861-1.133l-.356-.189L12,12.383a.2.2,0,0,1-.035.022,2.235,2.235,0,0,1-1.394.562C9.738,12.967,8.8,12.4,7.33,11,5.71,9.342,4.926,7.983,5,6.961a2,2,0,0,1,.753-1.3c.142-.136.291-.283.433-.426l.187-.194Z" transform="translate(3 3.082)" fill="rgba(0,0,0,0.9)"/>
</svg>
