<svg xmlns="http://www.w3.org/2000/svg" xmlns:xlink="http://www.w3.org/1999/xlink" width="497" height="332" viewBox="0 0 497 332">
  <defs>
    <clipPath id="clip-path">
      <rect id="사각형_7730" data-name="사각형 7730" width="497" height="332" transform="translate(1042 414)" fill="#fff"/>
    </clipPath>
    <clipPath id="clip-path-2">
      <rect id="사각형_7729" data-name="사각형 7729" width="348.694" height="338.825" fill="none"/>
    </clipPath>
  </defs>
  <g id="마스크_그룹_23" data-name="마스크 그룹 23" transform="translate(-1042 -414)" clip-path="url(#clip-path)">
    <g id="그룹_14877" data-name="그룹 14877" transform="translate(1175.419 500.291)">
      <g id="그룹_14876" data-name="그룹 14876" clip-path="url(#clip-path-2)">
        <path id="패스_10325" data-name="패스 10325" d="M30.374,108.466c14.776-8.245,33.517-12.877,47.4-14.1,51.195-4.522,91.132,33.011,119.224,71.4,4.848,6.626,61.318,100.641,61.318,100.641L81.347,362.267s-14.9-23.853-32.649-56.292C18.906,251.52-18.924,174.112,10.835,125.744c4.25-6.909,11.267-12.663,19.539-17.278" transform="translate(90.383 -23.442)" fill="#fff"/>
        <line id="선_322" data-name="선 322" x2="21.392" y2="41.657" transform="translate(191.995 262.268)" fill="none" stroke="#222a2c" stroke-linecap="round" stroke-linejoin="round" stroke-width="2.5"/>
        <line id="선_323" data-name="선 323" x2="11.26" y2="38.279" transform="translate(135.702 111.405)" fill="none" stroke="#222a2c" stroke-linecap="round" stroke-linejoin="round" stroke-width="2.5"/>
        <path id="패스_10326" data-name="패스 10326" d="M292.8,103.425l-9.006,47.285L269.155,132.7l-13.509,24.768-7.881-25.894" transform="translate(-130.076 -25.794)" fill="none" stroke="#222a2c" stroke-linecap="round" stroke-linejoin="round" stroke-width="2.5"/>
        <path id="패스_10327" data-name="패스 10327" d="M343.574,161.949c-2.241-7.613-3.84-14.181-4.019-14.586-4.8-11.161-12.167-53.251-12.434-58.863-.148-3.086.092-6.552,3.495-7.792,4.314-1.578,7.82,2.343,8.347,6.385-1-12.792,14.891-10.388,13.146-.881,1.039-5.684,8.248-8.627,11.841-3.257.751,1.126.341,3.454,1.729,3.983,2.027.754,3.637-1.11,5.668.834,1.789,1.7,1.094,4.511,1.64,6.671,1.714,6.809,1.9,10.681,3,16.3,1.146,5.808,2.918,11.422,4.289,17.179.663,2.787,3.9,15.491,6.775,17.877,7.057-6.892,13.31-13.406,15.408-14.688,5.545-3.406,9.027-3.176,11.343,3.524,1.939,5.62-11.972,21.025-31.328,38.911Z" transform="translate(-310.798 -19.523)" fill="#ebaeae"/>
        <path id="패스_10328" data-name="패스 10328" d="M416.087,85.54c-.974,8.759,5.159,33.881,7.9,37.749" transform="translate(-387.53 -21.334)" fill="none" stroke="#222a2c" stroke-linecap="round" stroke-linejoin="round" stroke-width="2"/>
        <path id="패스_10329" data-name="패스 10329" d="M399.38,86.676c-.966,8.756,5.168,33.887,7.905,37.751" transform="translate(-358.289 -21.617)" fill="none" stroke="#222a2c" stroke-linecap="round" stroke-linejoin="round" stroke-width="2"/>
        <path id="패스_10330" data-name="패스 10330" d="M388.3,88.751c-.6,5.39.628,17.412,3.375,26.233" transform="translate(-334.325 -22.135)" fill="none" stroke="#222a2c" stroke-linecap="round" stroke-linejoin="round" stroke-width="2"/>
        <path id="패스_10331" data-name="패스 10331" d="M363.9,159.185c8.658-4.477,23.126-4.216,28.53,5.231" transform="translate(-316.88 -38.999)" fill="none" stroke="#222a2c" stroke-linecap="round" stroke-linejoin="round" stroke-width="2"/>
        <path id="패스_10332" data-name="패스 10332" d="M389.62,177.832c.484,1-62.329,57.738-68.252,61.028-17.728,9.845-42.5,48.851-36.832,69.653,15.3,56.2,105.353-5.028,126.3-24.533-6.794-13.377-14.8-92.911-21.219-106.148" transform="translate(-275.099 -44.352)" fill="#fff"/>
        <path id="패스_10333" data-name="패스 10333" d="M411.259,278.966s14.826-51.9,25.228-83.826c.4,1.512-61.52-11.308-61.52-11.308-9.007,36.029-58.547,151.621,24.019,148.618" transform="translate(-352.02 -45.848)" fill="#fff"/>
        <path id="패스_10334" data-name="패스 10334" d="M241.388,68.678c3.427,7.683,9.456,12.777,14.241,6.072,5.476-7.654,2.852-32.183-10.373-28.695-8.191,2.157-7.667,14.011-3.869,22.623" transform="translate(-88.817 -11.402)" fill="#ebb4b4"/>
        <path id="패스_10335" data-name="패스 10335" d="M308.69,105.355c-22.017,16.628-41.443,5.3-53.052-15.39-8.958-15.976-17.1-41.164-.063-55.26,8.607-7.121,21.738-9.358,32.56-7.645,19.629,3.109,29.222,28.363,32.415,44.807,2.558,13.166-.9,25.205-11.86,33.487" transform="translate(-157.025 -6.612)" fill="#ebb4b4"/>
        <path id="패스_10336" data-name="패스 10336" d="M297.71,11.305c8.947-2.195,16.057-3.669,16.123.459-.171-12.082,16.678-15.416,23.319-7.387,7.538,9.118,4.432,26.729-4.237,32.726-9.1,6.3-28.518,1.762-36.792,10.245-8.121,8.318,8.324,47.094-17.969,32.03-16.383-9.391-18.813-37.11-10.027-52.271,2.28-3.92,10.8-11.193,29.584-15.8" transform="translate(-190.218 0)"/>
        <path id="패스_10337" data-name="패스 10337" d="M277.576,78.943l8.449,3.791-4.685,4.693" transform="translate(-145.679 -19.689)" fill="none" stroke="#222a2c" stroke-linecap="round" stroke-linejoin="round" stroke-width="2.5"/>
        <path id="패스_10338" data-name="패스 10338" d="M268.865,72.784c.475,1.719,1.891,2.758,3.171,2.319,1.285-.42,1.924-2.15,1.445-3.863s-1.9-2.757-3.18-2.334c-1.262.441-1.924,2.175-1.436,3.878" transform="translate(-126.635 -17.162)" fill="#222a2c"/>
        <path id="패스_10339" data-name="패스 10339" d="M302.464,86.193c.477,1.728,1.909,2.758,3.174,2.331,1.281-.426,1.934-2.159,1.447-3.873s-1.9-2.749-3.176-2.331c-1.27.444-1.927,2.173-1.446,3.873" transform="translate(-185.463 -20.508)" fill="#222a2c"/>
        <path id="패스_10340" data-name="패스 10340" d="M338.8,89.15c-20.589-11.813-27.864,7.225-18.341,17.813,5.69,6.327,20.257,11.88,23.334.078a15.8,15.8,0,0,0,.506-4.56" transform="translate(-233.045 -21.302)" fill="#ebb4b4"/>
        <line id="선_324" data-name="선 324" x1="7.667" y1="5.944" transform="translate(91.899 74.711)" fill="none" stroke="#222a2c" stroke-linecap="round" stroke-linejoin="round" stroke-width="2.5"/>
        <path id="패스_10341" data-name="패스 10341" d="M286.369,100.513c-1.494,10.238-15.592,11.642-20.283,6.691" transform="translate(-137.399 -25.068)" fill="none" stroke="#222a2c" stroke-linecap="round" stroke-linejoin="round" stroke-width="2.5"/>
        <path id="패스_10342" data-name="패스 10342" d="M321.064,212.254a32.609,32.609,0,0,1-10.556-6.434,108.993,108.993,0,0,1-13.908-16.75c-6.077-8.753-19.192-65.355-19.735-70.048-.173-1.5-.336-3.564.707-4.739.625-.7,5.232-2.142,5.594-.922-2.495-8.368,10.62-4.3,10.707-4.458,2.365-4.247,4.307-3.95,8.144-2.359-1.714-6.436,6.037-5.691,13.77,9.772,6.837,13.677,25.008,55.172,29.243,62.5" transform="translate(-204.055 -25.621)" fill="#f4cece"/>
        <path id="패스_10343" data-name="패스 10343" d="M337.383,117.408c7.667,17.626,13.345,31.714,17.026,43.668" transform="translate(-258.954 -29.282)" fill="none" stroke="#222a2c" stroke-linecap="round" stroke-linejoin="round" stroke-width="2"/>
        <path id="패스_10344" data-name="패스 10344" d="M323.831,111.444c7.666,17.626,13.344,31.715,17.025,43.668" transform="translate(-235.229 -27.794)" fill="none" stroke="#222a2c" stroke-linecap="round" stroke-linejoin="round" stroke-width="2"/>
        <path id="패스_10345" data-name="패스 10345" d="M311.361,108.733c7.667,17.626,13.346,31.714,17.027,43.668" transform="translate(-213.4 -27.118)" fill="none" stroke="#222a2c" stroke-linecap="round" stroke-linejoin="round" stroke-width="2"/>
        <path id="패스_10346" data-name="패스 10346" d="M95.982,250.744c20.98,24.65,56.212,72.06,92.67,72.6,32.676.488,59.339-64.407,68.587-89.516" transform="translate(19.411 -58.318)" fill="none" stroke="#222a2c" stroke-linecap="round" stroke-linejoin="round" stroke-width="2.5"/>
        <path id="패스_10347" data-name="패스 10347" d="M174.2,185.321l37.675,32.6,27.672-56.969" transform="translate(-21.611 -40.141)" fill="none" stroke="#222a2c" stroke-linecap="round" stroke-linejoin="round" stroke-width="2.5"/>
        <path id="패스_10348" data-name="패스 10348" d="M375.269,16.432c-8.729,4.534-13.187,19.023-13.511,28.146" transform="translate(-298.109 -4.098)" fill="none" stroke="#222a2c" stroke-linecap="round" stroke-linejoin="round" stroke-width="2.5"/>
        <path id="패스_10349" data-name="패스 10349" d="M386.188,25.431c-5.175,9.713-8.365,14.825-7.881,25.894" transform="translate(-321.413 -6.343)" fill="none" stroke="#222a2c" stroke-linecap="round" stroke-linejoin="round" stroke-width="2.5"/>
        <path id="패스_10350" data-name="패스 10350" d="M415.512,389.832c-12.1,8.322-24.095,7.832-37.53,4.5" transform="translate(-350.53 -97.225)" fill="none" stroke="#222a2c" stroke-linecap="round" stroke-linejoin="round" stroke-width="2.5"/>
        <path id="패스_10351" data-name="패스 10351" d="M434.5,407.837c-10.59,3.19-20.706,1.347-28.523-6" transform="translate(-390.54 -100.217)" fill="none" stroke="#222a2c" stroke-linecap="round" stroke-linejoin="round" stroke-width="2.5"/>
      </g>
    </g>
  </g>
</svg>
