<svg id="icon_지하철" xmlns="http://www.w3.org/2000/svg" xmlns:xlink="http://www.w3.org/1999/xlink" width="40" height="40" viewBox="0 0 40 40">
  <defs>
    <clipPath id="clip-path">
      <rect id="사각형_8181" data-name="사각형 8181" width="40" height="40" fill="none"/>
    </clipPath>
  </defs>
  <line id="선_606" data-name="선 606" x2="7.046" y2="16.655" transform="translate(25.941 18.24)" fill="#fff"/>
  <g id="그룹_15951" data-name="그룹 15951">
    <g id="그룹_15950" data-name="그룹 15950" clip-path="url(#clip-path)">
      <path id="패스_54039" data-name="패스 54039" d="M49.476,53.778a.77.77,0,0,1-.709-.47L44.431,43.06a.77.77,0,1,1,1.417-.6l4.336,10.249a.769.769,0,0,1-.409,1.008.758.758,0,0,1-.3.061" transform="translate(-17.065 -16.15)" fill="#444"/>
      <line id="선_607" data-name="선 607" y1="10.249" x2="4.336" transform="translate(7.59 26.609)" fill="#fff"/>
      <path id="패스_54040" data-name="패스 54040" d="M11.852,53.778a.758.758,0,0,1-.3-.061.769.769,0,0,1-.409-1.008L15.48,42.46a.769.769,0,1,1,1.417.6L12.56,53.308a.77.77,0,0,1-.709.47" transform="translate(-4.263 -16.15)" fill="#444"/>
      <path id="패스_54041" data-name="패스 54041" d="M37.154,29.926H12.333V9.632A4.528,4.528,0,0,1,16.86,5.105H32.627a4.528,4.528,0,0,1,4.527,4.527Z" transform="translate(-4.743 -1.963)" fill="#fff"/>
      <path id="패스_54042" data-name="패스 54042" d="M36.673,30.215H11.852a.77.77,0,0,1-.769-.769V9.152a5.3,5.3,0,0,1,5.3-5.3H32.146a5.3,5.3,0,0,1,5.3,5.3V29.446a.77.77,0,0,1-.769.769M12.621,28.676H35.9V9.152a3.762,3.762,0,0,0-3.758-3.758H16.379a3.762,3.762,0,0,0-3.758,3.758Z" transform="translate(-4.263 -1.483)" fill="#444"/>
      <path id="패스_54043" data-name="패스 54043" d="M18.833,19.626v-6.57a1.45,1.45,0,0,1,1.45-1.45H34.2a1.451,1.451,0,0,1,1.45,1.45v6.571Z" transform="translate(-7.243 -4.463)" fill="#8cd8ee"/>
      <path id="패스_54044" data-name="패스 54044" d="M35.173,19.914H18.352a.77.77,0,0,1-.769-.769v-6.57a2.222,2.222,0,0,1,2.22-2.22h13.92a2.222,2.222,0,0,1,2.219,2.219v6.571a.77.77,0,0,1-.769.769M19.121,18.376H34.4v-5.8a.681.681,0,0,0-.681-.681H19.8a.682.682,0,0,0-.681.681Z" transform="translate(-6.763 -3.983)" fill="#444"/>
      <path id="패스_54045" data-name="패스 54045" d="M22.969,33.928A2.067,2.067,0,1,1,20.9,31.86a2.068,2.068,0,0,1,2.068,2.068" transform="translate(-7.244 -12.254)" fill="#fff"/>
      <path id="패스_54046" data-name="패스 54046" d="M20.42,36.285a2.837,2.837,0,1,1,2.837-2.838,2.84,2.84,0,0,1-2.837,2.838m0-4.135a1.3,1.3,0,1,0,1.3,1.3,1.3,1.3,0,0,0-1.3-1.3" transform="translate(-6.763 -11.773)" fill="#444"/>
      <path id="패스_54047" data-name="패스 54047" d="M43.582,33.928a2.068,2.068,0,1,1-2.068-2.068,2.068,2.068,0,0,1,2.068,2.068" transform="translate(-15.172 -12.254)" fill="#fff"/>
      <path id="패스_54048" data-name="패스 54048" d="M41.034,36.285a2.837,2.837,0,1,1,2.836-2.838,2.84,2.84,0,0,1-2.836,2.838m0-4.135a1.3,1.3,0,1,0,1.3,1.3,1.3,1.3,0,0,0-1.3-1.3" transform="translate(-14.692 -11.773)" fill="#444"/>
      <line id="선_608" data-name="선 608" x2="22.596" transform="translate(8.702 31.238)" fill="#fff"/>
      <path id="패스_54049" data-name="패스 54049" d="M36.256,51.05H13.66a.769.769,0,1,1,0-1.538h22.6a.769.769,0,1,1,0,1.538" transform="translate(-4.958 -19.043)" fill="#444"/>
      <line id="선_609" data-name="선 609" x1="24.821" transform="translate(7.589 34.54)" fill="#fff"/>
      <path id="패스_54050" data-name="패스 54050" d="M36.673,56.415H11.852a.769.769,0,1,1,0-1.538H36.673a.769.769,0,1,1,0,1.538" transform="translate(-4.263 -21.107)" fill="#444"/>
    </g>
  </g>
</svg>
