<svg xmlns="http://www.w3.org/2000/svg" xmlns:xlink="http://www.w3.org/1999/xlink" width="320" height="295" viewBox="0 0 320 295">
  <defs>
    <clipPath id="clip-path">
      <rect id="사각형_7801" data-name="사각형 7801" width="320" height="295" transform="translate(1659 566)" fill="none"/>
    </clipPath>
    <clipPath id="clip-path-2">
      <rect id="사각형_8127" data-name="사각형 8127" width="292.472" height="458.282" fill="none"/>
    </clipPath>
  </defs>
  <g id="마스크_그룹_29" data-name="마스크 그룹 29" transform="translate(-1659 -566)" clip-path="url(#clip-path)">
    <g id="그룹_15891" data-name="그룹 15891" transform="translate(1677.763 602)">
      <g id="그룹_15890" data-name="그룹 15890" transform="translate(-0.001)" clip-path="url(#clip-path-2)">
        <path id="패스_52364" data-name="패스 52364" d="M388.907,126.254c11.231-20,18.615-36.5,15.5-40.629-3.717-4.926-6.662-4.181-10.338.127-1.394,1.624-4.824,8.7-8.819,16.3-3.016-1.208-9.111-10.856-10.406-12.988-2.68-4.4-5.657-8.57-8.162-13.073-2.417-4.36-3.609-7.515-6.855-12.693-1.03-1.643-1.212-4.157-3.148-5.084-2.2-1.066-3.038.91-4.917.828-1.293-.062-1.577-2.1-2.5-2.832-4.414-3.482-9.6.891-8.929,5.875-1.108-8.341-14.915-6.067-10.651,4.258-1.52-3.208-5.476-5.512-8.626-3.05-2.484,1.942-1.753,4.875-.8,7.392,1.729,4.575,19.122,37.453,26.094,45.408.254.286,3.339,5.3,7.238,11" transform="translate(-319.367 -19.385)" fill="#f9c2bb"/>
        <path id="패스_52365" data-name="패스 52365" d="M427.468,97.439a.486.486,0,0,0,.291-.875c-3.271-2.44-15.006-21.64-16.488-28.849a.486.486,0,0,0-.951.2c1.557,7.568,13.42,26.865,16.859,29.432a.493.493,0,0,0,.29.1" transform="translate(-401.058 -23.749)" fill="#222a2c"/>
        <path id="패스_52366" data-name="패스 52366" d="M411.077,93.332a.485.485,0,0,0,.291-.874c-3.269-2.442-15-21.643-16.49-28.849a.485.485,0,1,0-.951.2c1.562,7.566,13.424,26.864,16.86,29.431a.486.486,0,0,0,.29.1" transform="translate(-374.057 -22.3)" fill="#222a2c"/>
        <path id="패스_52367" data-name="패스 52367" d="M397.676,81.662a.486.486,0,0,0,.4-.766c-4.579-6.481-8.815-16.079-9.754-20.638a.485.485,0,1,0-.95.2c.957,4.654,5.264,14.424,9.911,21a.484.484,0,0,0,.4.205" transform="translate(-356.411 -21.119)" fill="#222a2c"/>
        <path id="패스_52368" data-name="패스 52368" d="M351.053,128.615a.483.483,0,0,0,.346-.144c5.416-5.475,17.209-9.8,24.357-3.307a.485.485,0,0,0,.652-.718c-7.592-6.9-20.015-2.4-25.7,3.342a.486.486,0,0,0,.345.827" transform="translate(-311.004 -42.664)" fill="#222a2c"/>
        <path id="패스_52369" data-name="패스 52369" d="M368.143,204.163l-19.5-59.888-48.991,17.167C307.5,187.679,315.068,261.889,350.1,265.97" transform="translate(-269.623 -50.891)" fill="#848484"/>
        <path id="패스_52370" data-name="패스 52370" d="M156.763,102.448q-1.753-.246-3.385-.485c-18.76-2.833-39.347-4.082-49.837,15.357-7.787,14.425-15.758,29.909-21.228,45.343-12.041,33.891-13.66,95.717-13.161,127.811l148.35-1.421s7.829-114.269-19.056-150.1c-4.108-5.475-7-21.822-11.721-26.423-7.149-6.974-19.9-8.673-29.962-10.082" transform="translate(29.2 -35.398)" fill="#fff"/>
        <path id="패스_52371" data-name="패스 52371" d="M177.853,128.574,173.16,140.7l7.431,28.942-9.778,43.022L157.125,166.9l10.56-26.2-4.172-10.43,8.082-4.432Z" transform="translate(10.18 -44.387)" fill="#436ca8"/>
        <path id="패스_52372" data-name="패스 52372" d="M206.66,250.327c4.5.724,6.779,3.816,11.5,2.908,33.136-6.383,59.571-48.967,70.3-78.147,2.739-7.449,4.388-12.847,4.242-20.714-.171-9.143-13.005-48.431-13.037-48.5-.406-.83-22.16,13.435-23.685,14.4-29.58,18.819-39.934,49.753-39.934,83.372" transform="translate(-134.003 -37.334)" fill="#848484"/>
        <path id="패스_52373" data-name="패스 52373" d="M255.824,200.684l1.376,77.958-86.565,1.043c-.426-33.229-1.408-132.128,10.691-148.621,6.916-9.43,30.751-20.565,44.586-29.2,1.7-1.062,22.2,82.346,29.913,98.824" transform="translate(-75.033 -35.926)" fill="#848484"/>
        <path id="패스_52374" data-name="패스 52374" d="M61.834,582.011l155.725,1.295-.45-223.507L64.624,361.924Z" transform="translate(34.891 -126.914)" fill="#4f4f4f"/>
        <path id="패스_52375" data-name="패스 52375" d="M99.512,259.691a31.73,31.73,0,0,1-12.381-.373c-33.137-6.383-59.571-48.967-70.3-78.149-6.529-17.755,12.016-54.59,15.468-66.9,34.616,6.054,62.177,53.8,73.91,76.092" transform="translate(176.267 -40.306)" fill="#848484"/>
        <path id="패스_52376" data-name="패스 52376" d="M61.653,205.3l1.3,79.787L127.75,283c.427-33.229,13.664-130.562,1.565-147.056-6.916-9.43-30.116-21.772-44.978-27.638-1.865-.737-14.969,80.516-22.683,97" transform="translate(118.167 -38.203)" fill="#848484"/>
        <path id="패스_52377" data-name="패스 52377" d="M152.525,127.213a.487.487,0,0,0,.22-.052l17.158-8.723,12.672,5.605a.486.486,0,0,0,.678-.386l2.086-17.208a.485.485,0,0,0-.964-.117l-2.007,16.557-12.284-5.432a.488.488,0,0,0-.416.01l-16.826,8.554-5.583-21.32a.485.485,0,0,0-.939.247l5.735,21.9a.49.49,0,0,0,.271.32.483.483,0,0,0,.2.042" transform="translate(12.433 -36.804)" fill="#222a2c"/>
        <path id="패스_52378" data-name="패스 52378" d="M172.553,323.819h0a.485.485,0,0,0,.485-.485l-.032-64.826a.485.485,0,0,0-.971,0l.032,64.826a.486.486,0,0,0,.485.485" transform="translate(8.082 -91.014)" fill="#222a2c"/>
        <path id="패스_52379" data-name="패스 52379" d="M219.866,68.462c-.773,5.282-3.712,9.713-8.056,7.043-4.981-3.032-7.9-17.8,1.3-19.1,5.718-.8,7.6,6.159,6.76,12.055" transform="translate(-61.65 -19.875)" fill="#f9c2bb"/>
        <path id="패스_52380" data-name="패스 52380" d="M137.1,35.721C135.657,53.362,131.547,81,155.038,84.409c17.1,2.475,28.34-5.195,31.352-24.369,2.322-14.808,1.773-36.521-13.73-42.756-14.4-5.78-29.985,2.721-33.479,18.289" transform="translate(17.111 -5.455)" fill="#f9c2bb"/>
        <path id="패스_52381" data-name="패스 52381" d="M160.334,3.8C155.413-.355,145.769-.547,140.6.614c-9.842,2.207-16.688,12.949-14.207,22.795,1.638,6.5,8.463,10.925,9.807,17.295-.03-2.163,4.135-17.8,3.891-17.921,5.519,2.7,13.556.984,18.773,3.129,4.366,1.8,6.045,4.863,10.21,7.745,5.866,4.06,15.476,9.6,16.618,17.29-.171-1.151,3.341-5.73,3.906-7.1a36.037,36.037,0,0,0,2.449-9.231c.611-4.863.621-11.488-1.946-15.885-4.956-8.491-18.225-9.635-26.867-10.088a8.253,8.253,0,0,0-2.9-4.84" transform="translate(18.612 0)"/>
        <path id="패스_52382" data-name="패스 52382" d="M183.323,77.471a.647.647,0,0,0,.218-1.257l-2.119-.755,3.016-5.934a.647.647,0,1,0-1.153-.587l-3.35,6.59a.649.649,0,0,0,.36.9l2.812,1a.654.654,0,0,0,.217.038" transform="translate(-8.455 -24.192)" fill="#222a2c"/>
        <path id="패스_52383" data-name="패스 52383" d="M198.3,68.118c.1,1.459-.665,2.647-1.7,2.662-1.048.017-1.961-1.149-2.057-2.6s.664-2.652,1.706-2.673c1.034,0,1.958,1.153,2.049,2.611" transform="translate(-31.756 -23.107)" fill="#222a2c"/>
        <path id="패스_52384" data-name="패스 52384" d="M165.949,69.546c.1,1.46-.674,2.652-1.7,2.666-1.043.023-1.966-1.136-2.059-2.6s.668-2.649,1.706-2.673c1.037,0,1.956,1.161,2.053,2.606" transform="translate(21.541 -23.612)" fill="#222a2c"/>
        <path id="패스_52385" data-name="패스 52385" d="M130.4,72.395c7.8-4.48,11.967,4.579,7.8,10.981-2.489,3.829-9.47,7.781-11.674,1.484a9.812,9.812,0,0,1-.5-2.472" transform="translate(71.058 -25.113)" fill="#f9c2bb"/>
        <path id="패스_52386" data-name="패스 52386" d="M132.731,85.107a.487.487,0,0,0,.355-.153l3.5-3.738a.485.485,0,1,0-.709-.663l-3.5,3.737a.485.485,0,0,0,.354.818" transform="translate(70.16 -28.36)" fill="#222a2c"/>
        <path id="패스_52387" data-name="패스 52387" d="M175.073,97.34a13.647,13.647,0,0,0,9.723-3.865.647.647,0,0,0-.942-.889,12.746,12.746,0,0,1-10.619,3.326,8.283,8.283,0,0,1-6.5-4.379.647.647,0,0,0-1.16.575,9.542,9.542,0,0,0,7.465,5.084,13.791,13.791,0,0,0,2.029.148" transform="translate(0.37 -32.16)" fill="#222a2c"/>
        <path id="패스_52388" data-name="패스 52388" d="M67.076,322.158a.486.486,0,0,0,.485-.478l.97-68a.485.485,0,0,0-.478-.492h-.007a.485.485,0,0,0-.485.478l-.97,68a.486.486,0,0,0,.478.493Z" transform="translate(180.839 -89.307)" fill="#222a2c"/>
        <path id="패스_52389" data-name="패스 52389" d="M214.517,206.5a.48.48,0,0,0,.244-.067.485.485,0,0,0,.175-.663L182.2,149.638l3.451-10.35a.485.485,0,0,0-.2-.563L172.835,130.7l5.781-23.125a.485.485,0,1,0-.942-.235L171.808,130.8a.486.486,0,0,0,.21.527l12.587,8.009-3.4,10.2a.485.485,0,0,0,.041.4L214.1,206.255a.486.486,0,0,0,.42.241" transform="translate(-33.725 -37.732)" fill="#222a2c"/>
        <path id="패스_52390" data-name="패스 52390" d="M193.9,75.055a7.916,7.916,0,1,0-7.917-7.917,7.925,7.925,0,0,0,7.917,7.917m0-14.862a6.945,6.945,0,1,1-6.946,6.945,6.953,6.953,0,0,1,6.946-6.945" transform="translate(-29.723 -20.89)" fill="#222a2c"/>
        <path id="패스_52391" data-name="패스 52391" d="M160.666,75.055a7.916,7.916,0,1,0-7.916-7.917,7.925,7.925,0,0,0,7.916,7.917m0-14.862a6.945,6.945,0,1,1-6.945,6.945,6.953,6.953,0,0,1,6.945-6.945" transform="translate(25.021 -20.89)" fill="#222a2c"/>
        <path id="패스_52392" data-name="패스 52392" d="M136.919,71.853h.038l10.169-.783a.486.486,0,0,0-.074-.968l-10.169.783a.486.486,0,0,0,.037.97" transform="translate(56.59 -24.727)" fill="#222a2c"/>
        <path id="패스_52393" data-name="패스 52393" d="M212.736,66.025a.48.48,0,0,0,.236-.061.485.485,0,0,0,.188-.66l-3.911-7.041a.485.485,0,0,0-.849.471l3.911,7.041a.484.484,0,0,0,.425.25" transform="translate(-55.599 -20.463)" fill="#222a2c"/>
        <path id="패스_52394" data-name="패스 52394" d="M182.169,71.052a.485.485,0,0,0,.313-.856c-2.318-1.953-4.4-1.9-7.218-1.141a.485.485,0,1,0,.251.938c2.625-.7,4.326-.751,6.341.945a.484.484,0,0,0,.313.115" transform="translate(-3.391 -24.186)" fill="#222a2c"/>
        <path id="패스_52395" data-name="패스 52395" d="M123.021,207.269a.486.486,0,0,0,.433-.265l28.16-55.146a.488.488,0,0,0-.021-.478l-7.546-12.074,11.275-6.012a.487.487,0,0,0,.216-.623l-10.17-23.206a.485.485,0,0,0-.889.389l9.989,22.8-11.337,6.045a.486.486,0,0,0-.183.685l7.677,12.283-28.035,54.9a.485.485,0,0,0,.212.653.48.48,0,0,0,.22.053" transform="translate(57.581 -38.509)" fill="#222a2c"/>
        <path id="패스_52396" data-name="패스 52396" d="M262.668,344.9c-2.346,21.9,5.03,43.866-16.466,56.95-10.429,6.346-60.163-3.162-73.366-4.66,1.727-11.71,3.789-46.031,4.572-61.676" transform="translate(-82.065 -118.346)" fill="#848484"/>
        <path id="패스_52397" data-name="패스 52397" d="M48.361,344.9c2.347,21.9-5.029,43.866,16.467,56.95,10.429,6.346,60.163-3.162,73.366-4.66-1.727-11.71-3.789-46.031-4.571-61.676" transform="translate(122.976 -118.346)" fill="#848484"/>
        <path id="패스_52398" data-name="패스 52398" d="M214.217,360.541c-13.534,4.6-26.324,8.689-35.791,12.266-7.258,2.722-25.5,11.1-33.271,10.933-6.737-.146-10.725-6.7-4.142-11.169-7.093,2.139-11.272-7.216-4.709-10.4-1.351.661-5.719-.692-6.895-2.014-3.038-3.423-.975-5.441,1.561-8.6-2.888,3.587-5.071-3.416-4.722-5.526.814-4.7,6.131-6.311,9.905-8.159,9.491-4.608,10.071-4.377,20.1-7.685,0,0-18.253-5.463-14.363-9.561s34.933-2.722,34.933-2.722c4.619-2.205,12.611-1.489,20-4.95Z" transform="translate(-3.437 -110.393)" fill="#f9b7b2"/>
        <path id="패스_52399" data-name="패스 52399" d="M219.081,367.83a.649.649,0,0,0,.243-.047l22.907-9.293a.647.647,0,1,0-.487-1.2l-22.907,9.292a.647.647,0,0,0,.243,1.247" transform="translate(-91.547 -126.012)" fill="#222a2c"/>
        <path id="패스_52400" data-name="패스 52400" d="M212.314,383.862a.641.641,0,0,0,.256-.053l23.542-10.185a.647.647,0,0,0-.514-1.188l-23.542,10.185a.647.647,0,0,0,.257,1.241" transform="translate(-81.034 -131.353)" fill="#222a2c"/>
        <path id="패스_52401" data-name="패스 52401" d="M206.433,401.083a.641.641,0,0,0,.256-.053l23.03-9.964a.647.647,0,0,0-.514-1.188l-23.03,9.964a.647.647,0,0,0,.257,1.241" transform="translate(-70.834 -137.505)" fill="#222a2c"/>
        <path id="패스_52402" data-name="패스 52402" d="M81.163,188.923c18,19.521,38.418,55.322,25.031,82.915C90.846,303.473,53.9,316.035,22.856,321.7,18.514,314.423,0,268.318,0,268.318s26.986-11.732,50.451-24.639" transform="translate(181.964 -66.64)" fill="#848484"/>
        <path id="패스_52403" data-name="패스 52403" d="M182.237,612.6a.485.485,0,0,0,.485-.48l1.926-174.145a.485.485,0,0,0-.48-.491.477.477,0,0,0-.491.48l-1.926,174.145a.486.486,0,0,0,.48.491Z" transform="translate(-9.817 -154.315)" fill="#222a2c"/>
        <path id="패스_52404" data-name="패스 52404" d="M52.929,384.286a.483.483,0,0,0,.159-.027l53.222-18.345a.485.485,0,0,0-.316-.918L52.772,383.342a.485.485,0,0,0,.157.944" transform="translate(151.89 -128.738)" fill="#222a2c"/>
        <path id="패스_52405" data-name="패스 52405" d="M75.891,282.789a.474.474,0,0,0,.175-.033l58.666-22.685a.484.484,0,0,0,.311-.452V222.855a.485.485,0,0,0-.971,0v36.431L75.715,281.852a.485.485,0,0,0,.175.938" transform="translate(108.623 -78.438)" fill="#222a2c"/>
        <path id="패스_52406" data-name="패스 52406" d="M276.8,320.756a.472.472,0,0,0,.08-.007c5.949-.991,14.926-8.049,26.68-20.978a.486.486,0,0,0-.719-.654c-11.44,12.585-20.473,19.733-26.121,20.674a.486.486,0,0,0,.079.964" transform="translate(-190.064 -105.454)" fill="#222a2c"/>
        <path id="패스_52407" data-name="패스 52407" d="M312.757,217.663a.486.486,0,0,0,.483-.445l2.346-28.161a.486.486,0,1,0-.968-.081l-2.347,28.161a.485.485,0,0,0,.444.524l.041,0" transform="translate(-225.237 -66.502)" fill="#222a2c"/>
        <path id="패스_52408" data-name="패스 52408" d="M225.65,225.732h32.331a.485.485,0,1,0,0-.971H225.65a.485.485,0,1,0,0,.971" transform="translate(-111.736 -79.281)" fill="#222a2c"/>
        <path id="패스_52409" data-name="패스 52409" d="M241.122,207.594h8.616a.485.485,0,0,0,.461-.336l2.663-8.194a.486.486,0,0,0-.177-.542l-6.97-5.065a.486.486,0,0,0-.571,0l-6.97,5.065a.484.484,0,0,0-.176.542l2.662,8.194a.485.485,0,0,0,.462.336m8.263-.971h-7.91l-2.444-7.523,6.4-4.651,6.4,4.651Z" transform="translate(-114.445 -68.207)" fill="#222a2c"/>
        <path id="패스_52410" data-name="패스 52410" d="M89.865,128.445l.767-.6c-6.053-7.794-22.153-22.307-32.693-23.486l-.108.964c10.268,1.149,26.072,15.44,32.034,23.117" transform="translate(164.409 -36.813)" fill="#21122d"/>
        <path id="패스_52411" data-name="패스 52411" d="M85.2,112.175l.63-.739-.1-.086c-5.932-5.065-12.066-10.3-19.468-12.946l-.327.913c7.233,2.585,13.3,7.763,19.164,12.771Z" transform="translate(163.961 -34.711)" fill="#21122d"/>
      </g>
    </g>
  </g>
</svg>
