<svg id="그룹_16569" data-name="그룹 16569" xmlns="http://www.w3.org/2000/svg" xmlns:xlink="http://www.w3.org/1999/xlink" width="100" height="23" viewBox="0 0 100 23">
  <defs>
    <linearGradient id="linear-gradient" x1="1.078" y1="1.096" x2="0" y2="0.11" gradientUnits="objectBoundingBox">
      <stop offset="0" stop-color="#0075bf"/>
      <stop offset="1" stop-color="#46cbd8"/>
    </linearGradient>
  </defs>
  <path id="패스_57351" data-name="패스 57351" d="M11.5,1a10.5,10.5,0,0,0,0,21h77a10.5,10.5,0,0,0,0-21h-77m0-1h77a11.5,11.5,0,0,1,0,23h-77a11.5,11.5,0,0,1,0-23Z" fill="url(#linear-gradient)"/>
  <rect id="location_Background_" data-name="location (Background)" width="14" height="14" transform="translate(4 5)" fill="none" opacity="0"/>
  <path id="location" d="M4.386,11.885a.383.383,0,0,1-.317-.167L.759,6.856a4.387,4.387,0,1,1,7.253,0L4.7,11.718A.383.383,0,0,1,4.386,11.885Zm0-11.01a3.512,3.512,0,0,0-2.9,5.488l2.9,4.265,2.9-4.265A3.512,3.512,0,0,0,4.386.875Zm0,5.62A2.187,2.187,0,1,1,6.574,4.308,2.19,2.19,0,0,1,4.386,6.5Zm0-3.5A1.312,1.312,0,1,0,5.7,4.308,1.314,1.314,0,0,0,4.386,3Z" transform="translate(6.614 5.941)" fill="url(#linear-gradient)"/>
  <path id="패스_57350" data-name="패스 57350" d="M6.912-4.956A3.462,3.462,0,0,1,4.38-8.2V-9.36H3.132v1.068A3.788,3.788,0,0,1,.5-4.668l.66.984A4.456,4.456,0,0,0,3.78-6.252,4.267,4.267,0,0,0,6.264-3.984ZM5.58-.048c-1.512,0-2.388-.372-2.388-1.068,0-.672.876-1.056,2.388-1.056s2.388.384,2.388,1.056C7.968-.42,7.092-.048,5.58-.048Zm0-3.1c-2.232,0-3.612.756-3.612,2.028S3.348.924,5.58.924,9.192.168,9.192-1.116,7.824-3.144,5.58-3.144ZM9.072-7.236V-9.924H7.836v6.516H9.072V-6.216h1.536v-1.02ZM16.9-4.056v.972h2.256v1.356h1.236V-9.912H19.152v5.856ZM14.232-2.424h1.236V-4.836c.96-.072,1.944-.18,2.892-.348l-.1-.876c-.372.048-.756.1-1.128.132A18.034,18.034,0,0,0,17.352-8.9v-.408H12.264V-8.3h3.864a18.532,18.532,0,0,1-.252,2.472c-1.62.108-3.264.12-4.608.132l.168.984c.84,0,1.8-.012,2.8-.06Zm-.18,2.136v-2.3H12.816V.72H20.64V-.288Zm13.86-6.9V-6.18h1.92v2.724h1.236V-9.912H29.832v2.724Zm.624,2.412A3.554,3.554,0,0,1,25.992-8.04v-.144h2.256v-1h-5.8v1h2.292v.156A3.8,3.8,0,0,1,22.092-4.5l.636.984A4.485,4.485,0,0,0,25.4-6.12,4.233,4.233,0,0,0,27.924-3.8ZM27.468-.024c-1.548,0-2.424-.384-2.424-1.092s.876-1.092,2.424-1.092c1.524,0,2.412.384,2.412,1.092S28.992-.024,27.468-.024Zm0-3.144c-2.268,0-3.66.768-3.66,2.052S25.2.936,27.468.936,31.116.18,31.116-1.116,29.724-3.168,27.468-3.168Zm7.692-3.2H40.3V-4.6H35.16Zm3.18,4.956V-3.6h3.18V-9.192H40.3v1.824H35.16V-9.192H33.936V-3.6H37.1v2.184H32.832V-.4h9.816v-1.02Zm9.228-7.6H46.332v1.776a5.451,5.451,0,0,1-2.856,4.944l.732,1.032a5.632,5.632,0,0,0,2.76-3.492A5.409,5.409,0,0,0,49.656-1.5l.72-.984a5.249,5.249,0,0,1-2.808-4.752Zm3.672-.912V.948h1.248V-9.924Zm12.468,5.3C61.572-5,59.832-6.672,59.832-8.4v-.816H58.524V-8.4c0,1.716-1.74,3.384-3.876,3.78l.528,1.02a5.674,5.674,0,0,0,4-2.976,5.674,5.674,0,0,0,4,2.976Zm-9.4,3.132v1.02h9.816v-1.02ZM70.956-3.5h1.152v-6.24H70.956v2.5H69.672v1h1.284Zm-.912-1.7a18.481,18.481,0,0,1-3.348.264V-6.168h2.5v-.948H66.7V-8.244h2.892v-1h-4.08v5.28h.708a20.213,20.213,0,0,0,3.948-.264ZM68.232-1.956H73.02V-.192H68.232ZM67.008.792H74.22V-2.94H67.008ZM73.044-9.924v6.516H74.22V-9.924Z" transform="translate(18 15.924)" fill="url(#linear-gradient)"/>
</svg>
