<svg id="icon_귀금속특화" xmlns="http://www.w3.org/2000/svg" xmlns:xlink="http://www.w3.org/1999/xlink" width="65" height="65" viewBox="0 0 65 65">
  <defs>
    <clipPath id="clip-path">
      <rect id="사각형_8167" data-name="사각형 8167" width="65" height="65" fill="none"/>
    </clipPath>
  </defs>
  <path id="패스_53376" data-name="패스 53376" d="M20.612,21.533l-9.236,11.7L32.5,57.664,53.623,33.229l-9.236-11.7Z" fill="#fff"/>
  <g id="그룹_15930" data-name="그룹 15930">
    <g id="그룹_15929" data-name="그룹 15929" clip-path="url(#clip-path)">
      <path id="패스_53377" data-name="패스 53377" d="M32.5,58.914a1.251,1.251,0,0,1-.945-.433L10.432,34.047a1.249,1.249,0,0,1-.037-1.592l9.236-11.7a1.249,1.249,0,0,1,.981-.475H44.388a1.251,1.251,0,0,1,.981.475l9.235,11.7a1.248,1.248,0,0,1-.036,1.592L33.445,58.481a1.251,1.251,0,0,1-.945.433M13,33.193l19.5,22.56L52,33.193l-8.22-10.41H21.218Z" fill="#222"/>
      <path id="패스_53378" data-name="패스 53378" d="M29.084,21.533l-2.654,11.7L32.5,57.664l6.071-24.435-2.654-11.7Z" fill="#8cd8ee"/>
      <path id="패스_53379" data-name="패스 53379" d="M32.5,58.914a1.25,1.25,0,0,1-1.213-.948l-6.07-24.435a1.241,1.241,0,0,1-.006-.578l2.654-11.7a1.251,1.251,0,0,1,1.219-.974h6.832a1.251,1.251,0,0,1,1.219.974l2.654,11.7a1.241,1.241,0,0,1-.006.578l-6.07,24.435a1.25,1.25,0,0,1-1.213.948m-4.785-25.7L32.5,52.48l4.785-19.263L34.918,22.783H30.082Z" fill="#222"/>
      <line id="선_600" data-name="선 600" x2="42.247" transform="translate(11.377 33.229)" fill="#fff"/>
      <path id="패스_53380" data-name="패스 53380" d="M53.623,34.479H11.377a1.25,1.25,0,1,1,0-2.5H53.623a1.25,1.25,0,1,1,0,2.5" fill="#222"/>
      <line id="선_601" data-name="선 601" y1="3.702" transform="translate(32.5 7.336)" fill="#fff"/>
      <path id="패스_53381" data-name="패스 53381" d="M32.5,12.288a1.25,1.25,0,0,1-1.25-1.25v-3.7a1.25,1.25,0,0,1,2.5,0v3.7a1.25,1.25,0,0,1-1.25,1.25" fill="#222"/>
      <line id="선_602" data-name="선 602" x1="1.341" y1="3.451" transform="translate(22.195 9.313)" fill="#fff"/>
      <path id="패스_53382" data-name="패스 53382" d="M23.536,14.014a1.251,1.251,0,0,1-1.165-.8L21.03,9.766a1.25,1.25,0,0,1,2.33-.906L24.7,12.311a1.25,1.25,0,0,1-1.165,1.7" fill="#222"/>
      <line id="선_603" data-name="선 603" y1="3.451" x2="1.341" transform="translate(41.464 9.313)" fill="#fff"/>
      <path id="패스_53383" data-name="패스 53383" d="M41.464,14.014a1.25,1.25,0,0,1-1.165-1.7L41.64,8.86a1.25,1.25,0,0,1,2.33.906l-1.341,3.451a1.251,1.251,0,0,1-1.165.8" fill="#222"/>
    </g>
  </g>
</svg>
