<svg xmlns="http://www.w3.org/2000/svg" xmlns:xlink="http://www.w3.org/1999/xlink" width="65.183" height="65" viewBox="0 0 65.183 65">
  <defs>
    <clipPath id="clip-path">
      <rect id="사각형_8206" data-name="사각형 8206" width="65.183" height="65" fill="none"/>
    </clipPath>
  </defs>
  <g id="그룹_16235" data-name="그룹 16235" clip-path="url(#clip-path)">
    <path id="패스_54077" data-name="패스 54077" d="M44.847,61.832H18.326a3.576,3.576,0,0,1-3.576-3.577V6.744a3.577,3.577,0,0,1,3.576-3.577H44.847a3.578,3.578,0,0,1,3.577,3.577V58.255a3.577,3.577,0,0,1-3.577,3.577" fill="#8cd8ee"/>
    <path id="패스_54078" data-name="패스 54078" d="M44.847,63.083H18.326A4.833,4.833,0,0,1,13.5,58.256V6.745a4.833,4.833,0,0,1,4.827-4.828H44.847a4.833,4.833,0,0,1,4.827,4.828V58.256a4.833,4.833,0,0,1-4.827,4.827M18.326,4.417A2.331,2.331,0,0,0,16,6.745V58.256a2.33,2.33,0,0,0,2.327,2.327H44.847a2.33,2.33,0,0,0,2.327-2.327V6.745a2.331,2.331,0,0,0-2.327-2.328Z" fill="#222"/>
    <rect id="사각형_8204" data-name="사각형 8204" width="33.674" height="45.26" transform="translate(14.75 9.87)" fill="#fff"/>
    <path id="패스_54079" data-name="패스 54079" d="M48.424,56.379H14.749a1.25,1.25,0,0,1-1.25-1.25V9.871a1.25,1.25,0,0,1,1.25-1.25H48.424a1.25,1.25,0,0,1,1.25,1.25V55.129a1.25,1.25,0,0,1-1.25,1.25M16,53.879H47.174V11.12H16Z" fill="#222"/>
    <path id="패스_54080" data-name="패스 54080" d="M38.1,35.562H25.078a4,4,0,0,1-4-4v-2.4a4,4,0,0,1,4-4H38.1a4,4,0,0,1,4,4v2.4a4,4,0,0,1-4,4" fill="#8cd8ee"/>
    <path id="패스_54081" data-name="패스 54081" d="M38.1,36.812H25.078a5.256,5.256,0,0,1-5.25-5.25v-2.4a5.256,5.256,0,0,1,5.25-5.25H38.1a5.256,5.256,0,0,1,5.25,5.25v2.4a5.256,5.256,0,0,1-5.25,5.25m-13.017-10.4a2.752,2.752,0,0,0-2.75,2.75v2.4a2.752,2.752,0,0,0,2.75,2.75H38.1a2.753,2.753,0,0,0,2.75-2.75v-2.4a2.753,2.753,0,0,0-2.75-2.75Z" fill="#222"/>
    <path id="패스_54082" data-name="패스 54082" d="M49.631,31.756l-4.5,4.5-5.119-5.118a2.643,2.643,0,0,0-3.738,3.738l5.118,5.119,2.187,2.2H41.418a2.644,2.644,0,0,0,0,5.288h7.45l2.495,2.494L53.836,47.5l6.5-6.5-5.193-8.6Z" fill="#fff"/>
    <path id="패스_54083" data-name="패스 54083" d="M51.362,51.225a1.244,1.244,0,0,1-.883-.366l-2.128-2.128H41.418a3.894,3.894,0,0,1-.767-7.711l-5.259-5.262a3.893,3.893,0,0,1,5.505-5.5l4.236,4.234,3.614-3.614a1.257,1.257,0,0,1,1.027-.359l5.515.638a1.251,1.251,0,0,1,.927.6l5.193,8.6a1.249,1.249,0,0,1-.186,1.529l-8.977,8.976a1.245,1.245,0,0,1-.884.366m-9.944-7.781a1.393,1.393,0,1,0,0,2.787h7.45a1.252,1.252,0,0,1,.884.366l1.61,1.611,7.4-7.4-4.37-7.242-4.305-.5-4.071,4.07a1.249,1.249,0,0,1-1.768,0L39.13,32.02a1.43,1.43,0,0,0-1.971,0,1.4,1.4,0,0,0,0,1.971l7.309,7.322a1.25,1.25,0,0,1-.887,2.131Z" fill="#222"/>
    <rect id="사각형_8205" data-name="사각형 8205" width="12.694" height="5.082" transform="translate(51.363 49.975) rotate(-45)" fill="#8cd8ee"/>
    <path id="패스_54084" data-name="패스 54084" d="M54.956,54.819a1.248,1.248,0,0,1-.884-.366l-3.593-3.594a1.248,1.248,0,0,1,0-1.768l8.976-8.975a1.249,1.249,0,0,1,1.768,0l3.594,3.592a1.251,1.251,0,0,1,0,1.768L55.84,54.453a1.246,1.246,0,0,1-.884.366M53.13,49.975,54.956,51.8l7.209-7.209-1.826-1.825Z" fill="#222"/>
  </g>
</svg>
