<svg xmlns="http://www.w3.org/2000/svg" xmlns:xlink="http://www.w3.org/1999/xlink" width="172.79" height="366.657" viewBox="0 0 172.79 366.657">
  <defs>
    <clipPath id="clip-path">
      <rect id="사각형_3495" data-name="사각형 3495" width="172.79" height="366.657" fill="none"/>
    </clipPath>
    <clipPath id="clip-path-3">
      <rect id="사각형_3489" data-name="사각형 3489" width="6.471" height="8.581" fill="none"/>
    </clipPath>
  </defs>
  <g id="그룹_6440" data-name="그룹 6440" transform="translate(-10)">
    <g id="그룹_6439" data-name="그룹 6439" transform="translate(10)" clip-path="url(#clip-path)">
      <g id="그룹_6438" data-name="그룹 6438">
        <g id="그룹_6437" data-name="그룹 6437" clip-path="url(#clip-path)">
          <path id="패스_3199" data-name="패스 3199" d="M88.421,56.082c-1.111,6.022-1.2,12.085,2.719,17.934,7.655,11.418,7.327,19.631,1.843,31.775-5.27,11.672-14.931,14.335-27.666,15.383-11.009.906-19.991,3.43-28.271-5.854-8.817-9.888-11.753-29.675-1.895-39.784,4.62-4.739,11.335-8.108,13.83-14.6,2.02-5.262-.15-10.7.99-16.065a18.977,18.977,0,0,1,5.136-9.2c2.347-2.21,4.9-2.71,7.789-3.422,5.728-1.412,8.536-6.493,13.975-8.14,5.536-1.677,10.394.3,13.112,5.481,4.246,8.127.141,17.262-1.561,26.491" transform="translate(-4.577 -3.716)" fill="#0076c3"/>
          <path id="패스_3200" data-name="패스 3200" d="M17.893,315.4,29.1,170.876l68.328,2.105,10.34,140.727" transform="translate(-2.826 -26.99)" fill="#0076c3"/>
          <rect id="사각형_3488" data-name="사각형 3488" width="98.745" height="0.842" transform="translate(35.719 268.268) rotate(-86.102)" fill="#cce0eb"/>
          <path id="패스_3201" data-name="패스 3201" d="M82.957,341.229c.594,9.925.489,42.131,1.082,52.054.466,7.754-.381,10.531,5.506,15.073,4.657,3.588,11.451,9.124,17.73,8.16,7.257-1.108,2.881-3.084,1.145-7-.966-10.6-2.391-54.434-1.092-68.39" transform="translate(-13.103 -53.882)" fill="#fff"/>
          <path id="패스_3202" data-name="패스 3202" d="M105.666,417.249c-5.76,0-11.6-4.52-15.97-7.9l-.654-.505c-5.277-4.07-5.388-6.888-5.608-12.5-.037-.924-.077-1.928-.143-3.036-.3-4.972-.421-15.677-.541-26.03s-.244-21.071-.541-26.023l1.261-.076c.3,4.982.423,15.71.542,26.086.12,10.337.244,21.026.54,25.968.067,1.117.107,2.131.143,3.062.218,5.544.309,7.839,5.118,11.55l.656.508c4.587,3.548,10.873,8.4,16.592,7.529,2.779-.424,3.377-.924,3.486-1.182.157-.374-.464-1.237-1.065-2.071a16.1,16.1,0,0,1-1.757-2.871l-.051-.2c-.978-10.734-2.4-54.449-1.092-68.505l1.258.116c-1.3,13.954.107,57.29,1.082,68.169a15.5,15.5,0,0,0,1.586,2.552c.877,1.219,1.634,2.272,1.2,3.3-.4.956-1.694,1.519-4.459,1.941a10.347,10.347,0,0,1-1.586.12" transform="translate(-12.985 -53.871)" fill="#213e4f"/>
          <path id="패스_3203" data-name="패스 3203" d="M92.917,86.078s-13-4.872-23.432-4.106C51.2,83.321,35.963,93.893,31.463,112.526c-1.757,7.27.1,46.333-1.394,55.689l70.787-.626s1.06-63.891-7.94-81.511" transform="translate(-4.75 -12.935)" fill="#213e4f"/>
          <path id="패스_3204" data-name="패스 3204" d="M82.8,67.174s-1.373,9.3-1.711,14.447c0,0-3.28,8.072-17-1.516,0,0,1.037-11.857,2.107-20.561" transform="translate(-10.122 -9.405)" fill="#fff"/>
          <path id="패스_3205" data-name="패스 3205" d="M75.3,85.42c-3.2,0-7.121-1.611-11.7-4.811l-.3-.21.032-.364c.011-.118,1.049-11.967,2.109-20.583l1.253.155c-.952,7.743-1.888,18.111-2.072,20.174,6.563,4.51,10.481,4.736,12.623,4.113a4.941,4.941,0,0,0,3.1-2.445c.349-5.14,1.7-14.29,1.709-14.382l1.25.184c-.014.093-1.373,9.33-1.706,14.4l-.045.2A6.146,6.146,0,0,1,77.631,85.1a8.192,8.192,0,0,1-2.332.323" transform="translate(-9.998 -9.391)" fill="#213e4f"/>
          <g id="그룹_6436" data-name="그룹 6436" transform="translate(65.44 58.481)" opacity="0.4" style="mix-blend-mode: multiply;isolation: isolate">
            <g id="그룹_6435" data-name="그룹 6435">
              <g id="그룹_6434" data-name="그룹 6434" clip-path="url(#clip-path-3)">
                <path id="패스_3206" data-name="패스 3206" d="M84.186,69.451s-2.671,2.391-6.471,0l6.19,8.581Z" transform="translate(-77.715 -69.451)" fill="#827c62"/>
              </g>
            </g>
          </g>
          <path id="패스_3207" data-name="패스 3207" d="M75.036,63.6c3.468,1.174,7.661,1.476,10.4-.334,6.331-4.181,4.515-15.65,4.431-19.2-.232-9.769-9.646-15.594-18.184-9.2-4.758,3.561-5.837,9.229-5.905,14.839-.062,5.154.93,9.007,5.466,12.072a16.074,16.074,0,0,0,3.79,1.825" transform="translate(-10.39 -5.084)" fill="#fff"/>
          <path id="패스_3208" data-name="패스 3208" d="M80.325,65.066a17.675,17.675,0,0,1-5.611-.989,16.679,16.679,0,0,1-3.942-1.9c-4.854-3.28-5.808-7.41-5.744-12.6.056-4.648.756-11.294,6.158-15.337,4.007-3,8.543-3.631,12.443-1.735,4.043,1.964,6.63,6.345,6.752,11.431.011.469.053,1.08.1,1.794.339,4.936.97,14.122-4.817,17.943a9.665,9.665,0,0,1-5.341,1.394m-5.206-2.184c3.021,1.022,7.2,1.491,9.852-.264,5.174-3.415,4.575-12.124,4.253-16.8-.051-.738-.093-1.367-.105-1.852-.109-4.611-2.424-8.567-6.04-10.324-3.463-1.682-7.52-1.095-11.135,1.611-3.823,2.861-5.566,7.284-5.651,14.341-.061,4.92.787,8.567,5.188,11.541a15.415,15.415,0,0,0,3.638,1.75" transform="translate(-10.271 -4.964)" fill="#213e4f"/>
          <path id="패스_3209" data-name="패스 3209" d="M69.728,46.773c3.342.722,6.784-5.924,9.114-7.545C87.6,33.143,88.8,47.315,93.474,51.517c-1.29-1.161-.2-5.432-.228-7.074-.051-2.86-.2-6.25-1.677-8.787-8.3-13.172-33.954.209-29.419,12.8" transform="translate(-9.732 -4.775)" fill="#0076c3"/>
          <path id="패스_3210" data-name="패스 3210" d="M130.428,119.6c-.007-.007-21.783-27.443-21.783-27.443s-6.984-9.51-15.267-3.966-20.534,13.758-.67,35.408c19.623,21.387,35.077,32.67,35.454,32.946,9.236,6.714,19.505-5.97,17.837-14.658-1.5-7.8-10.914-16.417-15.571-22.286" transform="translate(-12.948 -13.655)" fill="#213e4f"/>
          <path id="패스_3211" data-name="패스 3211" d="M109.2,418.826s-.744,5.211-7.445,2.23-18.616-17.122-18.616-17.122L82.388,428.5h6.7v-7.449S92.813,430.74,98.77,430s35,5.211,10.425-11.171" transform="translate(-13.013 -63.803)" fill="#213e4f"/>
          <path id="패스_3212" data-name="패스 3212" d="M38.068,341.229c.6,9.925.488,42.131,1.083,52.054.464,7.754-.381,10.531,5.507,15.073,4.656,3.588,11.45,9.124,17.728,8.16,7.256-1.108,2.881-3.084,1.145-7-.656-11.527-2.392-54.434-1.091-68.39" transform="translate(-6.013 -53.882)" fill="#fff"/>
          <path id="패스_3213" data-name="패스 3213" d="M60.775,417.249c-5.76,0-11.605-4.523-15.973-7.9l-.649-.5c-5.28-4.072-5.39-6.89-5.61-12.505-.036-.922-.076-1.925-.142-3.031-.3-4.977-.423-15.692-.542-26.057-.12-10.348-.244-21.049-.541-26l1.261-.076c.3,4.977.423,15.695.541,26.058s.244,21.049.541,26c.067,1.115.106,2.127.142,3.057.217,5.547.308,7.844,5.12,11.555l.651.5c4.587,3.55,10.877,8.414,16.594,7.533,2.779-.424,3.377-.924,3.485-1.183.157-.373-.464-1.236-1.064-2.071a16.047,16.047,0,0,1-1.757-2.87l-.053-.22c-.625-10.978-2.416-54.261-1.09-68.484l1.258.116c-1.315,14.1.456,57.034,1.086,68.179a15.56,15.56,0,0,0,1.581,2.542c.877,1.219,1.634,2.272,1.2,3.3-.4.956-1.693,1.519-4.458,1.941a10.347,10.347,0,0,1-1.586.12" transform="translate(-5.895 -53.871)" fill="#213e4f"/>
          <path id="패스_3214" data-name="패스 3214" d="M64.306,418.826s-.744,5.211-7.446,2.23-18.614-17.122-18.614-17.122L37.5,428.5h6.7v-7.449s3.723,9.684,9.678,8.941,35,5.211,10.426-11.171" transform="translate(-5.923 -63.803)" fill="#213e4f"/>
          <path id="패스_3215" data-name="패스 3215" d="M94.952,169.14H59.761L74.07,119.288h35.191Z" transform="translate(-9.439 -18.842)" fill="#fff"/>
          <path id="패스_3216" data-name="패스 3216" d="M95.164,169.482H59.1l14.551-50.694h36.067Zm-34.949-.842H94.529L108.6,119.63H74.282Z" transform="translate(-9.335 -18.763)" fill="#3c3c3c"/>
          <path id="패스_3217" data-name="패스 3217" d="M74.179,151.108c-1.989-.972,3.521-2.533,4.91-3.512,2.26-1.595,3.942-1.309,6.645-1.14,2.526.16,5.014.281,7.531.478,3.439.275,4.128.2,6.93-1.891,1.713-1.283,6.315-7.517,7.909-3.649,2.686,6.5-2,14.847-5.625,16.623-5.578,2.731-13.718,1.521-19.677,2.5-1.793.3-3.742,1.984-5.543,1.941" transform="translate(-11.649 -22.136)" fill="#fff"/>
          <path id="패스_3218" data-name="패스 3218" d="M77.209,162.973h-.083l.03-1.263a6.582,6.582,0,0,0,2.807-.937,9.912,9.912,0,0,1,2.618-1,54.836,54.836,0,0,1,7.135-.5c4.385-.125,8.916-.254,12.366-1.943,3.288-1.611,7.9-9.578,5.318-15.814-.311-.754-.657-.822-.771-.844-1.131-.222-3.3,1.959-4.594,3.266a17.229,17.229,0,0,1-1.581,1.49c-2.914,2.178-3.783,2.3-7.359,2.016-1.675-.132-3.339-.23-5.008-.328-.834-.049-1.671-.1-2.513-.152l-.7-.045c-2.282-.157-3.663-.251-5.539,1.072a14.824,14.824,0,0,1-2.261,1.113,10.87,10.87,0,0,0-2.829,1.511.183.183,0,0,0,.009-.023l-.47.962A1.147,1.147,0,0,1,73,150.5c.021-.958,1.37-1.592,3.569-2.547a14.706,14.706,0,0,0,2.035-.987c2.242-1.583,3.967-1.464,6.353-1.3l.695.046c.84.054,1.675.1,2.508.152,1.678.1,3.35.2,5.034.328,3.314.267,3.841.221,6.5-1.767a17.028,17.028,0,0,0,1.439-1.367c1.748-1.771,3.923-3.968,5.736-3.617a2.369,2.369,0,0,1,1.7,1.6c2.884,6.979-2.191,15.6-5.931,17.431-3.695,1.81-8.367,1.943-12.886,2.072a53.836,53.836,0,0,0-6.966.485,8.933,8.933,0,0,0-2.268.882,7.875,7.875,0,0,1-3.309,1.068" transform="translate(-11.531 -22.018)" fill="#213e4f"/>
          <path id="패스_3219" data-name="패스 3219" d="M100.231,150.378a6.635,6.635,0,0,1-1.3-.109l.263-1.235a7.859,7.859,0,0,0,4.988-.972c2.631-1.5,5.925-6.915,5.958-6.969l1.081.653c-.141.234-3.5,5.75-6.414,7.413a9.276,9.276,0,0,1-4.581,1.219" transform="translate(-15.627 -22.286)" fill="#213e4f"/>
          <path id="패스_3220" data-name="패스 3220" d="M101.483,153.854l-.1-1.26a16.72,16.72,0,0,0,6.152-1.778c2.371-1.439,4.537-6.259,4.559-6.308l1.154.514c-.1.213-2.348,5.23-5.057,6.874a17.737,17.737,0,0,1-6.708,1.959" transform="translate(-16.014 -22.826)" fill="#213e4f"/>
          <path id="패스_3221" data-name="패스 3221" d="M101.822,156.857l-.1-1.26a16.739,16.739,0,0,0,6.156-1.778c2.365-1.44,4.535-6.259,4.557-6.308l1.154.515c-.1.212-2.353,5.227-5.055,6.871a17.753,17.753,0,0,1-6.713,1.959" transform="translate(-16.067 -23.3)" fill="#213e4f"/>
          <path id="패스_3222" data-name="패스 3222" d="M82.128,147.057c5.447-2.409,9.185-9.263,11.9-5.707,1.5,1.959-2.94,4.244-3.837,6.776" transform="translate(-12.972 -22.168)" fill="#fff"/>
          <path id="패스_3223" data-name="패스 3223" d="M90.741,148.22l-1.191-.421a9.825,9.825,0,0,1,2.319-3.153c1.356-1.423,2.14-2.337,1.612-3.031a1.66,1.66,0,0,0-1.113-.748c-1.1-.1-2.668,1.235-4.337,2.666a24.124,24.124,0,0,1-5.7,3.983l-.512-1.154a23.2,23.2,0,0,0,5.386-3.788c1.961-1.682,3.645-3.132,5.291-2.963a2.878,2.878,0,0,1,1.984,1.238c1.223,1.6-.33,3.231-1.7,4.668a9.013,9.013,0,0,0-2.043,2.7" transform="translate(-12.924 -22.05)" fill="#213e4f"/>
          <path id="패스_3224" data-name="패스 3224" d="M35.647,135.575l22.139-22.184s7.73-7.188,1.944-13.98S45.39,82.587,28.2,102.472,2.587,137.38,2.587,137.38-5.523,150,6.974,155.75c0,0,5,4.8,28.673-20.175" transform="translate(0 -14.338)" fill="#213e4f"/>
          <path id="패스_3225" data-name="패스 3225" d="M68.281,143.1l-37.89.142L9.383,164.57s53.376.68,58.192-.01Z" transform="translate(-1.482 -22.603)" fill="#213e4f"/>
          <path id="패스_3226" data-name="패스 3226" d="M185.625,64.142c-4.273,1.711-9.407,5.132-17.959,5.132S157.4,72.7,157.4,72.7l-1.272,3.82c-7.243,14.831-29.417,60.264-22.256,68.281,8.224,9.2,18.419,2.443,21.6-7.174,5.354-16.16,14.049-45.56,15.792-56.553a11.456,11.456,0,0,1,3.24-1.53c3.42-.858,12.829-4.276,17.109-10.265s-1.713-6.843-5.99-5.132" transform="translate(-20.924 -10.008)" fill="#fff"/>
          <path id="패스_3227" data-name="패스 3227" d="M142.308,149.679c-2.589,0-5.819-.991-9.025-4.579-6.68-7.477,9.447-42.948,22.159-68.979l1.276-3.826c.077-.153,1.987-3.769,10.83-3.769,6.639,0,11.219-2.126,14.9-3.835.988-.459,1.922-.892,2.823-1.253h0c2.71-1.083,6.352-1.266,7.763.53.7.894,1.1,2.584-1.024,5.556-4.223,5.909-13.273,9.46-17.469,10.511a10.256,10.256,0,0,0-2.816,1.3c-1.847,11.218-10.459,40.336-15.771,56.37-2.021,6.106-6.547,10.72-11.529,11.754a10.386,10.386,0,0,1-2.119.221m15.553-76.84-1.252,3.76c-19.434,39.806-26.955,62.544-22.384,67.659,2.972,3.328,6.41,4.7,9.944,3.964,4.481-.93,8.735-5.317,10.588-10.915,5.344-16.131,14.034-45.515,15.767-56.453l.045-.28.237-.153a11.935,11.935,0,0,1,3.429-1.612c3.249-.815,12.591-4.2,16.748-10.02,1.3-1.821,1.676-3.257,1.06-4.041-.862-1.1-3.746-1.159-6.3-.137-.871.349-1.789.774-2.762,1.226-3.793,1.76-8.515,3.952-15.432,3.952-7.53,0-9.484,2.73-9.686,3.05" transform="translate(-20.806 -9.891)" fill="#213e4f"/>
          <path id="패스_3228" data-name="패스 3228" d="M40.21,141.749l8.41-11.381.678.5-7.389,10,18.661-.443.019.842Z" transform="translate(-6.351 -20.592)" fill="#cce0eb"/>
          <rect id="사각형_3490" data-name="사각형 3490" width="28.814" height="1.263" transform="translate(26.343 141.464)" fill="#213e4f"/>
          <path id="패스_3229" data-name="패스 3229" d="M69.087,48.87s-2.2-4.232-5.366-2.049-2.124,7.651,5.62,8.559" transform="translate(-9.801 -7.297)" fill="#fff"/>
          <path id="패스_3230" data-name="패스 3230" d="M69.148,55.89c-4.169-.489-7.055-2.376-7.719-5.048a4.306,4.306,0,0,1,1.814-4.658,3.566,3.566,0,0,1,2.972-.639c2.041.508,3.262,2.818,3.313,2.916l-1.12.584a4.9,4.9,0,0,0-2.5-2.275,2.331,2.331,0,0,0-1.946.455,3.066,3.066,0,0,0-1.305,3.313c.532,2.141,3.015,3.673,6.64,4.1Z" transform="translate(-9.682 -7.178)" fill="#213e4f"/>
          <path id="패스_3231" data-name="패스 3231" d="M67.928,52.242a.628.628,0,0,1-.429-.168l-1.853-1.72a.632.632,0,1,1,.859-.926l1.853,1.72a.632.632,0,0,1-.429,1.095" transform="translate(-10.337 -7.781)" fill="#213e4f"/>
          <path id="패스_3232" data-name="패스 3232" d="M90.908,54.113c-.263,0-.662-.122-.893-.786a2.354,2.354,0,0,1,.532-2.241.941.941,0,0,1,1.169.077.629.629,0,0,1,.2.284l.072.205c.218.824-.089,2.2-.847,2.427a.792.792,0,0,1-.234.034m.413-2.456h0Z" transform="translate(-14.205 -8.043)" fill="#213e4f"/>
          <path id="패스_3233" data-name="패스 3233" d="M79.9,54.138c-.261,0-.682-.119-.9-.822A2.354,2.354,0,0,1,79.63,51.1a.942.942,0,0,1,1.165.125.636.636,0,0,1,.189.288l.065.207c.184.836-.179,2.194-.946,2.394a.854.854,0,0,1-.2.024m.478-2.437h0Z" transform="translate(-12.47 -8.048)" fill="#213e4f"/>
          <path id="패스_3234" data-name="패스 3234" d="M85.093,58.469l-.246,0a.632.632,0,0,1-.616-.647.663.663,0,0,1,.646-.616,2.172,2.172,0,0,0,1.735-.491c-.572-2.043-1.32-5.13.176-7.182a5.171,5.171,0,0,1,4.252-1.849.606.606,0,0,1,.653.61.632.632,0,0,1-.61.653,4,4,0,0,0-3.273,1.331c-1.232,1.69-.349,4.8.125,6.47a.65.65,0,0,1-.182.653,3.4,3.4,0,0,1-2.658,1.07" transform="translate(-13.305 -7.531)" fill="#213e4f"/>
          <path id="패스_3235" data-name="패스 3235" d="M83.285,65.518c-1.559,0-3.257-1.218-4.4-3.182a.633.633,0,0,1,0-.636.6.6,0,0,1,.555-.313l6.716.094a.631.631,0,0,1,.587.839c-.856,2.461-2.2,3.09-3.181,3.185-.092.009-.186.013-.279.013m-2.633-2.85a3.636,3.636,0,0,0,2.791,1.58,2.414,2.414,0,0,0,1.763-1.517Z" transform="translate(-12.447 -9.696)" fill="#213e4f"/>
          <path id="패스_3236" data-name="패스 3236" d="M146.616,58.816a1.921,1.921,0,1,1-3.59-1.368l14.389-37.666A1.92,1.92,0,1,1,161,21.149Z" transform="translate(-22.572 -2.929)" fill="#213e4f"/>
          <path id="패스_3237" data-name="패스 3237" d="M173.592,19.356c-1.7,4.458-3.105,8.063-7.566,6.361l-16.139-6.166c-4.46-1.7-4.3-5.786-2.6-10.243s4.3-7.6,8.762-5.9l16.139,6.166c4.462,1.7,3.1,5.325,1.4,9.783" transform="translate(-23.09 -0.464)" fill="#213e4f"/>
          <path id="패스_3238" data-name="패스 3238" d="M148.043,16.81a2.789,2.789,0,0,1-5.211-1.989l4.976-13.026a2.789,2.789,0,1,1,5.21,1.991Z" transform="translate(-22.532 0)" fill="#213e4f"/>
          <path id="패스_3239" data-name="패스 3239" d="M177.863,28.2a2.787,2.787,0,1,1-5.207-1.988l4.972-13.026a2.79,2.79,0,0,1,5.212,1.991Z" transform="translate(-27.242 -1.799)" fill="#213e4f"/>
          <rect id="사각형_3491" data-name="사각형 3491" width="12.772" height="0.842" transform="translate(145.488 24.06) rotate(-69.391)" fill="#cce0eb"/>
          <path id="패스_3240" data-name="패스 3240" d="M63.328,79.544,76.8,85.438l.842,9.684L57.434,85.438Z" transform="translate(-9.072 -12.564)" fill="#213e4f"/>
          <path id="패스_3241" data-name="패스 3241" d="M79.934,84.964,84.565,89.6l5.894-7.578-6.315-5.473Z" transform="translate(-12.626 -12.09)" fill="#213e4f"/>
          <path id="패스_3242" data-name="패스 3242" d="M75.195,98.012l-16.52-10,.435-.72,15.478,9.368L76.75,84.987,83.559,93.5,86.7,82.9l.808.238-3.6,12.141L77.243,86.95Z" transform="translate(-9.268 -13.095)" fill="#cce0eb"/>
          <rect id="사각형_3492" data-name="사각형 3492" width="0.842" height="99.978" transform="matrix(0.998, -0.063, 0.063, 0.998, 79.913, 171.07)" fill="#cce0eb"/>
          <rect id="사각형_3493" data-name="사각형 3493" width="0.842" height="98.514" transform="translate(60.968 169.781)" fill="#cce0eb"/>
          <path id="패스_3243" data-name="패스 3243" d="M176.351,38.392a11.963,11.963,0,0,1-5.546-1.515l.4-.743c3.007,1.612,6.133,1.871,8.159.68,1.592-.936,2.455-2.761,2.5-5.279l.842.014c-.059,3.571-1.616,5.229-2.912,5.99a6.752,6.752,0,0,1-3.439.851" transform="translate(-26.979 -4.981)" fill="#213e4f"/>
          <path id="패스_3244" data-name="패스 3244" d="M178.313,42.989a6.239,6.239,0,0,1-3.13-.886l.421-.728a4.978,4.978,0,0,0,4.652.346,5.815,5.815,0,0,0,3.144-4.272l.827.159a6.655,6.655,0,0,1-3.622,4.879,5.493,5.493,0,0,1-2.293.5" transform="translate(-27.671 -5.915)" fill="#213e4f"/>
        </g>
      </g>
    </g>
  </g>
</svg>
