<svg id="구성_요소_714_2" data-name="구성 요소 714 – 2" xmlns="http://www.w3.org/2000/svg" width="20" height="20" viewBox="0 0 20 20">
  <rect id="location_Background_" data-name="location (Background)" width="20" height="20" fill="none" opacity="0"/>
  <path id="location" d="M6.266,16.979a.547.547,0,0,1-.452-.239L1.085,9.794a6.267,6.267,0,1,1,10.361,0L6.718,16.74A.547.547,0,0,1,6.266,16.979Zm0-15.729A5.016,5.016,0,0,0,2.118,9.09l4.148,6.093L10.412,9.09A5.016,5.016,0,0,0,6.265,1.25Zm0,8.029A3.125,3.125,0,1,1,9.391,6.154,3.129,3.129,0,0,1,6.266,9.279Zm0-5A1.875,1.875,0,1,0,8.141,6.154,1.877,1.877,0,0,0,6.266,4.28Z" transform="translate(3.735 1.346)" fill="#fff"/>
</svg>
