<svg id="icon_소담스퀘어" xmlns="http://www.w3.org/2000/svg" xmlns:xlink="http://www.w3.org/1999/xlink" width="65" height="65" viewBox="0 0 65 65">
  <defs>
    <clipPath id="clip-path">
      <rect id="사각형_8175" data-name="사각형 8175" width="65" height="65" fill="none"/>
    </clipPath>
  </defs>
  <rect id="사각형_8172" data-name="사각형 8172" width="55.513" height="21.038" transform="translate(4.743 11.356)" fill="#8cd8ee"/>
  <g id="그룹_15934" data-name="그룹 15934">
    <g id="그룹_15933" data-name="그룹 15933" clip-path="url(#clip-path)">
      <path id="패스_53398" data-name="패스 53398" d="M60.256,33.644H4.743a1.25,1.25,0,0,1-1.25-1.25V11.356a1.25,1.25,0,0,1,1.25-1.25H60.256a1.25,1.25,0,0,1,1.25,1.25V32.394a1.25,1.25,0,0,1-1.25,1.25m-54.263-2.5H59.006V12.606H5.993Z" fill="#222"/>
      <rect id="사각형_8173" data-name="사각형 8173" width="43.764" height="8.039" transform="translate(10.618 17.856)" fill="#fff"/>
      <path id="패스_53399" data-name="패스 53399" d="M54.382,27.144H10.618a1.25,1.25,0,0,1-1.25-1.25V17.856a1.25,1.25,0,0,1,1.25-1.25H54.382a1.25,1.25,0,0,1,1.25,1.25v8.038a1.25,1.25,0,0,1-1.25,1.25m-42.514-2.5H53.132V19.106H11.868Z" fill="#222"/>
      <path id="패스_53400" data-name="패스 53400" d="M48.9,21.875a16.4,16.4,0,1,1-16.4-16.4,16.4,16.4,0,0,1,16.4,16.4" fill="#fff"/>
      <path id="패스_53401" data-name="패스 53401" d="M32.5,39.523A17.648,17.648,0,1,1,50.148,21.874,17.668,17.668,0,0,1,32.5,39.523m0-32.8A15.148,15.148,0,1,0,47.648,21.874,15.164,15.164,0,0,0,32.5,6.727" fill="#222"/>
      <path id="패스_53402" data-name="패스 53402" d="M42.335,21.875A9.835,9.835,0,1,1,32.5,12.04a9.835,9.835,0,0,1,9.835,9.835" fill="#8cd8ee"/>
      <path id="패스_53403" data-name="패스 53403" d="M32.5,32.961A11.085,11.085,0,1,1,43.585,21.875,11.1,11.1,0,0,1,32.5,32.961m0-19.671a8.586,8.586,0,1,0,8.585,8.585A8.6,8.6,0,0,0,32.5,13.29" fill="#222"/>
      <line id="선_604" data-name="선 604" y2="21.25" transform="translate(32.5 38.273)" fill="#fff"/>
      <path id="패스_53404" data-name="패스 53404" d="M32.5,60.773a1.25,1.25,0,0,1-1.25-1.25V38.273a1.25,1.25,0,0,1,2.5,0v21.25a1.25,1.25,0,0,1-1.25,1.25" fill="#222"/>
      <rect id="사각형_8174" data-name="사각형 8174" width="6.049" height="14.34" transform="translate(29.476 45.183)" fill="#fff"/>
      <path id="패스_53405" data-name="패스 53405" d="M35.525,60.773H29.476a1.249,1.249,0,0,1-1.25-1.25V45.182a1.25,1.25,0,0,1,1.25-1.25h6.049a1.25,1.25,0,0,1,1.25,1.25V59.523a1.25,1.25,0,0,1-1.25,1.25m-4.8-2.5h3.549V46.432H30.726Z" fill="#222"/>
    </g>
  </g>
</svg>
