<svg id="icon_공공아이핀" xmlns="http://www.w3.org/2000/svg" xmlns:xlink="http://www.w3.org/1999/xlink" width="50" height="50" viewBox="0 0 50 50">
  <defs>
    <clipPath id="clip-path">
      <rect id="사각형_7982" data-name="사각형 7982" width="50" height="50" fill="none"/>
    </clipPath>
  </defs>
  <g id="그룹_15541" data-name="그룹 15541" clip-path="url(#clip-path)">
    <path id="패스_50492" data-name="패스 50492" d="M31.678,21.629a1.5,1.5,0,0,1-1.5-1.5v-7.05a5.177,5.177,0,0,0-10.355,0v7.05a1.5,1.5,0,0,1-3,0v-7.05a8.178,8.178,0,0,1,16.355,0v7.051a1.5,1.5,0,0,1-1.5,1.5" fill="#1a72c9"/>
    <path id="패스_50493" data-name="패스 50493" d="M25,45.1A13.613,13.613,0,1,1,38.61,31.487,13.627,13.627,0,0,1,25,45.1m0-24.226A10.613,10.613,0,1,0,35.61,31.487,10.624,10.624,0,0,0,25,20.873" fill="#444"/>
    <path id="패스_50494" data-name="패스 50494" d="M25,34.984a1.5,1.5,0,0,1-1.5-1.5V29.905a1.5,1.5,0,1,1,3,0v3.579a1.5,1.5,0,0,1-1.5,1.5" fill="#444"/>
  </g>
</svg>
