<svg id="icon_알아두실사항" xmlns="http://www.w3.org/2000/svg" width="33" height="24" viewBox="0 0 33 24">
  <rect id="사각형_6704" data-name="사각형 6704" width="33" height="24" fill="none"/>
  <path id="sms_FILL0_wght400_GRAD0_opsz48" d="M15.48,11.14a.786.786,0,1,1,.57-.23A.774.774,0,0,1,15.48,11.14Zm-3.54,0a.786.786,0,1,1,.57-.23A.774.774,0,0,1,11.94,11.14Zm-3.4,0a.786.786,0,1,1,.57-.23A.774.774,0,0,1,8.54,11.14ZM20,20V5.2a1.163,1.163,0,0,0-.36-.83A1.136,1.136,0,0,0,18.8,4H5.2a1.148,1.148,0,0,0-.83.37A1.148,1.148,0,0,0,4,5.2V15.6a1.148,1.148,0,0,0,.37.83,1.148,1.148,0,0,0,.83.37H16.8Zm-1.2-2.9-1.5-1.5H5.2V5.2H18.8Zm0-11.9h0V15.6h0V5.2Z" transform="translate(1.484)" fill="#222"/>
</svg>
