<svg xmlns="http://www.w3.org/2000/svg" xmlns:xlink="http://www.w3.org/1999/xlink" width="50" height="50" viewBox="0 0 50 50">
  <defs>
    <clipPath id="clip-path">
      <rect id="사각형_7996" data-name="사각형 7996" width="50" height="50" fill="none"/>
    </clipPath>
  </defs>
  <g id="그룹_15649" data-name="그룹 15649" clip-path="url(#clip-path)">
    <path id="패스_50505" data-name="패스 50505" d="M35.451,44.625h-20.9a6.508,6.508,0,0,1-6.5-6.5V16.11c0-3.584,2.508-6.5,5.59-6.5,3.057,0,5.257,1.15,5.556,2.845a7.847,7.847,0,0,0,3.534.645H27.27a7.847,7.847,0,0,0,3.534-.645c.3-1.695,2.5-2.845,5.557-2.845,3.082,0,5.59,2.916,5.59,6.5V38.125a6.508,6.508,0,0,1-6.5,6.5M13.639,12.61c-1.4,0-2.59,1.6-2.59,3.5V38.125a3.5,3.5,0,0,0,3.5,3.5h20.9a3.505,3.505,0,0,0,3.5-3.5V16.11c0-1.9-1.186-3.5-2.59-3.5a5.193,5.193,0,0,0-2.611.551c-.286,2.162-3.613,2.939-6.48,2.939H22.729c-2.867,0-6.194-.777-6.481-2.939a5.179,5.179,0,0,0-2.609-.551" fill="#444"/>
    <path id="패스_50506" data-name="패스 50506" d="M27.27,16.1H22.729c-3.584,0-6.5-2.407-6.5-5.363s2.916-5.363,6.5-5.363H27.27c3.584,0,6.5,2.406,6.5,5.363S30.854,16.1,27.27,16.1M22.729,8.375c-1.864,0-3.5,1.1-3.5,2.363s1.636,2.363,3.5,2.363H27.27c1.864,0,3.5-1.1,3.5-2.363s-1.636-2.363-3.5-2.363Z" fill="#444"/>
    <path id="패스_50507" data-name="패스 50507" d="M28.409,24.633H21.593a1.5,1.5,0,0,1,0-3h6.816a1.5,1.5,0,0,1,0,3" fill="#1a72c9"/>
    <path id="패스_50508" data-name="패스 50508" d="M28.409,32.812H21.593a1.5,1.5,0,1,1,0-3h6.816a1.5,1.5,0,0,1,0,3" fill="#1a72c9"/>
  </g>
</svg>
