<svg id="icon_종합콜센터" xmlns="http://www.w3.org/2000/svg" xmlns:xlink="http://www.w3.org/1999/xlink" width="65" height="65" viewBox="0 0 65 65">
  <defs>
    <clipPath id="clip-path">
      <rect id="사각형_8171" data-name="사각형 8171" width="65" height="65" fill="none"/>
    </clipPath>
  </defs>
  <g id="그룹_15932" data-name="그룹 15932" clip-path="url(#clip-path)">
    <path id="패스_53392" data-name="패스 53392" d="M44.474,51.916H20.525A7.753,7.753,0,0,1,13.1,41.941L20.023,18.8H44.976L51.9,41.941a7.752,7.752,0,0,1-7.427,9.975" fill="#fff"/>
    <path id="패스_53393" data-name="패스 53393" d="M44.475,53.166H20.525A9,9,0,0,1,11.9,41.582l6.925-23.139a1.249,1.249,0,0,1,1.2-.892H44.976a1.249,1.249,0,0,1,1.2.892L53.1,41.582a9,9,0,0,1-8.624,11.584M20.954,20.051,14.3,42.3a6.5,6.5,0,0,0,6.229,8.367h23.95A6.5,6.5,0,0,0,50.7,42.3L44.046,20.051Z" fill="#222"/>
    <path id="패스_53394" data-name="패스 53394" d="M46.155,13.084H17.933a9.8,9.8,0,0,0-9.8,9.8v6.334H22.818V22.52H42.181v6.694H56.863V22.88a9.8,9.8,0,0,0-9.8-9.8Z" fill="#8cd8ee"/>
    <path id="패스_53395" data-name="패스 53395" d="M56.864,30.465H42.182a1.25,1.25,0,0,1-1.25-1.25V23.771H24.069v5.444a1.25,1.25,0,0,1-1.25,1.25H8.137a1.25,1.25,0,0,1-1.25-1.25V22.881A11.058,11.058,0,0,1,17.933,11.835H47.067A11.059,11.059,0,0,1,58.114,22.881v6.334a1.25,1.25,0,0,1-1.25,1.25m-13.432-2.5H55.614V22.881a8.556,8.556,0,0,0-8.547-8.546H17.933a8.556,8.556,0,0,0-8.546,8.546v5.084H21.569V22.521a1.249,1.249,0,0,1,1.25-1.25H42.182a1.25,1.25,0,0,1,1.25,1.25Z" fill="#222"/>
    <path id="패스_53396" data-name="패스 53396" d="M38.979,38.032A6.479,6.479,0,1,1,32.5,31.553a6.479,6.479,0,0,1,6.479,6.479" fill="#fff"/>
    <path id="패스_53397" data-name="패스 53397" d="M32.5,45.761a7.729,7.729,0,1,1,7.729-7.729A7.737,7.737,0,0,1,32.5,45.761m0-12.958a5.229,5.229,0,1,0,5.229,5.229A5.235,5.235,0,0,0,32.5,32.8" fill="#222"/>
  </g>
</svg>
