<svg id="icon_힌트문구" xmlns="http://www.w3.org/2000/svg" xmlns:xlink="http://www.w3.org/1999/xlink" width="65" height="65" viewBox="0 0 65 65">
  <defs>
    <clipPath id="clip-path">
      <rect id="사각형_6431" data-name="사각형 6431" width="65" height="65" fill="none"/>
    </clipPath>
  </defs>
  <path id="패스_6683" data-name="패스 6683" d="M39.473,45.988,23.8,36.806V23.3L39.473,14.12Z" fill="#fff"/>
  <g id="그룹_13903" data-name="그룹 13903">
    <g id="그룹_13902" data-name="그룹 13902" clip-path="url(#clip-path)">
      <path id="패스_6684" data-name="패스 6684" d="M39.474,47.238a1.25,1.25,0,0,1-.632-.171l-15.67-9.183a1.249,1.249,0,0,1-.618-1.078V23.3a1.248,1.248,0,0,1,.618-1.078l15.67-9.182a1.249,1.249,0,0,1,1.882,1.078V45.988a1.25,1.25,0,0,1-.629,1.085,1.237,1.237,0,0,1-.621.165M25.054,36.089l13.17,7.718V16.3l-13.17,7.717Z" fill="#444"/>
      <rect id="사각형_6429" data-name="사각형 6429" width="12.918" height="13.504" transform="translate(10.886 23.302)" fill="#8cd8ee"/>
      <path id="패스_6685" data-name="패스 6685" d="M23.8,38.056H10.886a1.25,1.25,0,0,1-1.25-1.25V23.3a1.25,1.25,0,0,1,1.25-1.25H23.8a1.25,1.25,0,0,1,1.25,1.25v13.5a1.25,1.25,0,0,1-1.25,1.25m-11.668-2.5H22.554v-11H12.136Z" fill="#444"/>
      <rect id="사각형_6430" data-name="사각형 6430" width="5.491" height="13.504" transform="translate(5.395 23.302)" fill="#fff"/>
      <path id="패스_6686" data-name="패스 6686" d="M10.886,38.056H5.395a1.25,1.25,0,0,1-1.25-1.25V23.3a1.25,1.25,0,0,1,1.25-1.25h5.491a1.25,1.25,0,0,1,1.25,1.25v13.5a1.25,1.25,0,0,1-1.25,1.25m-4.241-2.5H9.636v-11H6.645Z" fill="#444"/>
      <path id="패스_6687" data-name="패스 6687" d="M19.271,55.1h0a3.472,3.472,0,0,0,3.308-4.529l-4.4-13.769H10.886l5.077,15.883A3.473,3.473,0,0,0,19.271,55.1" fill="#fff"/>
      <path id="패스_6688" data-name="패스 6688" d="M19.271,56.355a4.706,4.706,0,0,1-4.5-3.285L9.7,37.187a1.249,1.249,0,0,1,1.19-1.631h7.291a1.251,1.251,0,0,1,1.191.869l4.4,13.769a4.724,4.724,0,0,1-4.5,6.161M12.6,38.056l4.556,14.252a2.222,2.222,0,1,0,4.234-1.353l-4.124-12.9Z" fill="#444"/>
      <path id="패스_6689" data-name="패스 6689" d="M43.613,50.18H42.061a2.588,2.588,0,0,1-2.588-2.587V12.483A2.588,2.588,0,0,1,42.061,9.9h1.552A2.588,2.588,0,0,1,46.2,12.483v35.11a2.587,2.587,0,0,1-2.587,2.587" fill="#8cd8ee"/>
      <path id="패스_6690" data-name="패스 6690" d="M43.614,51.43H42.061a3.842,3.842,0,0,1-3.837-3.837V12.483a3.842,3.842,0,0,1,3.837-3.837h1.553a3.842,3.842,0,0,1,3.837,3.837v35.11a3.842,3.842,0,0,1-3.837,3.837M42.061,11.146a1.339,1.339,0,0,0-1.337,1.337v35.11a1.338,1.338,0,0,0,1.337,1.337h1.553a1.338,1.338,0,0,0,1.337-1.337V12.483a1.339,1.339,0,0,0-1.337-1.337Z" fill="#444"/>
      <line id="선_77" data-name="선 77" x2="3.702" transform="translate(55.903 30.054)" fill="#fff"/>
      <path id="패스_6691" data-name="패스 6691" d="M59.6,31.3H55.9a1.25,1.25,0,0,1,0-2.5h3.7a1.25,1.25,0,0,1,0,2.5" fill="#444"/>
      <line id="선_78" data-name="선 78" y1="1.341" x2="3.451" transform="translate(54.177 19.75)" fill="#fff"/>
      <path id="패스_6692" data-name="패스 6692" d="M54.178,22.341a1.25,1.25,0,0,1-.453-2.415l3.45-1.342a1.25,1.25,0,0,1,.906,2.33l-3.45,1.342a1.241,1.241,0,0,1-.453.085" fill="#444"/>
      <line id="선_79" data-name="선 79" x2="3.451" y2="1.341" transform="translate(54.177 39.018)" fill="#fff"/>
      <path id="패스_6693" data-name="패스 6693" d="M57.628,41.609a1.245,1.245,0,0,1-.453-.085l-3.45-1.341a1.25,1.25,0,0,1,.906-2.33l3.45,1.341a1.25,1.25,0,0,1-.453,2.415" fill="#444"/>
    </g>
  </g>
</svg>
