<svg id="icon_회원정보입력" xmlns="http://www.w3.org/2000/svg" xmlns:xlink="http://www.w3.org/1999/xlink" width="50" height="50" viewBox="0 0 50 50">
  <defs>
    <clipPath id="clip-path">
      <rect id="사각형_7995" data-name="사각형 7995" width="50" height="50" fill="none"/>
    </clipPath>
  </defs>
  <g id="그룹_15648" data-name="그룹 15648" clip-path="url(#clip-path)">
    <path id="패스_50502" data-name="패스 50502" d="M25,46.5A21.5,21.5,0,1,1,46.5,25,21.526,21.526,0,0,1,25,46.5m0-40A18.5,18.5,0,1,0,43.5,25,18.522,18.522,0,0,0,25,6.5" fill="#444"/>
    <path id="패스_50503" data-name="패스 50503" d="M25,23.088a5.277,5.277,0,1,1,5.278-5.278A5.284,5.284,0,0,1,25,23.088m0-7.554a2.277,2.277,0,1,0,2.278,2.276A2.279,2.279,0,0,0,25,15.534" fill="#1a72c9"/>
    <path id="패스_50504" data-name="패스 50504" d="M31.738,36.7H18.261a1.5,1.5,0,0,1-1.5-1.5V28.9a4.772,4.772,0,0,1,4.767-4.767H28.47A4.773,4.773,0,0,1,33.238,28.9v6.3a1.5,1.5,0,0,1-1.5,1.5m-11.977-3H30.238V28.9A1.77,1.77,0,0,0,28.47,27.13H21.528A1.769,1.769,0,0,0,19.761,28.9Z" fill="#1a72c9"/>
  </g>
</svg>
