<svg xmlns="http://www.w3.org/2000/svg" xmlns:xlink="http://www.w3.org/1999/xlink" width="50" height="50" viewBox="0 0 50 50">
  <defs>
    <clipPath id="clip-path">
      <rect id="사각형_7981" data-name="사각형 7981" width="50" height="50" fill="none"/>
    </clipPath>
  </defs>
  <g id="그룹_15540" data-name="그룹 15540" clip-path="url(#clip-path)">
    <path id="패스_50489" data-name="패스 50489" d="M30.178,44.834H15.511a6.508,6.508,0,0,1-6.5-6.5V11.667a6.508,6.508,0,0,1,6.5-6.5H30.178a6.508,6.508,0,0,1,6.5,6.5v5.667a1.5,1.5,0,0,1-3,0V11.667a3.5,3.5,0,0,0-3.5-3.5H15.511a3.5,3.5,0,0,0-3.5,3.5V38.334a3.5,3.5,0,0,0,3.5,3.5H30.178a3.5,3.5,0,0,0,3.5-3.5V30.5a1.5,1.5,0,1,1,3,0v7.833a6.508,6.508,0,0,1-6.5,6.5" transform="translate(3)" fill="#444"/>
    <path id="패스_50490" data-name="패스 50490" d="M24.844,12.834h-4a1.5,1.5,0,1,1,0-3h4a1.5,1.5,0,1,1,0,3" transform="translate(2)" fill="#444"/>
    <path id="패스_50491" data-name="패스 50491" d="M30.691,34.816a1.506,1.506,0,0,1-1.2-.605L27.844,32h-3.3a4.156,4.156,0,0,1-4.151-4.151v-7.72a4.156,4.156,0,0,1,4.151-4.152H36.838a4.156,4.156,0,0,1,4.151,4.152v7.72A4.156,4.156,0,0,1,36.838,32h-3.3L31.9,34.21a1.5,1.5,0,0,1-1.2.606M24.544,18.977a1.153,1.153,0,0,0-1.151,1.152v7.72A1.152,1.152,0,0,0,24.544,29H28.6a1.5,1.5,0,0,1,1.2.6l.888,1.2.889-1.195a1.5,1.5,0,0,1,1.2-.606h4.055a1.152,1.152,0,0,0,1.151-1.151v-7.72a1.153,1.153,0,0,0-1.151-1.152Z" transform="translate(3)" fill="#1a72c9"/>
  </g>
</svg>
